<svg width="19" height="19" viewBox="0 0 19 19" fill="none" xmlns="http://www.w3.org/2000/svg">
<rect x="0.5" y="0.5" width="18" height="18" rx="9" fill="#776C7C"/>
<path d="M3.19269 12.5V11.644H4.48869V7.724H4.98469L3.32069 8.716V7.74L4.78469 6.86H5.52069V11.644H6.73669V12.5H3.19269ZM9.07756 12.58C8.77356 12.58 8.47223 12.524 8.17356 12.412C7.8749 12.2947 7.6189 12.1373 7.40556 11.94L7.74956 11.172C7.9469 11.3533 8.16023 11.4893 8.38956 11.58C8.6189 11.6707 8.8509 11.716 9.08556 11.716C9.56023 11.716 9.9229 11.5533 10.1736 11.228C10.4296 10.9027 10.5576 10.4173 10.5576 9.772V9.172H10.6536C10.6162 9.43867 10.5256 9.67067 10.3816 9.868C10.2376 10.0653 10.0562 10.2173 9.83756 10.324C9.62423 10.4253 9.38423 10.476 9.11756 10.476C8.79223 10.476 8.4989 10.3987 8.23756 10.244C7.98156 10.0893 7.7789 9.876 7.62956 9.604C7.48556 9.32667 7.41356 9.01467 7.41356 8.668C7.41356 8.3 7.49356 7.97467 7.65356 7.692C7.8189 7.40933 8.0429 7.188 8.32556 7.028C8.60823 6.86267 8.93356 6.78 9.30156 6.78C10.0162 6.78 10.5656 7.02533 10.9496 7.516C11.3389 8.00133 11.5336 8.68933 11.5336 9.58C11.5336 10.2147 11.4349 10.756 11.2376 11.204C11.0456 11.652 10.7656 11.9933 10.3976 12.228C10.0296 12.4627 9.58956 12.58 9.07756 12.58ZM9.36556 9.66C9.5629 9.66 9.73623 9.61733 9.88556 9.532C10.0349 9.44667 10.1522 9.32667 10.2376 9.172C10.3229 9.012 10.3656 8.83067 10.3656 8.628C10.3656 8.42 10.3229 8.23867 10.2376 8.084C10.1522 7.92933 10.0349 7.80933 9.88556 7.724C9.73623 7.63333 9.5629 7.588 9.36556 7.588C9.16823 7.588 8.9949 7.63333 8.84556 7.724C8.69623 7.80933 8.5789 7.92933 8.49356 8.084C8.41356 8.23867 8.37356 8.42 8.37356 8.628C8.37356 8.83067 8.41356 9.012 8.49356 9.172C8.5789 9.32667 8.69623 9.44667 8.84556 9.532C8.9949 9.61733 9.16823 9.66 9.36556 9.66ZM13.9384 12.188V10.556H12.3304V9.852H13.9384V8.26H14.6664V9.852H16.2664V10.556H14.6664V12.188H13.9384Z" fill="white"/>
</svg>
