<svg width="19" height="19" viewBox="0 0 19 19" fill="none" xmlns="http://www.w3.org/2000/svg">
<rect x="0.5" y="0.5" width="18" height="18" rx="9" fill="#776C7C"/>
<path d="M3.19269 12.5V11.644H4.48869V7.724H4.98469L3.32069 8.716V7.74L4.78469 6.86H5.52069V11.644H6.73669V12.5H3.19269ZM9.50156 12.58C8.84023 12.58 8.3229 12.4387 7.94956 12.156C7.58156 11.8733 7.39756 11.4813 7.39756 10.98C7.39756 10.5853 7.51756 10.2573 7.75756 9.996C7.99756 9.73467 8.30956 9.58 8.69356 9.532V9.7C8.3469 9.62533 8.0669 9.46267 7.85356 9.212C7.64556 8.96133 7.54156 8.65733 7.54156 8.3C7.54156 7.82533 7.7149 7.45467 8.06156 7.188C8.41356 6.916 8.89356 6.78 9.50156 6.78C10.1149 6.78 10.5949 6.916 10.9416 7.188C11.2936 7.45467 11.4696 7.82533 11.4696 8.3C11.4696 8.65733 11.3682 8.964 11.1656 9.22C10.9682 9.476 10.6989 9.63333 10.3576 9.692V9.532C10.7362 9.58533 11.0402 9.74267 11.2696 10.004C11.4989 10.26 11.6136 10.5853 11.6136 10.98C11.6136 11.4813 11.4269 11.8733 11.0536 12.156C10.6856 12.4387 10.1682 12.58 9.50156 12.58ZM9.50156 11.78C9.8909 11.78 10.1816 11.708 10.3736 11.564C10.5656 11.4147 10.6616 11.196 10.6616 10.908C10.6616 10.62 10.5656 10.404 10.3736 10.26C10.1816 10.116 9.8909 10.044 9.50156 10.044C9.11756 10.044 8.8269 10.116 8.62956 10.26C8.43756 10.404 8.34156 10.62 8.34156 10.908C8.34156 11.196 8.43756 11.4147 8.62956 11.564C8.8269 11.708 9.11756 11.78 9.50156 11.78ZM9.50156 9.244C9.83223 9.244 10.0829 9.16933 10.2536 9.02C10.4296 8.87067 10.5176 8.66533 10.5176 8.404C10.5176 8.148 10.4296 7.948 10.2536 7.804C10.0829 7.65467 9.83223 7.58 9.50156 7.58C9.17623 7.58 8.92556 7.65467 8.74956 7.804C8.5789 7.948 8.49356 8.148 8.49356 8.404C8.49356 8.66533 8.5789 8.87067 8.74956 9.02C8.92556 9.16933 9.17623 9.244 9.50156 9.244ZM13.9384 12.188V10.556H12.3304V9.852H13.9384V8.26H14.6664V9.852H16.2664V10.556H14.6664V12.188H13.9384Z" fill="white"/>
</svg>
