<svg width="21" height="21" viewBox="0 0 21 21" fill="none" xmlns="http://www.w3.org/2000/svg">
<path d="M10.5 2.375C8.89303 2.375 7.32214 2.85152 5.986 3.74431C4.64985 4.6371 3.60844 5.90605 2.99348 7.3907C2.37852 8.87535 2.21762 10.509 2.53112 12.0851C2.84463 13.6612 3.61846 15.1089 4.75476 16.2452C5.89106 17.3815 7.3388 18.1554 8.9149 18.4689C10.491 18.7824 12.1247 18.6215 13.6093 18.0065C15.094 17.3916 16.3629 16.3502 17.2557 15.014C18.1485 13.6779 18.625 12.107 18.625 10.5C18.6227 8.34581 17.766 6.28051 16.2427 4.75727C14.7195 3.23403 12.6542 2.37727 10.5 2.375ZM13.625 11.125H8.8836L10.3172 12.5578C10.3753 12.6159 10.4213 12.6848 10.4527 12.7607C10.4842 12.8366 10.5004 12.9179 10.5004 13C10.5004 13.0821 10.4842 13.1634 10.4527 13.2393C10.4213 13.3152 10.3753 13.3841 10.3172 13.4422C10.2591 13.5003 10.1902 13.5463 10.1143 13.5777C10.0384 13.6092 9.95713 13.6253 9.875 13.6253C9.79288 13.6253 9.71156 13.6092 9.63569 13.5777C9.55982 13.5463 9.49088 13.5003 9.43282 13.4422L6.93282 10.9422C6.87471 10.8841 6.82861 10.8152 6.79715 10.7393C6.7657 10.6635 6.74951 10.5821 6.74951 10.5C6.74951 10.4179 6.7657 10.3365 6.79715 10.2607C6.82861 10.1848 6.87471 10.1159 6.93282 10.0578L9.43282 7.55781C9.55009 7.44054 9.70915 7.37465 9.875 7.37465C10.0409 7.37465 10.1999 7.44054 10.3172 7.55781C10.4345 7.67509 10.5004 7.83415 10.5004 8C10.5004 8.16585 10.4345 8.32491 10.3172 8.44219L8.8836 9.875H13.625C13.7908 9.875 13.9497 9.94085 14.0669 10.0581C14.1842 10.1753 14.25 10.3342 14.25 10.5C14.25 10.6658 14.1842 10.8247 14.0669 10.9419C13.9497 11.0592 13.7908 11.125 13.625 11.125Z" fill="#7E9488"/>
</svg>
