<svg width="24" height="24" viewBox="0 0 24 24" fill="none" xmlns="http://www.w3.org/2000/svg">
<path d="M20.0303 9.53071L12.5303 17.0307C12.4607 17.1004 12.3779 17.1558 12.2869 17.1935C12.1958 17.2312 12.0982 17.2507 11.9997 17.2507C11.9011 17.2507 11.8035 17.2312 11.7125 17.1935C11.6214 17.1558 11.5387 17.1004 11.4691 17.0307L3.96906 9.53071C3.82833 9.38998 3.74927 9.1991 3.74927 9.00008C3.74927 8.80106 3.82833 8.61019 3.96906 8.46946C4.10979 8.32873 4.30066 8.24966 4.49968 8.24966C4.69871 8.24966 4.88958 8.32873 5.03031 8.46946L11.9997 15.4398L18.9691 8.46946C19.0387 8.39977 19.1215 8.3445 19.2125 8.30679C19.3036 8.26907 19.4011 8.24966 19.4997 8.24966C19.5982 8.24966 19.6958 8.26907 19.7869 8.30679C19.8779 8.3445 19.9606 8.39977 20.0303 8.46946C20.1 8.53914 20.1553 8.62186 20.193 8.71291C20.2307 8.80395 20.2501 8.90154 20.2501 9.00008C20.2501 9.09863 20.2307 9.19621 20.193 9.28725C20.1553 9.3783 20.1 9.46102 20.0303 9.53071Z" fill="#DFD3E5"/>
</svg>
