<svg width="22" height="22" viewBox="0 0 22 22" fill="none" xmlns="http://www.w3.org/2000/svg">
<path fill-rule="evenodd" clip-rule="evenodd" d="M16.7176 13.8561C17.4614 13.1847 18.0712 12.5048 18.5061 11.9769C18.8619 11.5449 19.0398 11.3289 19.0398 11C19.0398 10.6711 18.8619 10.4551 18.5061 10.0231C17.2043 8.44263 14.3331 5.5 11.0004 5.5C10.2308 5.5 9.4859 5.65689 8.77922 5.91766L11.1139 8.2523C12.5424 8.31029 13.6901 9.45799 13.7481 10.8865L16.7176 13.8561ZM8.61067 9.6382C8.38138 10.0397 8.25036 10.5045 8.25036 11C8.25036 12.5188 9.48157 13.75 11.0004 13.75C11.4958 13.75 11.9607 13.619 12.3622 13.3897L14.4719 15.4995C13.4167 16.0926 12.2405 16.5 11.0004 16.5C7.6676 16.5 4.79641 13.5574 3.49466 11.9769C3.13884 11.5449 2.96094 11.3289 2.96094 11C2.96094 10.6711 3.13885 10.4551 3.49466 10.0231C4.11197 9.27362 5.08221 8.21782 6.28723 7.31476L8.61067 9.6382Z" fill="#776C7C"/>
<path d="M4.58301 1.83325L19.2497 16.4999" stroke="#776C7C" stroke-width="1.83333"/>
</svg>
