<svg width="24" height="35" viewBox="0 0 24 25" fill="none" xmlns="http://www.w3.org/2000/svg">
<g clip-path="url(#clip0_2022_784)">
<path d="M16.8208 6.48223L12 0.5L7.17919 6.48223L0 9.21852L3.36497 14.3733C4.41614 13.6037 5.71125 13.1486 7.11084 13.1486C10.6152 13.1486 13.4662 15.9996 13.4662 19.504C13.4662 20.2449 13.3383 20.9563 13.1043 21.618L19.4164 23.3254L19.8002 15.6521L24 9.21852L16.8208 6.48223Z" fill="#FFFCF5"/>
<path d="M12.1067 19.504C12.1067 16.7492 9.86553 14.5081 7.11073 14.5081C4.35593 14.5081 2.11475 16.7492 2.11475 19.504C2.11475 22.2588 4.35593 24.5 7.11073 24.5C9.86553 24.5 12.1067 22.2588 12.1067 19.504ZM6.50234 21.422L4.74031 19.66L5.72806 18.6722L6.50234 19.4465L8.4934 17.4555L9.48115 18.4432L6.50234 21.422Z" fill="#FFFCF5"/>
</g>
<defs>
<clipPath id="clip0_2022_784">
<rect width="24" height="24" fill="white" transform="translate(0 0.5)"/>
</clipPath>
</defs>
</svg>
