<svg width="21" height="20" viewBox="0 0 21 20" fill="none" xmlns="http://www.w3.org/2000/svg">
<rect x="0.5" width="20" height="20" rx="10" fill="#FFC048"/>
<path d="M13.2039 9.808C13.3461 9.808 13.4634 9.85778 13.5559 9.95734C13.6554 10.0569 13.7052 10.1778 13.7052 10.32V12.72C13.7052 12.912 13.6199 13.0613 13.4492 13.168C13.1221 13.3813 12.763 13.5484 12.3719 13.6693C11.9808 13.7831 11.579 13.84 11.1666 13.84C10.4554 13.84 9.80122 13.6693 9.20389 13.328C8.61367 12.9867 8.14789 12.5244 7.80656 11.9413C7.46522 11.3511 7.29456 10.704 7.29456 10C7.29456 9.296 7.46522 8.65245 7.80656 8.06934C8.14789 7.47912 8.61367 7.01334 9.20389 6.672C9.80122 6.33067 10.4554 6.16 11.1666 6.16C11.5221 6.16 11.8634 6.19911 12.1906 6.27734C12.5248 6.35556 12.8234 6.47289 13.0866 6.62934C13.1719 6.67911 13.2359 6.73956 13.2786 6.81067C13.3212 6.88178 13.3426 6.96 13.3426 7.04534C13.3426 7.18756 13.2928 7.312 13.1932 7.41867C13.1008 7.51823 12.987 7.568 12.8519 7.568C12.7452 7.568 12.6528 7.54312 12.5746 7.49334C12.1123 7.28 11.643 7.17334 11.1666 7.17334C10.6546 7.17334 10.1852 7.29778 9.75856 7.54667C9.339 7.79556 9.00478 8.13689 8.75589 8.57067C8.51411 9.00445 8.39322 9.48089 8.39322 10C8.39322 10.5191 8.51411 10.9956 8.75589 11.4293C9.00478 11.856 9.339 12.1973 9.75856 12.4533C10.1852 12.7022 10.6546 12.8267 11.1666 12.8267C11.4083 12.8267 11.6608 12.7982 11.9239 12.7413C12.1941 12.6844 12.4252 12.6098 12.6172 12.5173V10.8213H11.3266C11.1843 10.8213 11.0634 10.7751 10.9639 10.6827C10.8643 10.5831 10.8146 10.4622 10.8146 10.32C10.8146 10.1707 10.8643 10.0498 10.9639 9.95734C11.0634 9.85778 11.1843 9.808 11.3266 9.808H13.2039Z" fill="white"/>
<rect x="3.33329" y="2.83332" width="14.3333" height="14.3333" rx="7.16667" stroke="white" stroke-width="0.333333"/>
<rect x="2.16671" y="1.66668" width="16.6667" height="16.6667" rx="8.33333" stroke="white" stroke-width="0.666667"/>
</svg>
