<svg width="30" height="30" viewBox="0 0 30 30" fill="none" xmlns="http://www.w3.org/2000/svg">
<g clip-path="url(#clip0_8_629)">
<path d="M15.2802 29.3096C23.3705 29.3096 29.9289 22.7484 29.9289 14.6548C29.9289 6.56118 23.3705 0 15.2802 0C7.19002 0 0.631592 6.56118 0.631592 14.6548C0.631592 22.7484 7.19002 29.3096 15.2802 29.3096Z" fill="url(#paint0_linear_8_629)"/>
<path d="M8.70329 25.4939C10.5479 26.6346 12.7064 27.3152 15.0192 27.375C14.9101 27.3782 14.8009 27.3793 14.6917 27.3793C14.5825 27.3793 14.4733 27.3782 14.3641 27.375C14.256 27.3719 14.1479 27.3687 14.0397 27.3624C13.9378 27.3571 13.835 27.3508 13.7331 27.3435C13.6071 27.334 13.4811 27.3224 13.3551 27.3099C13.267 27.3004 13.1787 27.2899 13.0916 27.2794C13.0811 27.2773 13.0706 27.2762 13.0601 27.2751C12.9708 27.2636 12.8826 27.251 12.7945 27.2384C12.7798 27.2363 12.764 27.2332 12.7493 27.231C12.6485 27.2153 12.5478 27.1985 12.447 27.1806C12.3609 27.1659 12.2748 27.1491 12.1897 27.1323C12.1457 27.1238 12.1026 27.1144 12.0596 27.105C12.0553 27.105 12.0512 27.1039 12.0469 27.1018C11.9776 27.0882 11.9084 27.0725 11.8391 27.0567C11.7309 27.0326 11.6249 27.0063 11.5178 26.979C11.4213 26.9539 11.3246 26.9275 11.228 26.9003C11.2227 26.8993 11.2186 26.8971 11.2133 26.896C11.1157 26.8677 11.018 26.8393 10.9214 26.8089C10.8353 26.7826 10.7493 26.7543 10.6631 26.726C10.6338 26.7155 10.6043 26.706 10.575 26.6955C10.4942 26.6681 10.4134 26.6387 10.3325 26.6094C10.2611 26.5842 10.1908 26.5569 10.1204 26.5296C10.1183 26.5296 10.1162 26.5285 10.1142 26.5265C10.0648 26.5086 10.0145 26.4887 9.96506 26.4687C9.79185 26.3984 9.61967 26.3248 9.4496 26.2481C9.36453 26.2092 9.27954 26.1694 9.19557 26.1283C9.11686 26.0905 9.03807 26.0516 8.95936 26.0118C8.94264 26.0034 8.92583 25.994 8.90791 25.9856C8.83023 25.9456 8.75254 25.9047 8.67587 25.8637C8.60234 25.8237 8.52881 25.7828 8.45537 25.7408C8.42701 25.725 8.39866 25.7082 8.37132 25.6924C8.30305 25.6535 8.23589 25.6147 8.16975 25.5738C8.13927 25.5559 8.1099 25.5381 8.0795 25.5192C8.02278 25.4845 7.96717 25.4498 7.91046 25.4131C7.83379 25.3658 7.7572 25.3154 7.68155 25.2649C7.64165 25.2387 7.60285 25.2124 7.56396 25.1851C7.50207 25.1441 7.44008 25.1011 7.37921 25.057C7.3635 25.0465 7.34873 25.0359 7.33404 25.0255C7.2752 24.9835 7.21645 24.9405 7.15769 24.8963C7.08841 24.8458 7.02117 24.7944 6.95299 24.742C6.91521 24.7125 6.87734 24.6831 6.83956 24.6537C6.79337 24.617 6.74608 24.5791 6.69989 24.5413C6.6537 24.5035 6.60751 24.4656 6.56132 24.4268C6.49934 24.3754 6.43745 24.3229 6.37547 24.2682C6.32928 24.2283 6.28309 24.1874 6.23792 24.1464C6.18333 24.0981 6.12874 24.0488 6.07525 23.9983C6.04375 23.9699 6.01327 23.9405 5.98279 23.9112C5.882 23.8166 5.78334 23.72 5.6857 23.6213C5.64903 23.5846 5.61328 23.5478 5.57762 23.511C5.52201 23.4532 5.46742 23.3955 5.41384 23.3377C5.40442 23.3272 5.39499 23.3178 5.38548 23.3072C5.3477 23.2663 5.30992 23.2253 5.27315 23.1843C5.23121 23.1381 5.1902 23.0919 5.14928 23.0446C5.1115 23.0015 5.07371 22.9574 5.03695 22.9144C4.99806 22.8681 4.95926 22.823 4.92148 22.7768C4.8837 22.7306 4.84583 22.6843 4.80805 22.6371C4.73138 22.5435 4.65794 22.4501 4.58755 22.3545C4.54247 22.2968 4.49942 22.239 4.4585 22.1812C4.41545 22.1234 4.37342 22.0657 4.3325 22.0069C4.29055 21.948 4.24955 21.8892 4.20964 21.8294C4.18757 21.7978 4.16558 21.7652 4.14452 21.7327C4.10674 21.677 4.06887 21.6203 4.03219 21.5636C3.92827 21.4019 3.82859 21.238 3.73197 21.072C3.70047 21.0195 3.67007 20.9659 3.6407 20.9123C3.585 20.8147 3.53151 20.716 3.47904 20.6162C3.46435 20.5889 3.45068 20.5615 3.43599 20.5343C3.41077 20.4859 3.38556 20.4376 3.36145 20.3883C3.33198 20.3294 3.30261 20.2706 3.27331 20.2107C3.25124 20.1645 3.22916 20.1172 3.20717 20.07C3.19665 20.0489 3.18722 20.0291 3.1778 20.008C3.15368 19.9565 3.13051 19.905 3.1075 19.8525C3.06963 19.7675 3.03295 19.6824 2.99721 19.5974C2.97309 19.5396 2.94889 19.4808 2.92478 19.422C2.90907 19.381 2.89226 19.34 2.87647 19.2991C2.85236 19.2372 2.82816 19.1741 2.80515 19.1121C2.78206 19.0512 2.75998 18.9892 2.73791 18.9273C2.7368 18.9242 2.73578 18.921 2.73477 18.9168C2.71269 18.8559 2.69172 18.7949 2.67177 18.734C2.6665 18.7203 2.66234 18.7056 2.6581 18.692C2.63297 18.6174 2.60877 18.5429 2.58567 18.4673C2.55417 18.3675 2.5248 18.2677 2.49644 18.1679C2.49542 18.1637 2.49432 18.1606 2.4933 18.1575C2.4702 18.0755 2.44813 17.9947 2.42716 17.9117C2.41765 17.8791 2.40924 17.8466 2.40194 17.813C2.36 17.6502 2.32222 17.4864 2.28749 17.3204C2.27908 17.2805 2.27068 17.2395 2.26338 17.1996C2.22347 17.0032 2.18773 16.8046 2.15835 16.6041C2.14366 16.5085 2.13101 16.414 2.11844 16.3184C2.11734 16.3121 2.11632 16.3057 2.11632 16.2994C2.10376 16.2049 2.09323 16.1103 2.0838 16.0159C2.08168 16.0043 2.08066 15.9928 2.07964 15.9823C2.07226 15.9025 2.06495 15.8238 2.05859 15.7449C2.05859 15.7418 2.05757 15.7386 2.05757 15.7365C2.05443 15.6956 2.05128 15.6546 2.04916 15.6147C2.04288 15.5317 2.03762 15.4487 2.03345 15.3658C2.02819 15.2712 2.02395 15.1767 2.02191 15.0821C2.01979 15.0412 2.01877 14.9992 2.01877 14.9582C2.01664 14.8711 2.01562 14.7838 2.01562 14.6967C2.01562 7.69329 7.69013 2.01538 14.6917 2.01538C14.8009 2.01538 14.9101 2.0164 15.0192 2.01954C8.17417 2.19809 2.67924 7.80566 2.67924 14.6967C2.67924 16.7826 3.18315 18.7509 4.07549 20.4859C4.34005 21.0027 4.63926 21.4984 4.97208 21.971C5.71856 23.036 6.62458 23.9813 7.65659 24.7712C7.99247 25.0296 8.34211 25.2711 8.70329 25.4938V25.4939Z" fill="url(#paint1_linear_8_629)"/>
<path d="M27.2533 7.07373C26.9394 6.55695 26.595 6.06124 26.2203 5.58863C25.5158 4.69693 24.7095 3.88813 23.8193 3.18126C23.434 2.87454 23.034 2.58787 22.6182 2.32107C20.4187 0.908435 17.8172 0.0661683 15.0235 0.00424701H15.0035C14.8996 0.00110422 14.7967 0 14.6918 0C6.57738 0 0 6.58014 0 14.6968C0 17.5074 0.788423 20.1343 2.1564 22.3662C2.45985 22.8609 2.79055 23.3366 3.14851 23.7904C3.96113 24.8207 4.90807 25.7408 5.96428 26.5201C6.29184 26.7648 6.63087 26.9938 6.97847 27.207C8.79364 28.3308 10.8724 29.0691 13.1002 29.3097C13.623 29.3654 14.1543 29.3948 14.6918 29.3948C14.7968 29.3948 14.8996 29.3938 15.0035 29.3905H15.0235C15.1841 29.3874 15.3437 29.3811 15.5022 29.3717C22.5373 28.9894 28.2548 23.6549 29.2344 16.7922C29.332 16.1074 29.3825 15.4079 29.3825 14.6968V14.6549C29.3751 11.88 28.5982 9.28574 27.2533 7.07381V7.07373ZM27.226 16.5958C27.0863 17.5305 26.8438 18.4317 26.511 19.2867C25.0916 22.9449 22.025 25.7796 18.2224 26.8803H18.2213C17.8108 27.0001 17.3919 27.0988 16.9647 27.1744C16.9112 27.1839 16.8576 27.1933 16.804 27.2027C16.7505 27.2133 16.697 27.2217 16.6424 27.229C16.3169 27.2794 15.9884 27.3172 15.6565 27.3425C15.5253 27.353 15.3931 27.3603 15.2597 27.3656C15.182 27.3698 15.1053 27.3729 15.0277 27.375H15.0193C14.9101 27.3781 14.8009 27.3793 14.6917 27.3793C14.5825 27.3793 14.4733 27.3782 14.3641 27.375C14.2561 27.3719 14.1479 27.3687 14.0397 27.3624C13.9378 27.3571 13.835 27.3508 13.7331 27.3435C13.6071 27.334 13.4811 27.3224 13.3551 27.3099C13.267 27.3004 13.1787 27.2899 13.0916 27.2794C13.0811 27.2773 13.0706 27.2762 13.0601 27.2751C12.9709 27.2636 12.8826 27.251 12.7945 27.2384C12.7798 27.2363 12.764 27.2332 12.7493 27.231C12.6486 27.2153 12.5478 27.1985 12.447 27.1807C12.3609 27.166 12.2748 27.1492 12.1897 27.1323C12.1457 27.1239 12.1026 27.1145 12.0596 27.1051C12.0554 27.1051 12.0512 27.104 12.0469 27.1019C11.9776 27.0882 11.9084 27.0725 11.8391 27.0568C11.7309 27.0327 11.6249 27.0065 11.5178 26.9791C11.4213 26.954 11.3246 26.9276 11.228 26.9004C11.2228 26.8993 11.2186 26.8972 11.2133 26.8961C11.1157 26.8677 11.018 26.8394 10.9214 26.809C10.8353 26.7827 10.7493 26.7543 10.6631 26.7261C10.6338 26.7155 10.6043 26.7061 10.575 26.6956C10.4942 26.6682 10.4134 26.6388 10.3325 26.6094C10.2611 26.5843 10.1908 26.5569 10.1204 26.5297C10.1183 26.5297 10.1163 26.5286 10.1142 26.5265C10.0648 26.5087 10.0145 26.4887 9.96507 26.4688C9.79186 26.3984 9.61967 26.3249 9.44961 26.2482C9.36454 26.2093 9.27955 26.1695 9.19558 26.1284C9.11687 26.0906 9.03808 26.0517 8.95937 26.0119C8.94265 26.0035 8.92583 25.994 8.90792 25.9856C8.83023 25.9457 8.75254 25.9048 8.67588 25.8638C8.60235 25.8238 8.52882 25.7829 8.45538 25.7408C8.42702 25.7251 8.39866 25.7083 8.37132 25.6925C8.30306 25.6547 8.2359 25.6148 8.16976 25.5739C8.13928 25.556 8.1099 25.5382 8.07951 25.5192C8.02279 25.4857 7.96607 25.4499 7.91046 25.4131C7.83379 25.3658 7.75721 25.3155 7.68156 25.265C7.64165 25.2388 7.60285 25.2125 7.56397 25.1852C7.50207 25.1442 7.44009 25.1012 7.37921 25.0571C7.36351 25.0465 7.34873 25.036 7.33405 25.0256C7.27419 24.9825 7.21543 24.9405 7.1577 24.8964C7.08842 24.846 7.02117 24.7945 6.95299 24.742C6.91521 24.7126 6.87734 24.6832 6.83956 24.6538C6.79337 24.6171 6.74608 24.5792 6.69989 24.5414C6.65371 24.5036 6.60752 24.4657 6.56133 24.4269C6.49935 24.3754 6.43746 24.3229 6.37547 24.2683C6.32929 24.2284 6.2831 24.1875 6.23793 24.1465C6.18334 24.0982 6.12874 24.0488 6.07525 23.9984C6.04375 23.97 6.01327 23.9406 5.98279 23.9112C5.88201 23.8167 5.78335 23.7201 5.68571 23.6214C5.64903 23.5846 5.61329 23.5479 5.57763 23.5111C5.52202 23.4533 5.46742 23.3956 5.41385 23.3378C5.40442 23.3273 5.395 23.3178 5.38549 23.3073C5.34771 23.2664 5.30992 23.2254 5.27316 23.1844C5.23122 23.1382 5.19021 23.092 5.14928 23.0447C5.1115 23.0016 5.07372 22.9575 5.03696 22.9145C4.99807 22.8682 4.95927 22.8231 4.92149 22.7769C4.8837 22.7307 4.84584 22.6844 4.80805 22.6371C4.73138 22.5436 4.65794 22.4502 4.58756 22.3546C4.54247 22.2969 4.49943 22.2391 4.4585 22.1813C4.41435 22.1235 4.37241 22.0657 4.3325 22.007C4.29056 21.9481 4.24955 21.8893 4.20965 21.8294C4.18655 21.7979 4.16558 21.7653 4.14453 21.7328C4.10674 21.6771 4.06888 21.6204 4.0322 21.5637C3.92827 21.4019 3.8286 21.2381 3.73197 21.0721C3.70047 21.0196 3.67008 20.966 3.6407 20.9124C3.58501 20.8147 3.53152 20.716 3.47904 20.6162C3.46436 20.589 3.45069 20.5616 3.436 20.5344C3.41078 20.486 3.38556 20.4377 3.36145 20.3883C3.33199 20.3295 3.30261 20.2707 3.27332 20.2108C3.25125 20.1646 3.22917 20.1173 3.20718 20.0701C3.19665 20.049 3.18723 20.0291 3.1778 20.0081C3.15369 19.9566 3.13051 19.9051 3.1075 19.8526C3.06964 19.7676 3.03296 19.6825 2.99721 19.5975C2.9731 19.5397 2.9489 19.4808 2.92479 19.4221C2.90908 19.3811 2.89227 19.3401 2.87648 19.2992C2.85236 19.2372 2.82817 19.1742 2.80516 19.1122C2.78206 19.0513 2.75999 18.9893 2.73791 18.9274C2.73681 18.9242 2.73579 18.9211 2.73477 18.9168C2.7127 18.8559 2.69173 18.795 2.67177 18.734C2.66651 18.7204 2.66235 18.7057 2.6581 18.6921C2.63297 18.6175 2.60877 18.5429 2.58568 18.4673C2.55418 18.3676 2.5248 18.2678 2.49645 18.168C2.49543 18.1638 2.49432 18.1607 2.4933 18.1576C2.47021 18.0756 2.44813 17.9947 2.42716 17.9117C2.41765 17.8792 2.40925 17.8467 2.40195 17.813C2.36 17.6503 2.32222 17.4864 2.2875 17.3205C2.27909 17.2806 2.27068 17.2396 2.26338 17.1997C2.22348 17.0033 2.18773 16.8047 2.15836 16.6042C2.14367 16.5086 2.13102 16.4141 2.11845 16.3184C2.11735 16.3122 2.11633 16.3058 2.11633 16.2995C2.10376 16.205 2.09323 16.1105 2.08381 16.016C2.08169 16.0044 2.08067 15.9929 2.07956 15.9824C2.07218 15.9026 2.06488 15.8238 2.05851 15.745C2.05851 15.7419 2.05749 15.7387 2.05749 15.7366C2.05435 15.6957 2.05121 15.6547 2.04908 15.6148C2.0428 15.5318 2.03754 15.4488 2.03338 15.3658C2.02811 15.2713 2.02387 15.1768 2.02183 15.0822C2.01971 15.0413 2.01869 14.9992 2.01869 14.9583C2.01657 14.8711 2.01555 14.7839 2.01555 14.6968C2.01555 7.69336 7.69005 2.01537 14.6916 2.01537C14.8008 2.01537 14.91 2.01648 15.0192 2.01962H15.0276C15.2386 2.02599 15.4485 2.03644 15.6564 2.05224C15.7803 2.06167 15.9041 2.07322 16.028 2.08579C16.1509 2.09836 16.2736 2.11305 16.3955 2.12987C16.49 2.14244 16.5845 2.15722 16.6779 2.17183C16.7314 2.18024 16.7849 2.18865 16.8385 2.19808C16.8773 2.20437 16.9162 2.21176 16.956 2.21804C17.0096 2.22857 17.0642 2.238 17.1177 2.24853C17.1418 2.2538 17.166 2.25907 17.1901 2.26323C17.2877 2.28107 17.3844 2.30213 17.4799 2.32515C17.5544 2.34197 17.6279 2.35981 17.7014 2.37764C17.7707 2.39446 17.84 2.4123 17.9092 2.43014C17.9869 2.4501 18.0636 2.47108 18.1403 2.49316C18.2127 2.51312 18.2851 2.5341 18.3575 2.55619C19.3392 2.84923 20.2693 3.26195 21.1344 3.77448C21.567 4.02871 21.9837 4.31012 22.3806 4.61471C23.294 5.31317 24.1107 6.13352 24.8047 7.05139C25.1628 7.52297 25.4871 8.02081 25.7759 8.54073C26.7901 10.363 27.3675 12.4625 27.3675 14.6965C27.3675 15.3414 27.3192 15.9758 27.2258 16.5954L27.226 16.5958Z" fill="#FFE753"/>
<path d="M28.0228 14.6968C28.0228 15.1138 28.0028 15.5255 27.9629 15.932C27.881 16.7848 27.7141 17.6124 27.4705 18.4075C26.1361 22.782 22.5004 26.1514 17.9756 27.1061C17.1273 27.2846 16.2486 27.3792 15.3468 27.3792C15.3132 27.3792 15.2796 27.3792 15.246 27.3781H15.2449C15.1725 27.3781 15.1001 27.377 15.0276 27.375C15.1053 27.3729 15.1819 27.3697 15.2597 27.3656C15.393 27.3603 15.5253 27.3529 15.6565 27.3425C15.9883 27.3173 16.3169 27.2794 16.6424 27.229C16.6959 27.2207 16.7494 27.2111 16.804 27.2027C16.8575 27.1933 16.9111 27.1839 16.9647 27.1744C17.393 27.0966 17.814 26.9958 18.2266 26.8761C22.0197 25.7743 25.0791 22.9459 26.4984 19.2981C26.8323 18.4411 27.0758 17.5399 27.2165 16.6041C27.311 15.9823 27.3593 15.3448 27.3593 14.6968C27.3593 12.4649 26.7829 10.3685 25.7709 8.54616C25.4823 8.02633 25.1578 7.52739 24.8008 7.0558C24.1069 6.13785 23.2911 5.31759 22.3767 4.61802C21.9799 4.31342 21.5641 4.03193 21.1315 3.77677C20.2674 3.26526 19.3373 2.85356 18.3578 2.55635C18.2853 2.53427 18.2129 2.51329 18.1405 2.49333C18.0638 2.47124 17.9872 2.45026 17.9095 2.4303C17.8412 2.41145 17.7719 2.39463 17.7016 2.37781C17.6281 2.35895 17.5547 2.34213 17.4801 2.32532C17.3846 2.30221 17.288 2.28123 17.1903 2.2634C17.1662 2.25915 17.142 2.25397 17.1179 2.2487C17.0644 2.23817 17.0098 2.22874 16.9563 2.21821C16.9163 2.21192 16.8775 2.20453 16.8387 2.19825C16.7852 2.18882 16.7317 2.18041 16.6781 2.172C16.5847 2.15731 16.4902 2.14261 16.3957 2.13004C16.2739 2.11322 16.1511 2.09853 16.0282 2.08596C15.9044 2.0733 15.7805 2.06175 15.6566 2.05232C15.4488 2.03652 15.2388 2.02607 15.0278 2.01979C15.1339 2.01664 15.2409 2.01562 15.347 2.01562C17.5296 2.01562 19.5831 2.56697 21.3763 3.53852C21.8203 3.78009 22.2488 4.04688 22.6593 4.3378C23.5978 5.00161 24.4419 5.78926 25.1674 6.67782C25.5422 7.13573 25.8845 7.61997 26.1921 8.12825C27.3542 10.044 28.023 12.2927 28.023 14.6968H28.0228Z" fill="url(#paint2_linear_8_629)"/>
<path d="M10.2329 20.0211C9.43203 20.0211 8.68905 19.8908 8.00396 19.6303C7.32852 19.3601 6.7351 18.9838 6.2237 18.5013C5.72194 18.0189 5.33115 17.4544 5.05133 16.8079C4.7715 16.1614 4.63159 15.457 4.63159 14.6947C4.63159 13.9228 4.77633 13.2136 5.0658 12.5671C5.36493 11.9206 5.77501 11.361 6.29607 10.8882C6.82677 10.4057 7.43949 10.0342 8.13422 9.77369C8.82896 9.50351 9.57194 9.36842 10.3632 9.36842C11.3184 9.36842 12.1724 9.53246 12.925 9.86053C13.6873 10.1886 14.3048 10.6325 14.7776 11.1921L12.8237 13.1461C12.4667 12.7311 12.0952 12.4224 11.7092 12.2197C11.3233 12.0171 10.8601 11.9158 10.3197 11.9158C9.80835 11.9158 9.34519 12.0316 8.93028 12.2632C8.51536 12.4851 8.18247 12.8035 7.93159 13.2184C7.69036 13.6333 7.56975 14.1206 7.56975 14.6803C7.56975 15.2399 7.68071 15.732 7.90264 16.1566C8.13422 16.5715 8.45264 16.8947 8.85791 17.1263C9.26317 17.3579 9.73598 17.4737 10.2763 17.4737C10.7974 17.4737 11.2364 17.3724 11.5934 17.1697C11.9505 16.9671 12.2206 16.6776 12.404 16.3013C12.5969 15.925 12.6934 15.4811 12.6934 14.9697L14.6763 16.2289L9.88554 16.0842V13.7684H15.6026V14.2026C15.6026 15.4377 15.3759 16.4895 14.9224 17.3579C14.4785 18.2263 13.8513 18.8873 13.0408 19.3408C12.2399 19.7943 11.304 20.0211 10.2329 20.0211Z" fill="#FFFCB6"/>
<path d="M21.9507 20.0211C21.1595 20.0211 20.4213 19.8908 19.7362 19.6303C19.0608 19.3601 18.4674 18.9838 17.956 18.5013C17.4446 18.0189 17.0441 17.4544 16.7547 16.8079C16.4748 16.1518 16.3349 15.4425 16.3349 14.6803C16.3349 13.9083 16.4748 13.1991 16.7547 12.5526C17.0441 11.9061 17.4397 11.3465 17.9415 10.8737C18.4529 10.4009 19.0463 10.0342 19.7218 9.77369C20.3972 9.50351 21.1305 9.36842 21.9218 9.36842C22.7226 9.36842 23.456 9.49386 24.1218 9.74474C24.7876 9.99562 25.3665 10.343 25.8586 10.7868L23.9336 12.7263C23.702 12.4754 23.4174 12.2776 23.0797 12.1329C22.7516 11.9882 22.3656 11.9158 21.9218 11.9158C21.5358 11.9158 21.1788 11.9785 20.8507 12.1039C20.5323 12.2294 20.2573 12.4127 20.0257 12.6539C19.7941 12.8952 19.6108 13.1895 19.4757 13.5368C19.3503 13.8746 19.2876 14.2557 19.2876 14.6803C19.2876 15.1145 19.3503 15.5053 19.4757 15.8526C19.6108 16.1904 19.7941 16.4798 20.0257 16.7211C20.2573 16.9623 20.5323 17.1504 20.8507 17.2855C21.1788 17.411 21.5358 17.4737 21.9218 17.4737C22.356 17.4737 22.7419 17.4061 23.0797 17.2711C23.427 17.136 23.7262 16.9382 23.977 16.6776L25.9165 18.6171C25.4051 19.061 24.831 19.4083 24.1941 19.6592C23.5573 19.9004 22.8095 20.0211 21.9507 20.0211Z" fill="#FFFCB6"/>
</g>
<defs>
<linearGradient id="paint0_linear_8_629" x1="-1.32656" y1="4.64393" x2="28.18" y2="22.416" gradientUnits="userSpaceOnUse">
<stop offset="1" stop-color="#B55512"/>
</linearGradient>
<linearGradient id="paint1_linear_8_629" x1="5.30312" y1="0.831316" x2="15.118" y2="27.2826" gradientUnits="userSpaceOnUse">
<stop offset="0.11" stop-color="#FF9440"/>
<stop offset="0.43" stop-color="#FD913C"/>
<stop offset="0.68" stop-color="#FA8A32"/>
<stop offset="0.91" stop-color="#F47E22"/>
<stop offset="1" stop-color="#F17819"/>
</linearGradient>
<linearGradient id="paint2_linear_8_629" x1="10.3729" y1="-2.32736" x2="25.501" y2="27.2656" gradientUnits="userSpaceOnUse">
<stop stop-color="white"/>
<stop offset="0.1" stop-color="#FFFEFC"/>
<stop offset="0.18" stop-color="#FFFEF2"/>
<stop offset="0.24" stop-color="#FFFDE2"/>
<stop offset="0.3" stop-color="#FFFCCC"/>
<stop offset="0.35" stop-color="#FFFCB6"/>
</linearGradient>
<clipPath id="clip0_8_629">
<rect width="30" height="30" fill="white"/>
</clipPath>
</defs>
</svg>
