<svg width="22" height="22" viewBox="0 0 22 22" fill="none" xmlns="http://www.w3.org/2000/svg">
<g clip-path="url(#clip0_404_1774)">
<path d="M17.5234 0.0118713H4.47661C1.97549 0.184348 0 2.26756 0 4.81251V7.33731H22V4.81251C22 2.26756 20.0245 0.184348 17.5234 0.0118713Z" fill="#FAB446"/>
<path d="M0 17.1875C0 19.7325 1.97553 21.8157 4.47666 21.9882H17.5233C20.0245 21.8157 22 19.7325 22 17.1875V14.6627H0V17.1875Z" fill="#73AF00"/>
<path d="M22 7.33734H0V14.6627H22V7.33734Z" fill="#F5F5F5"/>
<path d="M11 13.5114C9.61512 13.5114 8.48853 12.3848 8.48853 11C8.48853 9.61515 9.61512 8.48856 11 8.48856C12.3848 8.48856 13.5114 9.61515 13.5114 11C13.5114 12.3848 12.3848 13.5114 11 13.5114ZM11 8.9558C9.87268 8.9558 8.95577 9.87271 8.95577 11C8.95577 12.1273 9.87268 13.0442 11 13.0442C12.1272 13.0442 13.0442 12.1273 13.0442 11C13.0442 9.87271 12.1272 8.9558 11 8.9558Z" fill="#41479B"/>
<path d="M11 11.2847C11.1573 11.2847 11.2848 11.1572 11.2848 11C11.2848 10.8427 11.1573 10.7153 11 10.7153C10.8428 10.7153 10.7153 10.8427 10.7153 11C10.7153 11.1572 10.8428 11.2847 11 11.2847Z" fill="#41479B"/>
<path d="M11 11.0427L10.2764 11.1157L8.72217 11.0427V10.9573L10.2764 10.8842L11 10.9573V11.0427Z" fill="#41479B"/>
<path d="M11 11.0427L11.7236 11.1157L13.2778 11.0427V10.9573L11.7236 10.8842L11 10.9573V11.0427Z" fill="#41479B"/>
<path d="M10.9573 11L10.8843 10.2764L10.9573 8.72217H11.0427L11.1158 10.2764L11.0427 11H10.9573Z" fill="#41479B"/>
<path d="M10.9573 11L10.8843 11.7236L10.9573 13.2778H11.0427L11.1158 11.7236L11.0427 11H10.9573Z" fill="#41479B"/>
<path d="M10.9698 11.0302L10.4065 10.5702L9.35913 9.4195L9.4195 9.35913L10.5702 10.4065L11.0302 10.9698L10.9698 11.0302Z" fill="#41479B"/>
<path d="M10.9697 11.0302L11.4297 11.5935L12.5804 12.6409L12.6408 12.5805L11.5934 11.4298L11.0301 10.9698L10.9697 11.0302Z" fill="#41479B"/>
<path d="M10.9697 10.9698L11.4297 10.4065L12.5804 9.35913L12.6408 9.4195L11.5934 10.5702L11.0301 11.0302L10.9697 10.9698Z" fill="#41479B"/>
<path d="M10.9698 10.9698L10.4065 11.4298L9.35913 12.5805L9.4195 12.6409L10.5702 11.5935L11.0302 11.0302L10.9698 10.9698Z" fill="#41479B"/>
<path d="M11.0162 11.0395L10.3758 11.3839L8.91181 11.9112L8.87915 11.8322L10.2872 11.17L10.9836 10.9606L11.0162 11.0395Z" fill="#41479B"/>
<path d="M11.0163 11.0395L11.7127 10.8301L13.1207 10.1678L13.0881 10.0889L11.6241 10.6162L10.9836 10.9606L11.0163 11.0395Z" fill="#41479B"/>
<path d="M10.9606 11.0163L10.6162 10.3758L10.0889 8.9119L10.1678 8.87924L10.8301 10.2872L11.0395 10.9837L10.9606 11.0163Z" fill="#41479B"/>
<path d="M10.9604 11.0163L11.1698 11.7127L11.8321 13.1207L11.911 13.0881L11.3837 11.6241L11.0393 10.9836L10.9604 11.0163Z" fill="#41479B"/>
<path d="M10.9836 11.0395L10.2872 10.8301L8.87915 10.1678L8.91181 10.0889L10.3758 10.6162L11.0162 10.9606L10.9836 11.0395Z" fill="#41479B"/>
<path d="M10.9836 11.0395L11.6241 11.3839L13.0881 11.9112L13.1207 11.8322L11.7127 11.17L11.0163 10.9606L10.9836 11.0395Z" fill="#41479B"/>
<path d="M10.9604 10.9837L11.1698 10.2872L11.8321 8.87924L11.911 8.9119L11.3837 10.3758L11.0393 11.0163L10.9604 10.9837Z" fill="#41479B"/>
<path d="M10.9606 10.9836L10.6162 11.6241L10.0889 13.0881L10.1678 13.1207L10.8301 11.7127L11.0395 11.0163L10.9606 10.9836Z" fill="#41479B"/>
<path d="M11.0001 11.3118C11.1723 11.3118 11.3119 11.1722 11.3119 11C11.3119 10.8278 11.1723 10.6882 11.0001 10.6882C10.8278 10.6882 10.6882 10.8278 10.6882 11C10.6882 11.1722 10.8278 11.3118 11.0001 11.3118Z" fill="#F5F5F5"/>
<path d="M11 11.2303C11.1272 11.2303 11.2303 11.1272 11.2303 11C11.2303 10.8728 11.1272 10.7697 11 10.7697C10.8729 10.7697 10.7698 10.8728 10.7698 11C10.7698 11.1272 10.8729 11.2303 11 11.2303Z" fill="#41479B"/>
</g>
<defs>
<clipPath id="clip0_404_1774">
<rect width="22" height="22" fill="white"/>
</clipPath>
</defs>
</svg>
