<svg width="35" height="35" viewBox="0 0 25 25" fill="none" xmlns="http://www.w3.org/2000/svg">
<path d="M17 2.75H8C6.60807 2.75149 5.27358 3.30509 4.28933 4.28933C3.30509 5.27358 2.75149 6.60807 2.75 8V17C2.75149 18.3919 3.30509 19.7264 4.28933 20.7107C5.27358 21.6949 6.60807 22.2485 8 22.25H17C18.3919 22.2485 19.7264 21.6949 20.7107 20.7107C21.6949 19.7264 22.2485 18.3919 22.25 17V8C22.2485 6.60807 21.6949 5.27358 20.7107 4.28933C19.7264 3.30509 18.3919 2.75149 17 2.75ZM12.5 17C11.61 17 10.74 16.7361 9.99993 16.2416C9.25991 15.7471 8.68314 15.0443 8.34254 14.2221C8.00195 13.3998 7.91283 12.495 8.08647 11.6221C8.2601 10.7492 8.68868 9.94736 9.31802 9.31802C9.94736 8.68868 10.7492 8.2601 11.6221 8.08647C12.495 7.91283 13.3998 8.00195 14.2221 8.34254C15.0443 8.68314 15.7471 9.25991 16.2416 9.99993C16.7361 10.74 17 11.61 17 12.5C16.9988 13.6931 16.5243 14.837 15.6806 15.6806C14.837 16.5243 13.6931 16.9988 12.5 17ZM18.125 8C17.9025 8 17.685 7.93402 17.5 7.8104C17.315 7.68679 17.1708 7.51109 17.0856 7.30552C17.0005 7.09995 16.9782 6.87375 17.0216 6.65552C17.065 6.43729 17.1722 6.23684 17.3295 6.0795C17.4868 5.92217 17.6873 5.81502 17.9055 5.77162C18.1238 5.72821 18.35 5.75049 18.5555 5.83564C18.7611 5.92078 18.9368 6.06498 19.0604 6.24998C19.184 6.43499 19.25 6.6525 19.25 6.875C19.25 7.17337 19.1315 7.45952 18.9205 7.6705C18.7095 7.88147 18.4234 8 18.125 8ZM15.5 12.5C15.5 13.0933 15.3241 13.6734 14.9944 14.1667C14.6648 14.6601 14.1962 15.0446 13.648 15.2716C13.0999 15.4987 12.4967 15.5581 11.9147 15.4424C11.3328 15.3266 10.7982 15.0409 10.3787 14.6213C9.95912 14.2018 9.6734 13.6672 9.55764 13.0853C9.44189 12.5033 9.5013 11.9001 9.72836 11.3519C9.95542 10.8038 10.3399 10.3352 10.8333 10.0056C11.3266 9.67595 11.9067 9.5 12.5 9.5C13.2956 9.5 14.0587 9.81607 14.6213 10.3787C15.1839 10.9413 15.5 11.7044 15.5 12.5Z" fill="#59515E"/>
</svg>
