<svg width="19" height="20" viewBox="0 0 19 20" fill="none" xmlns="http://www.w3.org/2000/svg">
<path d="M18.75 9.75001V18.75C18.75 18.9489 18.671 19.1397 18.5303 19.2803C18.3897 19.421 18.1989 19.5 18 19.5H12.75C12.5511 19.5 12.3603 19.421 12.2197 19.2803C12.079 19.1397 12 18.9489 12 18.75V13.875C12 13.7756 11.9605 13.6802 11.8902 13.6098C11.8198 13.5395 11.7245 13.5 11.625 13.5H7.875C7.77554 13.5 7.68016 13.5395 7.60983 13.6098C7.53951 13.6802 7.5 13.7756 7.5 13.875V18.75C7.5 18.9489 7.42098 19.1397 7.28033 19.2803C7.13968 19.421 6.94891 19.5 6.75 19.5H1.5C1.30109 19.5 1.11032 19.421 0.96967 19.2803C0.829018 19.1397 0.75 18.9489 0.75 18.75V9.75001C0.750184 9.35225 0.90834 8.97086 1.18969 8.6897L8.68969 1.18969C8.97096 0.908602 9.35235 0.750702 9.75 0.750702C10.1477 0.750702 10.529 0.908602 10.8103 1.18969L18.3103 8.6897C18.5917 8.97086 18.7498 9.35225 18.75 9.75001Z" fill="white"/>
</svg>
