<svg width="22" height="22" viewBox="0 0 22 22" fill="none" xmlns="http://www.w3.org/2000/svg">
<path d="M4.33398 22H17.6673C18.2196 22 18.6673 21.5523 18.6673 21V9.66667C18.6673 9.1144 18.2196 8.66667 17.6673 8.66667H16.6673V5.66667C16.6673 2.54207 14.1253 0 11.0007 0C7.87605 0 5.33398 2.54207 5.33398 5.66667V8.66667H4.33398C3.78172 8.66667 3.33398 9.1144 3.33398 9.66667V21C3.33398 21.5523 3.78172 22 4.33398 22ZM12.0007 15.6657V17C12.0007 17.5523 11.5529 18 11.0007 18C10.4484 18 10.0007 17.5523 10.0007 17V15.6657C9.59612 15.3614 9.33398 14.8775 9.33398 14.3333C9.33398 13.4143 10.0817 12.6667 11.0007 12.6667C11.9197 12.6667 12.6673 13.4143 12.6673 14.3333C12.6673 14.8775 12.4052 15.3614 12.0007 15.6657ZM7.33398 5.66667C7.33398 3.64487 8.97885 2 11.0007 2C13.0225 2 14.6673 3.64487 14.6673 5.66667V8.66667H7.33398V5.66667Z" fill="#DFD3E5"/>
</svg>
