<svg width="20" height="20" viewBox="0 0 20 20" fill="none" xmlns="http://www.w3.org/2000/svg">
<rect width="20" height="20" rx="10" fill="#33D9B2"/>
<path d="M10.0693 13.84C9.55023 13.84 9.09156 13.7689 8.69334 13.6267C8.29511 13.4773 7.91467 13.2391 7.552 12.912C7.40267 12.784 7.328 12.6382 7.328 12.4747C7.328 12.3467 7.37778 12.2329 7.47734 12.1333C7.57689 12.0267 7.69423 11.9733 7.82934 11.9733C7.95023 11.9733 8.05334 12.0124 8.13867 12.0907C8.42311 12.3538 8.71467 12.5493 9.01334 12.6773C9.31911 12.7982 9.664 12.8587 10.048 12.8587C10.496 12.8587 10.8729 12.7556 11.1787 12.5493C11.4916 12.3431 11.648 12.0836 11.648 11.7707C11.6409 11.4009 11.4844 11.1164 11.1787 10.9173C10.88 10.7111 10.4213 10.5404 9.80267 10.4053C9.07023 10.256 8.50489 10.0107 8.10667 9.66934C7.71556 9.328 7.52 8.85512 7.52 8.25067C7.52 7.83112 7.63023 7.46489 7.85067 7.152C8.07111 6.832 8.37689 6.58667 8.768 6.416C9.15911 6.24534 9.6 6.16 10.0907 6.16C10.5316 6.16 10.9476 6.23111 11.3387 6.37334C11.7298 6.51556 12.0462 6.704 12.288 6.93867C12.4516 7.08089 12.5333 7.23378 12.5333 7.39734C12.5333 7.52534 12.4836 7.63911 12.384 7.73867C12.2916 7.83823 12.1778 7.888 12.0427 7.888C11.9431 7.888 11.8613 7.85956 11.7973 7.80267C11.6124 7.61778 11.3564 7.46134 11.0293 7.33334C10.7022 7.20534 10.3893 7.14134 10.0907 7.14134C9.61423 7.14134 9.23378 7.24089 8.94934 7.44C8.672 7.632 8.53334 7.888 8.53334 8.208C8.53334 8.55645 8.672 8.82312 8.94934 9.008C9.23378 9.19289 9.65334 9.34934 10.208 9.47734C10.7627 9.59823 11.2142 9.74045 11.5627 9.904C11.9182 10.0676 12.192 10.2951 12.384 10.5867C12.576 10.8782 12.672 11.2587 12.672 11.728C12.672 12.1404 12.5547 12.5067 12.32 12.8267C12.0924 13.1467 11.7796 13.3956 11.3813 13.5733C10.9831 13.7511 10.5458 13.84 10.0693 13.84Z" fill="white"/>
<rect x="2.83329" y="2.83332" width="14.3333" height="14.3333" rx="7.16667" stroke="white" stroke-width="0.333333"/>
<rect x="1.66671" y="1.66668" width="16.6667" height="16.6667" rx="8.33333" stroke="white" stroke-width="0.666667"/>
</svg>
