<svg width="113" height="122" viewBox="0 0 113 122" fill="none" xmlns="http://www.w3.org/2000/svg">
<g clip-path="url(#clip0_259_4976)">
<path d="M91.8495 139.997C126.95 132.944 149.684 98.7594 142.628 63.6441C135.572 28.5287 101.397 5.78 66.2964 12.8333C31.1959 19.8866 8.46146 54.0711 15.5177 89.1864C22.574 124.302 56.7489 147.05 91.8495 139.997Z" fill="#169440"/>
<path d="M59.9877 129.176C68.9854 132.517 78.9434 133.588 89.0303 131.831C88.5594 131.94 88.0866 132.04 87.6129 132.135C87.1392 132.23 86.6645 132.321 86.188 132.402C85.7163 132.483 85.2443 132.563 84.7694 132.63C84.3228 132.696 83.8712 132.758 83.4228 132.815C82.8678 132.884 82.3111 132.944 81.7535 132.999C81.3629 133.035 80.9706 133.066 80.5835 133.097C80.5364 133.097 80.4898 133.101 80.4431 133.106C80.0459 133.133 79.6522 133.156 79.2589 133.178C79.1933 133.182 79.122 133.182 79.0565 133.185C78.6055 133.205 78.1536 133.22 77.7007 133.23C77.3144 133.241 76.9262 133.243 76.5424 133.245C76.3439 133.247 76.1489 133.243 75.9539 133.24C75.9355 133.243 75.9165 133.242 75.8963 133.237C75.5838 133.238 75.2695 133.23 74.9552 133.223C74.4649 133.212 73.9818 133.191 73.4935 133.166C73.0528 133.141 72.6106 133.111 72.1676 133.077C72.1439 133.077 72.124 133.071 72.1002 133.071C71.6518 133.033 71.2035 132.995 70.7578 132.947C70.3614 132.909 69.9635 132.86 69.5649 132.813C69.4283 132.793 69.2922 132.778 69.156 132.757C68.7814 132.709 68.4051 132.652 68.0288 132.595C67.6971 132.548 67.3682 132.491 67.0391 132.434C67.0299 132.436 67.0197 132.433 67.0091 132.426C66.7795 132.391 66.5437 132.349 66.3119 132.305C65.4991 132.151 64.6879 131.982 63.8832 131.798C63.4802 131.703 63.0767 131.604 62.6766 131.499C62.3022 131.404 61.9264 131.304 61.5502 131.2C61.4703 131.178 61.3891 131.152 61.3041 131.131C60.9322 131.025 60.5595 130.915 60.1911 130.804C59.8372 130.695 59.4825 130.582 59.1272 130.463C58.9905 130.42 58.8528 130.371 58.7204 130.327C58.3903 130.217 58.0651 130.108 57.7425 129.988C57.5947 129.937 57.4517 129.885 57.3033 129.829C57.027 129.728 56.7555 129.627 56.4773 129.516C56.1035 129.378 55.7273 129.226 55.3551 129.073C55.1591 128.994 54.9678 128.914 54.7753 128.829C54.471 128.706 54.1646 128.573 53.862 128.435C53.7847 128.403 53.7114 128.37 53.6386 128.337C53.3467 128.207 53.0543 128.071 52.7608 127.931C52.4163 127.772 52.0797 127.608 51.7381 127.439C51.5485 127.345 51.3586 127.25 51.1691 127.155C50.9367 127.037 50.6985 126.913 50.4651 126.79C50.2318 126.666 49.9984 126.542 49.7641 126.414C49.4503 126.244 49.136 126.071 48.8195 125.888C48.5843 125.755 48.3482 125.617 48.1165 125.479C47.8375 125.317 47.5577 125.151 47.2816 124.978C47.1202 124.883 46.9623 124.782 46.8045 124.681C46.2848 124.358 45.7725 124.025 45.2629 123.682C45.0717 123.555 44.8845 123.426 44.6977 123.298C44.4061 123.096 44.1189 122.893 43.8361 122.689C43.786 122.651 43.7369 122.619 43.6865 122.581C43.4868 122.437 43.2872 122.292 43.092 122.146C42.8697 121.982 42.6515 121.817 42.4327 121.648C42.2312 121.494 42.0289 121.336 41.8318 121.181C41.6227 121.014 41.4151 120.852 41.2109 120.684C41.0066 120.517 40.802 120.349 40.5969 120.177C40.1827 119.838 39.7826 119.497 39.3939 119.144C39.148 118.932 38.9109 118.719 38.6829 118.504C38.4457 118.291 38.2131 118.077 37.9843 117.858C37.751 117.639 37.5218 117.42 37.2964 117.195C37.1732 117.077 37.0494 116.955 36.9296 116.832C36.7171 116.623 36.5034 116.41 36.2948 116.196C35.703 115.585 35.1276 114.961 34.5637 114.325C34.3813 114.125 34.2027 113.919 34.0285 113.712C33.7017 113.337 33.3836 112.955 33.0689 112.568C32.9814 112.462 32.8983 112.356 32.8108 112.25C32.6592 112.062 32.5077 111.875 32.36 111.682C32.1809 111.452 32.0022 111.222 31.8229 110.988C31.6868 110.807 31.5498 110.621 31.4132 110.435C31.3492 110.353 31.291 110.275 31.2317 110.192C31.0822 109.99 30.9368 109.786 30.7912 109.579C30.5528 109.243 30.3194 108.906 30.0902 108.568C29.9352 108.338 29.7789 108.104 29.6231 107.87C29.5192 107.706 29.4105 107.543 29.3063 107.379C29.1477 107.131 28.9878 106.879 28.8339 106.63C28.6806 106.386 28.5308 106.136 28.381 105.887C28.3735 105.874 28.3663 105.861 28.3582 105.844C28.2093 105.599 28.0652 105.352 27.9255 105.106C27.8907 105.051 27.8599 104.991 27.8296 104.935C27.6556 104.634 27.4856 104.331 27.3194 104.023C27.0958 103.618 26.8814 103.211 26.6713 102.803C26.6632 102.785 26.6557 102.773 26.6486 102.76C26.4769 102.424 26.3107 102.093 26.1473 101.751C26.0777 101.618 26.0129 101.484 25.9519 101.345C25.628 100.675 25.3212 99.9974 25.0259 99.3075C24.9546 99.1417 24.8824 98.9714 24.8159 98.8045C24.4716 97.9873 24.1434 97.1568 23.8411 96.3124C23.694 95.9106 23.5567 95.5114 23.4188 95.1074C23.4086 95.0811 23.3986 95.0544 23.3931 95.0271C23.2562 94.6279 23.1281 94.2269 23.0048 93.8253C22.9855 93.7771 22.9711 93.7278 22.9575 93.6834C22.8559 93.3434 22.7555 93.0082 22.6592 92.6717C22.6565 92.6581 22.6493 92.6453 22.6474 92.6361C22.5981 92.4612 22.5488 92.2863 22.5048 92.115C22.4052 91.7604 22.31 91.405 22.2196 91.0485C22.1143 90.643 22.0135 90.2365 21.9222 89.8281C21.8773 89.6523 21.8362 89.4708 21.8005 89.2932C21.7154 88.9169 21.6349 88.5393 21.5589 88.1612C15.4531 57.776 35.1226 28.1944 65.4998 22.0902C65.9735 21.995 66.4482 21.9042 66.9246 21.8227C37.3819 28.5651 18.4303 57.685 24.4381 87.5827C26.2566 96.6325 30.1589 104.733 35.5432 111.483C37.1416 113.494 38.8719 115.384 40.7279 117.144C44.8951 121.114 49.6501 124.426 54.8163 126.953C56.4988 127.781 58.2264 128.524 59.9875 129.175L59.9877 129.176Z" fill="#18C753"/>
<path d="M124.409 33.0851C122.597 31.1166 120.671 29.2661 118.633 27.5424C114.799 24.2878 110.595 21.4817 106.117 19.191C104.178 18.1961 102.192 17.3011 100.156 16.506C89.3813 12.2947 77.3601 10.9085 65.1853 13.0755L65.0987 13.0929C64.6451 13.1698 64.1977 13.2548 63.7424 13.3463C28.5369 20.4207 5.73678 54.7039 12.8132 89.9194C15.2635 102.113 20.9744 112.823 28.8554 121.314C30.6033 123.196 32.4528 124.971 34.4015 126.628C38.8254 130.39 43.736 133.556 48.998 136.016C50.6325 136.792 52.303 137.49 53.997 138.112C62.8522 141.406 72.5147 142.797 82.39 141.898C84.707 141.684 87.0375 141.348 89.3697 140.88C89.8254 140.788 90.2706 140.694 90.7187 140.589L90.8052 140.572C91.4994 140.418 92.1861 140.252 92.8656 140.073C123.055 132.281 143.211 104.152 141.477 73.523C141.304 70.4668 140.913 67.3877 140.293 64.3028L140.257 64.1207C137.805 52.0878 132.173 41.5097 124.409 33.0854L124.409 33.0851ZM132.592 74.4216C132.801 78.599 132.535 82.7201 131.836 86.7198C128.867 103.829 118.034 118.801 102.495 126.892L102.491 126.893C100.814 127.771 99.0829 128.564 97.2951 129.265C97.0713 129.352 96.8471 129.44 96.6229 129.528C96.3996 129.62 96.1749 129.703 95.9444 129.782C94.5764 130.285 93.1838 130.736 91.7662 131.134C91.2059 131.294 90.6387 131.441 90.0646 131.581C89.7312 131.667 89.4013 131.747 89.066 131.824L89.0296 131.831C88.5586 131.94 88.0858 132.04 87.6121 132.135C87.1384 132.23 86.6638 132.321 86.1872 132.402C85.7156 132.483 85.2435 132.563 84.7687 132.63C84.322 132.696 83.8704 132.758 83.422 132.816C82.8671 132.884 82.3103 132.944 81.7527 132.999C81.3621 133.035 80.9699 133.066 80.5827 133.097C80.5356 133.097 80.489 133.101 80.4424 133.106C80.0451 133.133 79.6514 133.156 79.2581 133.178C79.1925 133.182 79.1213 133.182 79.0557 133.185C78.6047 133.205 78.1528 133.22 77.7 133.23C77.3137 133.242 76.9255 133.244 76.5417 133.245C76.3432 133.247 76.1482 133.244 75.9532 133.24C75.9352 133.244 75.9158 133.243 75.8956 133.238C75.5831 133.239 75.2688 133.231 74.9545 133.223C74.4642 133.213 73.9812 133.191 73.4928 133.166C73.0521 133.141 72.6099 133.111 72.1669 133.077C72.1432 133.077 72.1233 133.072 72.0995 133.071C71.6512 133.033 71.2028 132.996 70.7571 132.948C70.3607 132.909 69.9628 132.861 69.5642 132.813C69.4276 132.793 69.2915 132.778 69.1553 132.758C68.7807 132.71 68.4044 132.653 68.0281 132.596C67.6964 132.549 67.3675 132.491 67.0384 132.434C67.0292 132.436 67.0194 132.433 67.0084 132.426C66.7788 132.392 66.543 132.349 66.3112 132.306C65.4984 132.152 64.6872 131.983 63.8825 131.798C63.4795 131.703 63.076 131.605 62.6759 131.5C62.3015 131.405 61.9257 131.304 61.5495 131.2C61.4696 131.178 61.3884 131.152 61.3034 131.131C60.9315 131.026 60.5588 130.916 60.1904 130.805C59.8366 130.696 59.4819 130.582 59.1266 130.464C58.9898 130.42 58.8521 130.372 58.7197 130.327C58.3906 130.223 58.0644 130.108 57.7418 129.988C57.594 129.937 57.451 129.886 57.3026 129.83C57.0273 129.734 56.75 129.628 56.4767 129.517C56.1028 129.379 55.7266 129.227 55.3544 129.074C55.1584 128.995 54.9671 128.915 54.7746 128.83C54.4704 128.706 54.1639 128.573 53.8613 128.435C53.784 128.403 53.7107 128.37 53.6379 128.338C53.3406 128.203 53.0492 128.072 52.7602 127.931C52.4157 127.773 52.079 127.608 51.7375 127.44C51.5478 127.345 51.3579 127.251 51.1684 127.156C50.936 127.037 50.6978 126.914 50.4644 126.79C50.2311 126.666 49.9977 126.542 49.7634 126.414C49.4496 126.245 49.1353 126.071 48.8188 125.888C48.5836 125.755 48.3475 125.618 48.1159 125.48C47.8369 125.318 47.557 125.151 47.2809 124.979C47.1195 124.883 46.9616 124.782 46.8038 124.681C46.2841 124.359 45.7719 124.026 45.2622 123.683C45.071 123.555 44.8838 123.427 44.697 123.298C44.4054 123.096 44.1182 122.893 43.8354 122.689C43.7853 122.652 43.7362 122.619 43.6858 122.582C43.4862 122.437 43.2865 122.292 43.0913 122.147C42.869 121.983 42.6508 121.818 42.432 121.648C42.2305 121.494 42.0282 121.336 41.8311 121.181C41.622 121.014 41.4144 120.852 41.2102 120.685C41.006 120.517 40.8013 120.35 40.5962 120.178C40.182 119.839 39.7819 119.497 39.3933 119.144C39.1473 118.933 38.9102 118.72 38.6822 118.504C38.4403 118.292 38.2079 118.078 37.9836 117.858C37.7503 117.639 37.5211 117.42 37.2958 117.195C37.1681 117.078 37.0487 116.955 36.929 116.832C36.7164 116.624 36.5028 116.411 36.2942 116.197C35.7023 115.586 35.127 114.962 34.5631 114.326C34.3806 114.125 34.202 113.919 34.0278 113.712C33.701 113.337 33.3829 112.956 33.0682 112.568C32.9807 112.463 32.8976 112.356 32.8101 112.251C32.6585 112.063 32.507 111.875 32.3594 111.682C32.1802 111.452 32.0015 111.223 31.8222 110.989C31.6862 110.807 31.5491 110.621 31.4125 110.436C31.3485 110.354 31.2903 110.276 31.231 110.192C31.0815 109.99 30.9361 109.787 30.7905 109.579C30.5521 109.243 30.3187 108.906 30.0895 108.568C29.9346 108.339 29.7783 108.104 29.6224 107.87C29.5186 107.707 29.4098 107.543 29.3056 107.379C29.147 107.132 28.9871 106.879 28.8332 106.63C28.6799 106.386 28.5301 106.137 28.3803 105.887C28.3728 105.874 28.3656 105.862 28.3575 105.844C28.2086 105.599 28.0645 105.353 27.9248 105.106C27.8901 105.051 27.8592 104.991 27.8289 104.936C27.6549 104.634 27.4849 104.332 27.3188 104.024C27.0952 103.619 26.8807 103.211 26.6706 102.803C26.6625 102.785 26.6551 102.773 26.6479 102.76C26.4762 102.425 26.31 102.093 26.1466 101.752C26.077 101.619 26.0122 101.485 25.9512 101.345C25.6273 100.676 25.3205 99.9979 25.0252 99.308C24.9539 99.1422 24.8817 98.9719 24.8153 98.805C24.4709 97.9878 24.1427 97.1573 23.8404 96.3129C23.6934 95.9111 23.556 95.5119 23.4181 95.1079C23.4079 95.0816 23.3979 95.0549 23.3924 95.0276C23.2555 94.6284 23.1275 94.2278 23.0041 93.8258C22.9849 93.7776 22.9704 93.7283 22.9565 93.684C22.8548 93.344 22.7545 93.0087 22.6581 92.6723C22.6554 92.6587 22.6482 92.6459 22.6464 92.6367C22.5971 92.4618 22.5477 92.2869 22.5037 92.1155C22.4041 91.761 22.3089 91.4055 22.2185 91.0491C22.1133 90.6435 22.0124 90.2371 21.9212 89.8287C21.8763 89.6529 21.8352 89.4714 21.7995 89.2937C21.7143 88.9175 21.6338 88.5399 21.5578 88.1618C15.4521 57.7766 35.1214 28.1946 65.4987 22.0904C65.9724 21.9952 66.4471 21.9048 66.9236 21.8232L66.96 21.8159C67.881 21.6596 68.8011 21.5219 69.7166 21.4092C70.2623 21.3421 70.8098 21.2842 71.3582 21.2308C71.9022 21.1782 72.4477 21.1349 72.991 21.1017C73.4119 21.0738 73.8348 21.0556 74.2527 21.0375C74.4925 21.0273 74.7319 21.0172 74.9726 21.0114C75.1464 21.0048 75.3216 21.003 75.4998 20.9955C75.7414 20.9945 75.9865 20.9878 76.2278 20.9869C76.337 20.9887 76.4466 20.9904 76.5548 20.9875C76.994 20.9797 77.4315 20.9869 77.866 21.0035C78.2041 21.0115 78.5383 21.0248 78.8729 21.0381C79.1881 21.0507 79.5046 21.0676 79.8204 21.0847C80.1749 21.1035 80.5258 21.1277 80.8777 21.1567C81.2093 21.1802 81.5418 21.208 81.8753 21.2407C86.3899 21.6563 90.7852 22.636 94.9853 24.1055C97.0838 24.8313 99.1371 25.689 101.125 26.6644C105.696 28.8985 109.955 31.7457 113.767 35.1229C115.731 36.8568 117.572 38.7339 119.278 40.7379C125.267 47.76 129.603 56.3654 131.551 66.058C132.113 68.8558 132.456 71.6505 132.591 74.4203L132.592 74.4216Z" fill="#53FF8D"/>
<path d="M134.394 65.4882C134.758 67.2973 135.03 69.101 135.211 70.8991C135.599 74.6709 135.597 78.407 135.233 82.0691C133.258 102.212 120.421 120 101.622 128.087C98.0972 129.601 94.367 130.777 90.4545 131.564C90.3086 131.593 90.1627 131.622 90.0164 131.647L90.0116 131.648C89.6973 131.711 89.3822 131.77 89.0662 131.824C89.4014 131.747 89.7309 131.666 90.0647 131.581C90.6385 131.442 91.2059 131.294 91.7663 131.134C93.184 130.736 94.5766 130.285 95.9445 129.783C96.1693 129.7 96.3935 129.612 96.623 129.528C96.8469 129.44 97.0711 129.353 97.2952 129.265C99.0859 128.554 100.825 127.749 102.51 126.87C118.007 118.783 128.814 103.844 131.792 86.7806C132.493 82.7711 132.764 78.6487 132.559 74.466C132.427 71.686 132.081 68.8778 131.516 66.0663C129.57 56.3829 125.241 47.7899 119.262 40.7659C117.556 38.7622 115.713 36.8804 113.754 35.1455C109.943 31.7679 105.688 28.9202 101.111 26.6823C99.1236 25.7067 97.0742 24.8479 94.9749 24.118C90.7801 22.6521 86.3857 21.6768 81.8767 21.2413C81.5432 21.2086 81.2107 21.1807 80.8791 21.1573C80.5272 21.1283 80.1766 21.104 79.8218 21.0852C79.5092 21.063 79.1939 21.0504 78.8742 21.0387C78.5388 21.021 78.2055 21.0121 77.8674 21.0041C77.4328 20.9871 76.9953 20.9803 76.5562 20.9881C76.4478 20.9907 76.3383 20.9893 76.2291 20.9875C75.9879 20.9884 75.7428 20.9951 75.5012 20.9961C75.3226 21.0036 75.1478 21.0054 74.9739 21.0119C74.7333 21.0177 74.4939 21.0279 74.2541 21.0381C73.8361 21.0558 73.4133 21.0744 72.9923 21.1023C72.4491 21.1355 71.9036 21.1788 71.3596 21.2314C70.8111 21.2845 70.2636 21.3423 69.7179 21.4094C68.8024 21.5221 67.8823 21.6598 66.9614 21.8165C67.4188 21.7104 67.8824 21.6126 68.3425 21.5202C77.8122 19.6173 87.2022 20.2191 95.8292 22.8709C97.9664 23.5319 100.058 24.3159 102.093 25.2202C106.743 27.2819 111.092 29.9633 115.015 33.186C117.04 34.8459 118.947 36.6485 120.725 38.5856C127.437 45.8841 132.299 55.0573 134.395 65.488L134.394 65.4882Z" fill="#10632C"/>
<path d="M60.8018 104.309C56.9921 105.075 53.5546 105.199 50.4891 104.683C47.4571 104.116 44.504 102.859 41.6298 100.91L47.902 91.4831C49.846 92.704 51.8021 93.5522 53.7705 94.0277C55.7305 94.4614 57.7362 94.4722 59.7875 94.0599C61.504 93.715 62.7513 93.2031 63.5295 92.524C64.2993 91.8031 64.5916 90.9822 64.4065 90.0612C64.2215 89.1402 63.6933 88.4623 62.8219 88.0277C61.9422 87.5511 60.8281 87.2088 59.4796 87.0006C58.1646 86.7422 56.7031 86.5133 55.095 86.3138C53.5289 86.1058 51.9416 85.7932 50.3334 85.376C48.7251 84.9587 47.1921 84.3739 45.7343 83.6215C44.3099 82.8189 43.0695 81.7397 42.0131 80.3841C40.9483 78.9865 40.193 77.1783 39.7471 74.9595C39.1666 72.0709 39.3569 69.4412 40.3178 67.0704C41.2787 64.6996 42.9057 62.7176 45.1988 61.1244C47.4835 59.4893 50.3213 58.331 53.7123 57.6496C57.0615 56.9766 60.2688 56.8983 63.3342 57.4148C66.4332 57.8809 69.1223 58.9085 71.4015 60.4976L65.0666 69.937C63.4158 68.875 61.8366 68.1688 60.3289 67.8184C58.8128 67.4262 57.2384 67.3942 55.6057 67.7222C54.3079 67.983 53.3034 68.4027 52.5921 68.9811C51.9227 69.5512 51.6721 70.2549 51.8403 71.0922C52.017 71.9713 52.541 72.6282 53.4123 73.0629C54.2752 73.4557 55.36 73.7604 56.6666 73.9769C58.015 74.185 59.4724 74.3931 61.0386 74.601C62.6466 74.8005 64.2548 75.1089 65.863 75.5262C67.4629 75.9016 68.9792 76.5115 70.412 77.356C71.8782 78.1503 73.1479 79.2671 74.2211 80.7065C75.2944 82.1459 76.0581 83.9959 76.5124 86.2566C77.4293 90.8198 76.5075 94.6854 73.7468 97.8534C71.0196 100.971 66.7046 103.123 60.8018 104.309Z" fill="#DDFFE9"/>
<path d="M107.097 95.0063C103.664 95.6961 100.348 95.7745 97.1487 95.2415C93.9827 94.6582 91.08 93.5428 88.4406 91.8955C85.8011 90.2481 83.5716 88.1482 81.7521 85.5957C79.966 82.9929 78.7406 80.0379 78.0761 76.7306C77.4031 73.3815 77.3918 70.1825 78.0422 67.1336C78.7345 64.0764 79.963 61.3033 81.7277 58.8145C83.5343 56.3174 85.7893 54.2092 88.4926 52.49C91.1876 50.7289 94.2515 49.5034 97.6843 48.8136C101.159 48.1154 104.45 48.0203 107.557 48.5283C110.665 49.0363 113.479 50.0387 116.001 51.5354L109.341 61.6283C108.117 60.7418 106.71 60.1317 105.118 59.7982C103.569 59.4563 101.831 59.4788 99.9052 59.8657C98.2307 60.2022 96.7364 60.7856 95.4223 61.6159C94.1502 62.4377 93.1169 63.4729 92.3225 64.7214C91.528 65.9699 90.9892 67.4066 90.706 69.0315C90.4562 70.6061 90.5163 72.3144 90.8865 74.1564C91.265 76.0403 91.8779 77.6811 92.7249 79.0788C93.6055 80.4263 94.6533 81.5224 95.8683 82.3671C97.0834 83.2118 98.4405 83.7884 99.9398 84.0969C101.473 84.3551 103.076 84.3159 104.751 83.9795C106.635 83.6009 108.25 82.9713 109.598 82.0908C110.987 81.2019 112.112 80.0829 112.974 78.7338L123.079 85.4576C121.248 87.8292 119.059 89.8369 116.515 91.4805C113.962 93.0824 110.823 94.2576 107.097 95.0063Z" fill="#DDFFE9"/>
</g>
<defs>
<clipPath id="clip0_259_4976">
<rect width="132.761" height="132.761" fill="white" transform="translate(0 26.155) rotate(-11.362)"/>
</clipPath>
</defs>
</svg>
