<svg width="20" height="20" viewBox="0 0 20 20" fill="none" xmlns="http://www.w3.org/2000/svg">
<g clip-path="url(#clip0_2001_6316)">
<path d="M7.38867 1.875C8.66418 1.87507 9.90021 2.3174 10.8862 3.12662C11.8721 3.93585 12.547 5.06189 12.7958 6.31291C13.0445 7.56392 12.8519 8.86249 12.2506 9.98738C11.6493 11.1123 10.6765 11.9938 9.49809 12.4819C8.31966 12.97 7.00845 13.0344 5.78787 12.6641C4.56728 12.2939 3.51285 11.5118 2.80422 10.4513C2.09559 9.39071 1.77661 8.11727 1.90163 6.8479C2.02665 5.57853 2.58793 4.39178 3.48984 3.48984C4.00065 2.97624 4.60826 2.56906 5.2775 2.29187C5.94673 2.01468 6.6643 1.87299 7.38867 1.875ZM7.38867 0C3.3082 0 0 3.3082 0 7.38867C0 11.4691 3.3082 14.7777 7.38867 14.7777C11.4691 14.7777 14.7773 11.4695 14.7773 7.38867C14.7773 3.30781 11.4695 0 7.38867 0Z" fill="#4193D2"/>
<path d="M19.5394 16.4617C18.7197 15.5334 17.8428 14.6571 16.914 13.8379C16.123 13.1637 14.8543 13.25 14.1406 13.9648L13.9648 14.1406C13.25 14.8555 13.1636 16.1242 13.8379 16.9141C14.657 17.8424 15.5333 18.7187 16.4617 19.5379C17.2527 20.2125 18.5215 20.1258 19.2351 19.4109L19.4113 19.2348C20.1273 18.5215 20.2136 17.2527 19.5394 16.4617Z" fill="#B9B9D5"/>
<path d="M7.38866 1.87501C8.66417 1.87508 9.9002 2.31741 10.8861 3.12663C11.8721 3.93585 12.5469 5.0619 12.7957 6.31291C13.0445 7.56392 12.8519 8.8625 12.2506 9.98738C11.6492 11.1123 10.6765 11.9939 9.49808 12.4819C8.31965 12.97 7.00844 13.0344 5.78785 12.6641C4.56727 12.2939 3.51284 11.5118 2.80421 10.4513C2.09558 9.39072 1.7766 8.11727 1.90162 6.8479C2.02664 5.57853 2.58792 4.39178 3.48983 3.48985C4.00064 2.97625 4.60825 2.56906 5.27748 2.29188C5.94672 2.01469 6.66429 1.873 7.38866 1.87501Z" fill="#CFECF9"/>
<path d="M7.41057 3.23555C7.16121 3.23555 6.92205 3.33461 6.74573 3.51094C6.5694 3.68727 6.47034 3.92642 6.47034 4.17578C6.47034 4.42515 6.5694 4.6643 6.74573 4.84063C6.92205 5.01696 7.16121 5.11602 7.41057 5.11602C8.0189 5.11674 8.6021 5.35872 9.03225 5.78887C9.4624 6.21902 9.70438 6.80222 9.7051 7.41055C9.7051 7.65992 9.80416 7.89907 9.98049 8.0754C10.1568 8.25172 10.396 8.35078 10.6453 8.35078C10.8947 8.35078 11.1339 8.25172 11.3102 8.0754C11.4865 7.89907 11.5856 7.65992 11.5856 7.41055C11.5843 6.30365 11.1441 5.24244 10.3614 4.45975C9.57868 3.67705 8.51747 3.23679 7.41057 3.23555Z" fill="white"/>
<path d="M13.234 11.9082C12.8499 12.4044 12.4044 12.8499 11.9082 13.234L13.5176 14.8434C13.6151 14.5799 13.7676 14.3402 13.9648 14.1402L14.1406 13.9648C14.3405 13.7674 14.5802 13.615 14.8437 13.5176L13.234 11.9082Z" fill="#858595"/>
</g>
<defs>
<clipPath id="clip0_2001_6316">
<rect width="20" height="20" fill="white"/>
</clipPath>
</defs>
</svg>
