<svg width="18" height="18" viewBox="0 0 18 18" fill="none" xmlns="http://www.w3.org/2000/svg">
<path d="M14.4205 7.33317L9.35799 12.3957C9.31097 12.4427 9.25513 12.4801 9.19368 12.5056C9.13222 12.531 9.06634 12.5441 8.99981 12.5441C8.93328 12.5441 8.86741 12.531 8.80595 12.5056C8.74449 12.4801 8.68866 12.4427 8.64164 12.3957L3.57914 7.33317C3.50826 7.26237 3.45998 7.17213 3.44041 7.07387C3.42085 6.97562 3.43087 6.87377 3.46922 6.78121C3.50757 6.68866 3.57252 6.60956 3.65585 6.55394C3.73917 6.49832 3.83713 6.46867 3.93731 6.46875H14.0623C14.1625 6.46867 14.2605 6.49832 14.3438 6.55394C14.4271 6.60956 14.4921 6.68866 14.5304 6.78121C14.5688 6.87377 14.5788 6.97562 14.5592 7.07387C14.5396 7.17213 14.4914 7.26237 14.4205 7.33317Z" fill="#9D9D9D"/>
</svg>
