<svg width="35" height="35" viewBox="0 0 25 25" fill="none" xmlns="http://www.w3.org/2000/svg">
<path d="M20.6561 21.1109C20.5915 21.2286 20.4966 21.3267 20.3812 21.3951C20.2657 21.4636 20.1341 21.4998 19.9999 21.5H15.4999C15.3737 21.5 15.2495 21.4681 15.1389 21.4073C15.0282 21.3465 14.9348 21.2587 14.8671 21.1522L11.0711 15.1869L5.55488 21.2544C5.4204 21.3988 5.23442 21.4845 5.03723 21.4927C4.84005 21.5009 4.64757 21.4311 4.50151 21.2984C4.35546 21.1657 4.26761 20.9807 4.25701 20.7836C4.24641 20.5866 4.31391 20.3933 4.44488 20.2456L10.2358 13.8706L4.36706 4.65313C4.29478 4.53973 4.25432 4.40898 4.24991 4.27458C4.24551 4.14018 4.27732 4.00707 4.34201 3.88918C4.40671 3.77129 4.50191 3.67296 4.61765 3.60449C4.73338 3.53603 4.8654 3.49993 4.99988 3.5H9.49988C9.6261 3.50004 9.75028 3.53194 9.8609 3.59274C9.97152 3.65353 10.065 3.74127 10.1327 3.84781L13.9286 9.81312L19.4449 3.74562C19.5793 3.60117 19.7653 3.51555 19.9625 3.50731C20.1597 3.49907 20.3522 3.56888 20.4982 3.70161C20.6443 3.83435 20.7321 4.01929 20.7427 4.21636C20.7533 4.41343 20.6858 4.60674 20.5549 4.75438L14.7639 11.1247L20.6327 20.3478C20.7046 20.4613 20.7447 20.5919 20.7488 20.7262C20.7529 20.8604 20.7209 20.9933 20.6561 21.1109Z" fill="#59515E"/>
</svg>
