<svg height="512" viewBox="0 0 58 58" width="512" xmlns="http://www.w3.org/2000/svg"><g id="Page-1" fill="none" fill-rule="evenodd"><g id="029---18-Plus"><circle id="Oval" cx="29" cy="29" fill="#e64c3c" r="29"/><circle id="Oval" cx="29" cy="29" fill="#ecf0f1" r="24"/><g fill="#464f5d"><path id="Path" d="m19 19.7v18.3c0 1.1045695-.8954305 2-2 2s-2-.8954305-2-2v-13.5l-1.751 1.4c-.8618303.6888861-2.118736.5497271-2.809-.311-.6895649-.8619897-.55037058-2.1196618.311-2.81l4.249-3.403 1.3-1.04c.5141683-.3813826 1.1995528-.4399228 1.7709511-.1512609.5713982.288662.930954.8750906.9290489 1.5152609z"/><path id="Shape" d="m32.31 29c2.2086392-1.4608371 3.1984535-4.1968207 2.4357083-6.7326345-.7627451-2.5358139-3.0976653-4.2717536-5.7457083-4.2717536s-4.9829632 1.7359397-5.7457083 4.2717536c-.7627452 2.5358138.2270691 5.2717974 2.4357083 6.7326345-2.2086392 1.4608371-3.1984535 4.1968207-2.4357083 6.7326345.7627451 2.5358139 3.0976653 4.2717536 5.7457083 4.2717536s4.9829632-1.7359397 5.7457083-4.2717536c.7627452-2.5358138-.2270691-5.2717974-2.4357083-6.7326345zm-3.31 7c-1.1045695 0-2-.8954305-2-2s.8954305-2 2-2 2 .8954305 2 2c-.0032948 1.1032019-.8967981 1.9967052-2 2zm0-10c-1.1045695 0-2-.8954305-2-2s.8954305-2 2-2 2 .8954305 2 2c-.0032948 1.1032019-.8967981 1.9967052-2 2z" fill-rule="nonzero"/><path id="Path" d="m46 27h-1v-1c0-1.1045695-.8954305-2-2-2s-2 .8954305-2 2v1h-1c-1.1045695 0-2 .8954305-2 2s.8954305 2 2 2h1v1c0 1.1045695.8954305 2 2 2s2-.8954305 2-2v-1h1c1.1045695 0 2-.8954305 2-2s-.8954305-2-2-2z"/></g></g></g></svg>