<svg width="39" height="39" viewBox="0 0 39 39" fill="none" xmlns="http://www.w3.org/2000/svg">
<g clip-path="url(#clip0_306_6992)">
<path d="M36.4 5.85215H33.475C33.2956 5.85215 33.15 5.70666 33.15 5.52712V2.60212C33.15 2.24312 32.859 1.95215 32.5 1.95215H29.9001C29.5411 1.95215 29.2501 2.24312 29.2501 2.60212V5.52712C29.2501 5.70658 29.1046 5.85215 28.9251 5.85215H26.0001C25.6411 5.85215 25.3501 6.14313 25.3501 6.50212V9.1021C25.3501 9.4611 25.6411 9.75207 26.0001 9.75207H28.9251C29.1045 9.75207 29.2501 9.89756 29.2501 10.0771V13.0021C29.2501 13.3611 29.5411 13.6521 29.9001 13.6521H32.5C32.859 13.6521 33.15 13.361 33.15 13.0021V10.0771C33.15 9.89764 33.2955 9.75207 33.475 9.75207H36.4C36.759 9.75207 37.05 9.46102 37.05 9.1021V6.5022C37.05 6.1432 36.759 5.85215 36.4 5.85215Z" fill="#D83131"/>
<path d="M35.4216 15.6024C35.0088 15.6024 34.7036 15.9816 34.7857 16.3863C34.99 17.3924 35.0976 18.4336 35.0976 19.5002C35.0976 28.1145 28.1144 35.0979 19.4999 35.0979C10.8601 35.0979 3.90206 28.14 3.90206 19.5001C3.90221 10.8857 10.8856 3.90239 19.4999 3.90239C20.5672 3.90239 21.6091 4.01025 22.616 4.21477C23.0206 4.29704 23.3999 3.99189 23.3999 3.57896V0.930467C23.3999 0.615572 23.1746 0.344248 22.8644 0.290242C21.736 0.0937189 20.5745 -0.00614244 19.3884 0.00056068C8.60773 0.0611173 -0.03351 8.78135 5.61218e-06 19.5621C0.0333689 30.2862 8.72351 38.9727 19.449 39.0001C30.2293 39.0277 38.9391 30.3918 38.9996 19.6116C39.0063 18.4263 38.9066 17.2656 38.7103 16.138C38.6563 15.8277 38.385 15.6024 38.07 15.6024H35.4216Z" fill="#D83131"/>
<path d="M36.4 5.85229H34.5952C34.9542 5.85229 35.2452 6.14335 35.2452 6.50235V9.10232C35.2452 9.46132 34.9542 9.7523 34.5952 9.7523H36.4C36.759 9.7523 37.05 9.46124 37.05 9.10232V6.50235C37.05 6.14335 36.759 5.85229 36.4 5.85229Z" fill="#C41926"/>
<path d="M31.3452 2.60237V5.52737C31.3452 5.70691 31.4907 5.85239 31.6702 5.85239H33.475C33.2956 5.85239 33.15 5.70691 33.15 5.52737V2.60237C33.15 2.24337 32.859 1.95239 32.5 1.95239H30.6952C31.0542 1.95232 31.3452 2.24337 31.3452 2.60237Z" fill="#C41926"/>
<path d="M31.3452 10.0772V13.0022C31.3452 13.3612 31.0542 13.6523 30.6952 13.6523H32.5C32.859 13.6523 33.15 13.3612 33.15 13.0022V10.0772C33.15 9.89776 33.2955 9.7522 33.475 9.7522H31.6702C31.4907 9.7522 31.3452 9.89776 31.3452 10.0772Z" fill="#C41926"/>
<path d="M21.5952 0.682461V3.5789C21.5952 3.75211 21.5279 3.90583 21.4205 4.02046C21.8239 4.0702 22.2228 4.13487 22.6161 4.2147C23.0207 4.29697 23.4 3.99182 23.4 3.5789V0.930248C23.4 0.615354 23.1747 0.344029 22.8645 0.290023C22.3064 0.192828 21.7402 0.119551 21.1671 0.0708008C21.4205 0.161979 21.5952 0.405271 21.5952 0.682461Z" fill="#C41926"/>
<path d="M38.7104 16.1379C38.6564 15.8277 38.3851 15.6023 38.0701 15.6023H36.2653C36.5802 15.6023 36.8516 15.8277 36.9055 16.1379C37.1018 17.2655 37.2014 18.4263 37.1948 19.6116C37.136 30.0679 28.9401 38.5063 18.6102 38.9788C18.8884 38.9913 19.1679 38.9994 19.449 39.0001C30.2294 39.0276 38.9391 30.3918 38.9996 19.6116C39.0063 18.4263 38.9067 17.2655 38.7104 16.1379Z" fill="#C41926"/>
<path d="M15.3333 12.6211H13.8472C13.5316 12.6211 13.2759 12.8768 13.2759 13.1924C13.2759 13.508 13.5316 13.7637 13.8472 13.7637H14.762V25.8072C14.762 26.1228 15.0177 26.3785 15.3333 26.3785C15.6488 26.3785 15.9046 26.1228 15.9046 25.8072V13.1924C15.9046 12.8769 15.6488 12.6211 15.3333 12.6211Z" fill="white"/>
<path d="M23.4597 18.422C24.2345 17.8313 24.7358 16.8992 24.7358 15.8519C24.7358 14.0704 23.2864 12.6211 21.505 12.6211C19.7235 12.6211 18.2742 14.0704 18.2742 15.8519C18.2742 16.8992 18.7755 17.8312 19.5503 18.422C18.2056 19.1282 17.2859 20.5379 17.2859 22.1593C17.2859 24.4859 19.1786 26.3786 21.5051 26.3786C23.8315 26.3786 25.7243 24.4859 25.7243 22.1593C25.7241 20.5379 24.8043 19.1282 23.4597 18.422ZM19.4167 15.8518C19.4167 14.7004 20.3535 13.7636 21.5049 13.7636C22.6564 13.7636 23.5931 14.7004 23.5931 15.8518C23.5931 17.0033 22.6564 17.94 21.5049 17.94C20.3535 17.9401 19.4167 17.0033 19.4167 15.8518ZM21.505 25.2359C19.8086 25.2359 18.4284 23.8558 18.4284 22.1593C18.4284 20.4628 19.8085 19.0826 21.505 19.0826C23.2014 19.0826 24.5816 20.4628 24.5816 22.1593C24.5815 23.8558 23.2014 25.2359 21.505 25.2359Z" fill="white"/>
</g>
<defs>
<clipPath id="clip0_306_6992">
<rect width="39" height="39" fill="white"/>
</clipPath>
</defs>
</svg>
