<svg width="24" height="35" viewBox="0 0 24 25" fill="none" xmlns="http://www.w3.org/2000/svg">
<path d="M21.75 12.5001C21.7469 14.883 20.8726 17.1826 19.2918 18.9657C17.7109 20.7488 15.5326 21.8922 13.1672 22.1807C13.1145 22.1867 13.0612 22.1814 13.0107 22.1653C12.9602 22.1491 12.9137 22.1224 12.8743 22.087C12.8349 22.0516 12.8034 22.0082 12.782 21.9597C12.7606 21.9112 12.7497 21.8587 12.75 21.8057V14.7501H15C15.1028 14.7503 15.2046 14.7294 15.299 14.6886C15.3934 14.6479 15.4784 14.5882 15.5487 14.5132C15.619 14.4382 15.6732 14.3495 15.7078 14.2527C15.7425 14.1559 15.7568 14.053 15.75 13.9504C15.7334 13.7576 15.6445 13.5781 15.501 13.4482C15.3575 13.3183 15.1701 13.2475 14.9766 13.2501H12.75V11.0001C12.75 10.6023 12.908 10.2207 13.1893 9.93944C13.4706 9.65813 13.8522 9.5001 14.25 9.5001H15.75C15.8528 9.50032 15.9546 9.47941 16.049 9.43865C16.1434 9.39789 16.2284 9.33816 16.2987 9.26316C16.369 9.18817 16.4232 9.09951 16.4578 9.0027C16.4925 8.9059 16.5068 8.803 16.5 8.70041C16.4834 8.50722 16.3942 8.32752 16.2503 8.19755C16.1064 8.06757 15.9186 7.99701 15.7247 8.0001H14.25C13.4544 8.0001 12.6913 8.31617 12.1287 8.87878C11.5661 9.44139 11.25 10.2044 11.25 11.0001V13.2501H9C8.89719 13.2499 8.79542 13.2708 8.70103 13.3115C8.60664 13.3523 8.52164 13.412 8.4513 13.487C8.38097 13.562 8.3268 13.6507 8.29217 13.7475C8.25755 13.8443 8.24319 13.9472 8.25 14.0498C8.26659 14.243 8.35583 14.4227 8.49972 14.5527C8.64361 14.6826 8.83144 14.7532 9.02532 14.7501H11.25V21.8076C11.2503 21.8605 11.2394 21.9129 11.2181 21.9613C11.1967 22.0097 11.1653 22.0531 11.126 22.0885C11.0867 22.1239 11.0403 22.1506 10.99 22.1668C10.9396 22.183 10.8864 22.1884 10.8338 22.1826C8.40502 21.8868 6.17584 20.69 4.58745 18.829C2.99905 16.9681 2.16721 14.5786 2.25657 12.1335C2.44407 7.07104 6.54469 2.95541 11.6109 2.75854C12.9226 2.70773 14.231 2.92199 15.4579 3.3885C16.6849 3.85502 17.8051 4.5642 18.7516 5.47363C19.6982 6.38306 20.4516 7.47405 20.9668 8.68136C21.482 9.88866 21.7483 11.1875 21.75 12.5001Z" fill="#59515E"/>
</svg>
