<svg width="24" height="35" viewBox="0 0 24 25" fill="none" xmlns="http://www.w3.org/2000/svg">
<path fill-rule="evenodd" clip-rule="evenodd" d="M11.9999 2.5C6.47722 2.5 1.99988 6.97734 1.99988 12.5C1.99988 18.0227 6.47722 22.5 11.9999 22.5C17.5225 22.5 21.9999 18.0227 21.9999 12.5C21.9999 6.97734 17.5225 2.5 11.9999 2.5ZM16.635 9.30078C16.4846 10.882 15.8335 14.7191 15.5022 16.4902C15.362 17.2398 15.0858 17.491 14.8186 17.5156C14.2382 17.5691 13.7971 17.1316 13.2346 16.7629C12.3546 16.1859 11.8573 15.827 11.003 15.2641C10.0155 14.6133 10.6557 14.2559 11.2182 13.6715C11.3655 13.5184 13.9241 11.191 13.9737 10.9801C13.98 10.9535 13.9858 10.8551 13.9272 10.8031C13.8686 10.7512 13.7823 10.7691 13.7202 10.7832C13.6319 10.8031 12.2257 11.7324 9.50222 13.5711C9.103 13.8453 8.74167 13.9785 8.41746 13.9719C8.06042 13.9641 7.37371 13.7699 6.86316 13.6039C6.23699 13.4004 5.73933 13.2926 5.78269 12.9469C5.80496 12.7668 6.053 12.5828 6.52644 12.3945C9.44167 11.1242 11.3854 10.2871 12.3581 9.88242C15.1354 8.72738 15.7124 8.52656 16.0885 8.51992C16.5597 8.5116 16.6734 8.90051 16.635 9.30078Z" fill="#59515E"/>
</svg>
