<svg width="24" height="35" viewBox="0 0 24 25" fill="none" xmlns="http://www.w3.org/2000/svg">
<path d="M20.1562 21.1109C20.0917 21.2286 19.9967 21.3267 19.8813 21.3951C19.7659 21.4636 19.6342 21.4998 19.5 21.5H15C14.8738 21.5 14.7496 21.4681 14.639 21.4073C14.5284 21.3465 14.4349 21.2587 14.3672 21.1522L10.5713 15.1869L5.055 21.2544C4.92053 21.3988 4.73454 21.4845 4.53736 21.4927C4.34017 21.5009 4.14769 21.4311 4.00164 21.2984C3.85558 21.1657 3.76773 20.9807 3.75713 20.7836C3.74653 20.5866 3.81403 20.3933 3.945 20.2456L9.73594 13.8706L3.86719 4.65313C3.79491 4.53973 3.75445 4.40898 3.75004 4.27458C3.74563 4.14018 3.77744 4.00707 3.84214 3.88918C3.90683 3.77129 4.00203 3.67296 4.11777 3.60449C4.23351 3.53603 4.36553 3.49993 4.5 3.5H9C9.12623 3.50004 9.2504 3.53194 9.36102 3.59274C9.47164 3.65353 9.56512 3.74127 9.63281 3.84781L13.4288 9.81312L18.945 3.74562C19.0795 3.60117 19.2655 3.51555 19.4626 3.50731C19.6598 3.49907 19.8523 3.56888 19.9984 3.70161C20.1444 3.83435 20.2323 4.01929 20.2429 4.21636C20.2535 4.41343 20.186 4.60674 20.055 4.75438L14.2641 11.1247L20.1328 20.3478C20.2047 20.4613 20.2448 20.5919 20.2489 20.7262C20.253 20.8604 20.221 20.9933 20.1562 21.1109Z" fill="#59515E"/>
</svg>
