<svg width="38" height="38" viewBox="0 0 38 38" fill="none" xmlns="http://www.w3.org/2000/svg">
<g filter="url(#filter0_d_26_1055)">
<rect x="4" width="30" height="30" rx="15" fill="#FFC048"/>
<path d="M23.0564 14.712C23.2697 14.712 23.4457 14.7867 23.5844 14.936C23.7337 15.0853 23.8084 15.2667 23.8084 15.48V19.08C23.8084 19.368 23.6804 19.592 23.4244 19.752C22.9337 20.072 22.3951 20.3227 21.8084 20.504C21.2217 20.6747 20.6191 20.76 20.0004 20.76C18.9337 20.76 17.9524 20.504 17.0564 19.992C16.171 19.48 15.4724 18.7867 14.9604 17.912C14.4484 17.0267 14.1924 16.056 14.1924 15C14.1924 13.944 14.4484 12.9787 14.9604 12.104C15.4724 11.2187 16.171 10.52 17.0564 10.008C17.9524 9.49599 18.9337 9.23999 20.0004 9.23999C20.5337 9.23999 21.0457 9.29866 21.5364 9.41599C22.0377 9.53332 22.4857 9.70932 22.8804 9.94399C23.0084 10.0187 23.1044 10.1093 23.1684 10.216C23.2324 10.3227 23.2644 10.44 23.2644 10.568C23.2644 10.7813 23.1897 10.968 23.0404 11.128C22.9017 11.2773 22.731 11.352 22.5284 11.352C22.3684 11.352 22.2297 11.3147 22.1124 11.24C21.4191 10.92 20.7151 10.76 20.0004 10.76C19.2324 10.76 18.5284 10.9467 17.8884 11.32C17.259 11.6933 16.7577 12.2053 16.3844 12.856C16.0217 13.5067 15.8404 14.2213 15.8404 15C15.8404 15.7787 16.0217 16.4933 16.3844 17.144C16.7577 17.784 17.259 18.296 17.8884 18.68C18.5284 19.0533 19.2324 19.24 20.0004 19.24C20.363 19.24 20.7417 19.1973 21.1364 19.112C21.5417 19.0267 21.8884 18.9147 22.1764 18.776V16.232H20.2404C20.027 16.232 19.8457 16.1627 19.6964 16.024C19.547 15.8747 19.4724 15.6933 19.4724 15.48C19.4724 15.256 19.547 15.0747 19.6964 14.936C19.8457 14.7867 20.027 14.712 20.2404 14.712H23.0564Z" fill="white"/>
<rect x="8.25" y="4.25" width="21.5" height="21.5" rx="10.75" stroke="white" stroke-width="0.5"/>
<rect x="6.5" y="2.5" width="35" height="35" rx="12.5" stroke="white"/>
</g>
<defs>
<filter id="filter0_d_26_1055" x="0" y="0" width="38" height="38" filterUnits="userSpaceOnUse" color-interpolation-filters="sRGB">
<feFlood flood-opacity="0" result="BackgroundImageFix"/>
<feColorMatrix in="SourceAlpha" type="matrix" values="0 0 0 0 0 0 0 0 0 0 0 0 0 0 0 0 0 0 127 0" result="hardAlpha"/>
<feOffset dy="4"/>
<feGaussianBlur stdDeviation="2"/>
<feComposite in2="hardAlpha" operator="out"/>
<feColorMatrix type="matrix" values="0 0 0 0 0 0 0 0 0 0 0 0 0 0 0 0 0 0 0.25 0"/>
<feBlend mode="normal" in2="BackgroundImageFix" result="effect1_dropShadow_26_1055"/>
<feBlend mode="normal" in="SourceGraphic" in2="effect1_dropShadow_26_1055" result="shape"/>
</filter>
</defs>
</svg>
