<svg width="38" height="38" viewBox="0 0 38 38" fill="none" xmlns="http://www.w3.org/2000/svg">
<g filter="url(#filter0_d_26_1056)">
<rect x="4" width="30" height="30" rx="15" fill="#33D9B2"/>
<path d="M19.1042 20.76C18.3255 20.76 17.6375 20.6533 17.0402 20.44C16.4429 20.216 15.8722 19.8587 15.3282 19.368C15.1042 19.176 14.9922 18.9573 14.9922 18.712C14.9922 18.52 15.0669 18.3493 15.2162 18.2C15.3655 18.04 15.5415 17.96 15.7442 17.96C15.9255 17.96 16.0802 18.0187 16.2082 18.136C16.6349 18.5307 17.0722 18.824 17.5202 19.016C17.9789 19.1973 18.4962 19.288 19.0722 19.288C19.7442 19.288 20.3095 19.1333 20.7682 18.824C21.2375 18.5147 21.4722 18.1253 21.4722 17.656C21.4615 17.1013 21.2269 16.6747 20.7682 16.376C20.3202 16.0667 19.6322 15.8107 18.7042 15.608C17.6055 15.384 16.7575 15.016 16.1602 14.504C15.5735 13.992 15.2802 13.2827 15.2802 12.376C15.2802 11.7467 15.4455 11.1973 15.7762 10.728C16.1069 10.248 16.5655 9.87999 17.1522 9.62399C17.7389 9.36799 18.4002 9.23999 19.1362 9.23999C19.7975 9.23999 20.4215 9.34666 21.0082 9.55999C21.5949 9.77332 22.0695 10.056 22.4322 10.408C22.6775 10.6213 22.8002 10.8507 22.8002 11.096C22.8002 11.288 22.7255 11.4587 22.5762 11.608C22.4375 11.7573 22.2669 11.832 22.0642 11.832C21.9149 11.832 21.7922 11.7893 21.6962 11.704C21.4189 11.4267 21.0349 11.192 20.5442 11C20.0535 10.808 19.5842 10.712 19.1362 10.712C18.4215 10.712 17.8509 10.8613 17.4242 11.16C17.0082 11.448 16.8002 11.832 16.8002 12.312C16.8002 12.8347 17.0082 13.2347 17.4242 13.512C17.8509 13.7893 18.4802 14.024 19.3122 14.216C20.1442 14.3973 20.8215 14.6107 21.3442 14.856C21.8775 15.1013 22.2882 15.4427 22.5762 15.88C22.8642 16.3173 23.0082 16.888 23.0082 17.592C23.0082 18.2107 22.8322 18.76 22.4802 19.24C22.1389 19.72 21.6695 20.0933 21.0722 20.36C20.4749 20.6267 19.8189 20.76 19.1042 20.76Z" fill="white"/>
<rect x="8.25" y="4.25" width="21.5" height="21.5" rx="10.75" stroke="white" stroke-width="0.5"/>
<rect x="6.5" y="2.5" width="35" height="35" rx="12.5" stroke="white"/>
</g>
<defs>
<filter id="filter0_d_26_1056" x="0" y="0" width="38" height="38" filterUnits="userSpaceOnUse" color-interpolation-filters="sRGB">
<feFlood flood-opacity="0" result="BackgroundImageFix"/>
<feColorMatrix in="SourceAlpha" type="matrix" values="0 0 0 0 0 0 0 0 0 0 0 0 0 0 0 0 0 0 127 0" result="hardAlpha"/>
<feOffset dy="4"/>
<feGaussianBlur stdDeviation="2"/>
<feComposite in2="hardAlpha" operator="out"/>
<feColorMatrix type="matrix" values="0 0 0 0 0 0 0 0 0 0 0 0 0 0 0 0 0 0 0.25 0"/>
<feBlend mode="normal" in2="BackgroundImageFix" result="effect1_dropShadow_26_1056"/>
<feBlend mode="normal" in="SourceGraphic" in2="effect1_dropShadow_26_1056" result="shape"/>
</filter>
</defs>
</svg>
