<svg width="68" height="68" viewBox="0 0 68 68" fill="none" xmlns="http://www.w3.org/2000/svg">
<path d="M64 30C64 50.6258 40.8186 64.3528 35.2106 67.3719C34.4472 67.7829 33.5528 67.7829 32.7894 67.3719C27.1814 64.3528 4 50.6258 4 30C4 12 18.536 0 34 0C50 0 64 12 64 30Z" fill="url(#paint0_linear_249_13801)"/>
<path d="M17.7814 35.0918L33.2785 50.2923C33.6192 50.6265 33.7895 50.7936 34 50.7936C34.2105 50.7936 34.3808 50.6265 34.7215 50.2923L50.2186 35.0918C53.5656 31.8088 54.0832 26.6009 51.4477 22.7234C47.4385 16.8245 38.6463 17.1299 35.0559 23.2927L34.343 24.5165C34.1899 24.7794 33.8101 24.7794 33.657 24.5165L32.9441 23.2927C29.3537 17.1299 20.5615 16.8245 16.5523 22.7234C13.9168 26.6009 14.4344 31.8088 17.7814 35.0918Z" fill="#DFD3E5"/>
<defs>
<linearGradient id="paint0_linear_249_13801" x1="1.30942" y1="68" x2="66.0403" y2="65.9989" gradientUnits="userSpaceOnUse">
<stop stop-color="#EBDC03"/>
<stop offset="0.245" stop-color="#FF9321"/>
<stop offset="0.265" stop-color="#FF9321"/>
<stop offset="0.495" stop-color="#F24C50"/>
<stop offset="1" stop-color="#8B21B7"/>
</linearGradient>
</defs>
</svg>
