<svg width="68" height="68" viewBox="0 0 68 68" fill="none" xmlns="http://www.w3.org/2000/svg">
<path d="M55.25 31.1666C55.25 45.3843 39.6998 54.9742 35.2039 57.4498C34.4444 57.868 33.5556 57.868 32.7961 57.4498C28.3002 54.9742 12.75 45.3843 12.75 31.1666C12.75 18.4166 23.0464 9.91663 34 9.91663C45.3333 9.91663 55.25 18.4166 55.25 31.1666Z" fill="#E3D61C"/>
<path d="M23.4771 33.3938L33.2714 43.1881C33.6149 43.5316 33.7866 43.7033 34 43.7033C34.2134 43.7033 34.3851 43.5316 34.7285 43.1881L44.5229 33.3938C46.6416 31.2751 46.9703 27.9555 45.3082 25.4624C42.7163 21.5745 36.939 21.7734 34.6207 25.8305L34.2209 26.5301C34.1232 26.701 33.8768 26.701 33.7791 26.5301L33.3793 25.8305C31.061 21.7734 25.2837 21.5745 22.6917 25.4624C21.0297 27.9555 21.3584 31.2751 23.4771 33.3938Z" stroke="#222222" stroke-width="2.83333"/>
</svg>
