<svg width="30" height="30" viewBox="0 0 30 30" fill="none" xmlns="http://www.w3.org/2000/svg">
<path d="M28.8516 10.9494L23.1464 25.7394C22.8677 26.4667 22.0532 26.8282 21.3259 26.5495L15.3943 24.263L10.8649 22.5166C10.1376 22.2335 9.77615 21.4191 10.0549 20.6918L12.4589 14.4596L15.7601 5.90179C16.0388 5.17449 16.8532 4.81301 17.5805 5.09175L28.0415 9.12896C28.7688 9.40766 29.1303 10.2221 28.8516 10.9494Z" fill="#F6F0F5"/>
<path d="M16.456 14.925C17.0212 13.4591 20.6806 12.6346 20.6806 12.6346C20.6806 12.6346 22.8407 15.7031 22.2754 17.169C21.906 18.1269 20.8303 18.604 19.8723 18.2346C19.4175 18.0592 19.0724 17.7233 18.874 17.3195C18.4553 17.4872 17.9747 17.5028 17.5199 17.3275C16.5619 16.9581 16.0866 15.883 16.456 14.925Z" fill="#103635"/>
<path d="M19.3467 19.4395L17.1022 18.574C16.979 18.5265 16.9581 18.3611 17.0656 18.2845L19.0477 16.8717L19.5682 19.2495C19.5964 19.3785 19.4699 19.487 19.3467 19.4395Z" fill="#103635"/>
<path d="M15.6812 9.20412C15.8613 8.73697 17.0275 8.47424 17.0275 8.47424C17.0275 8.47424 17.7158 9.45208 17.5357 9.91923C17.418 10.2245 17.0752 10.3765 16.7699 10.2588C16.625 10.2029 16.515 10.0959 16.4518 9.96719C16.3183 10.0206 16.1652 10.0256 16.0202 9.96972C15.715 9.85201 15.5635 9.5094 15.6812 9.20412Z" fill="#103635"/>
<path d="M16.6024 10.6428L15.8872 10.367C15.8479 10.3518 15.8412 10.2991 15.8755 10.2747L16.5072 9.82446L16.673 10.5822C16.682 10.6233 16.6417 10.6579 16.6024 10.6428Z" fill="#103635"/>
<path d="M16.4485 7.67881C16.4125 7.66495 16.3886 7.64298 16.3766 7.61292C16.3648 7.58264 16.3649 7.55122 16.3774 7.5186C16.3827 7.50501 16.3937 7.48956 16.4102 7.47238L17.6617 6.17815C17.6842 6.15536 17.7121 6.13828 17.7451 6.12626C17.7782 6.11453 17.8137 6.11596 17.8513 6.13047L17.877 6.14039C17.9163 6.15554 17.944 6.17846 17.9598 6.20906C17.9754 6.23979 17.984 6.27097 17.9856 6.30304L18.0442 8.10246C18.0448 8.12625 18.0424 8.14501 18.0372 8.1586C18.0246 8.19122 18.0038 8.21466 17.9747 8.22913C17.9456 8.24339 17.9131 8.24359 17.877 8.22964C17.8238 8.20916 17.7962 8.17114 17.7943 8.11515L17.7818 7.64991L16.9082 7.31306L16.5868 7.64954C16.5476 7.68965 16.5016 7.69929 16.4485 7.67881ZM17.0805 7.13475L17.774 7.40218L17.7492 6.43333L17.0805 7.13475Z" fill="#103635"/>
<path d="M23.2247 22.4374C23.0445 22.9046 21.8784 23.1673 21.8784 23.1673C21.8784 23.1673 21.19 22.1895 21.3701 21.7223C21.4879 21.417 21.8307 21.265 22.136 21.3827C22.2809 21.4386 22.3909 21.5457 22.4541 21.6743C22.5875 21.6209 22.7407 21.6159 22.8856 21.6718C23.1909 21.7895 23.3424 22.1321 23.2247 22.4374Z" fill="#103635"/>
<path d="M22.3035 20.9987L23.0188 21.2746C23.058 21.2897 23.0647 21.3424 23.0304 21.3668L22.3988 21.817L22.2329 21.0593C22.2239 21.0182 22.2642 20.9836 22.3035 20.9987Z" fill="#103635"/>
<path d="M22.4574 23.9629C22.4933 23.9768 22.5173 23.9987 22.5292 24.0288C22.5411 24.0591 22.541 24.0905 22.5284 24.1231C22.5232 24.1367 22.5122 24.1521 22.4957 24.1693L21.2442 25.4635C21.2217 25.4863 21.1937 25.5034 21.1607 25.5154C21.1276 25.5272 21.0922 25.5257 21.0545 25.5112L21.0288 25.5013C20.9895 25.4862 20.9618 25.4632 20.946 25.4326C20.9305 25.4019 20.9219 25.3707 20.9203 25.3387L20.8617 23.5392C20.861 23.5154 20.8634 23.4967 20.8687 23.4831C20.8813 23.4505 20.9021 23.427 20.9312 23.4126C20.9602 23.3983 20.9927 23.3981 21.0289 23.4121C21.082 23.4325 21.1096 23.4706 21.1116 23.5266L21.1241 23.9918L21.9976 24.3286L22.319 23.9922C22.3583 23.9521 22.4043 23.9424 22.4574 23.9629ZM21.8253 24.5069L21.1318 24.2395L21.1567 25.2084L21.8253 24.5069Z" fill="#103635"/>
<g opacity="0.1">
<path d="M16.0519 21.0967C16.0519 21.5366 16.017 21.9808 15.943 22.4119C15.8385 23.0565 15.6556 23.6749 15.3943 24.2629L10.8649 22.5165C10.1376 22.2334 9.77615 21.419 10.0549 20.6917L12.4589 14.4595C12.546 14.5117 12.6331 14.5727 12.7202 14.6337C13.4388 15.1432 14.0659 15.7704 14.5842 16.4933C15.281 17.4689 15.747 18.6055 15.943 19.7814C16.017 20.2126 16.0519 20.6568 16.0519 21.0967Z" fill="black"/>
</g>
<path d="M15.1822 21.0962C15.1822 21.4958 15.1491 21.8865 15.0851 22.2684C14.9062 23.3456 14.4824 24.339 13.8754 25.1933C13.4184 25.8312 12.8555 26.3941 12.2154 26.8511C11.3611 27.4603 10.3677 27.8842 9.29047 28.063C8.90857 28.127 8.51786 28.1601 8.11831 28.1601C7.71876 28.1601 7.32804 28.127 6.94615 28.063C5.86891 27.8842 4.87334 27.4603 4.01906 26.8511C3.37889 26.3941 2.8182 25.8312 2.36126 25.1933C1.7542 24.339 1.33038 23.3456 1.15157 22.2684C1.08755 21.8865 1.05444 21.4958 1.05444 21.0962C1.05444 20.6967 1.08755 20.306 1.15157 19.9241C1.33038 18.8468 1.7542 17.8535 2.36126 16.9992C2.8182 16.3612 3.37889 15.7983 4.01906 15.3414C4.87334 14.7321 5.86891 14.3083 6.94615 14.1295C7.32804 14.0655 7.71876 14.0323 8.11831 14.0323C8.51786 14.0323 8.90857 14.0655 9.29047 14.1295C10.3677 14.3083 11.3611 14.7321 12.2154 15.3414C12.8555 15.7983 13.4184 16.3612 13.8754 16.9992C14.4824 17.8535 14.9062 18.8468 15.0851 19.9241C15.1491 20.306 15.1822 20.6967 15.1822 21.0962Z" fill="#8553E0"/>
<path d="M8.11823 26.4559C7.81779 26.4559 7.51788 26.4313 7.22712 26.3824C6.42028 26.2484 5.67572 25.9399 5.0089 25.4643C4.52343 25.1178 4.09711 24.691 3.74328 24.1972C3.27431 23.5374 2.96576 22.7923 2.83307 21.9931C2.78335 21.6958 2.75848 21.3956 2.75848 21.0962C2.75848 20.7968 2.78335 20.4969 2.83229 20.2051C2.96576 19.4003 3.27431 18.6553 3.75061 17.9853C4.09711 17.5011 4.52343 17.0746 5.01021 16.727C5.67572 16.2525 6.42028 15.944 7.22162 15.811C7.51892 15.7613 7.81884 15.7365 8.11823 15.7365C8.41762 15.7365 8.7178 15.7613 9.00986 15.8103C9.81435 15.9437 10.5579 16.2523 11.2252 16.7281C11.7143 17.0774 12.1412 17.5038 12.4924 17.9945C12.9622 18.6553 13.271 19.4006 13.4037 20.2001C13.4534 20.4958 13.478 20.7958 13.478 21.0962C13.478 21.3966 13.4531 21.6966 13.4044 21.9878C13.271 22.7921 12.9622 23.5374 12.4858 24.2074C12.1414 24.6886 11.7143 25.115 11.2234 25.4656C10.5579 25.9401 9.81409 26.2489 9.01458 26.3816C8.71858 26.4311 8.41867 26.4559 8.11823 26.4559Z" fill="#7240CF"/>
<path d="M9.29049 14.1295L9.0747 14.7183C9.03326 14.8313 8.92566 14.9065 8.80525 14.9065H7.42972C7.30904 14.9065 7.20126 14.831 7.16002 14.7176L6.94617 14.1295C7.32805 14.0655 7.71878 14.0323 8.11833 14.0323C8.51788 14.0323 8.90859 14.0655 9.29049 14.1295Z" fill="#F6F0F5"/>
<path d="M4.22754 16.2341L3.25369 17.2063C3.16847 17.2913 3.03921 17.3142 2.93001 17.2634L2.36127 16.9991C2.81821 16.3612 3.3789 15.7983 4.01907 15.3413L4.28475 15.9095C4.33594 16.0189 4.31307 16.1487 4.22754 16.2341Z" fill="#F6F0F5"/>
<path d="M1.92859 20.4076V21.7848C1.92859 21.9055 1.8531 22.0133 1.73969 22.0545L1.15157 22.2684C1.08755 21.8865 1.05444 21.4958 1.05444 21.0962C1.05444 20.6967 1.08755 20.306 1.15157 19.9241L1.73969 20.1379C1.8531 20.1792 1.92859 20.287 1.92859 20.4076Z" fill="#F6F0F5"/>
<path d="M4.28475 26.2829L4.01907 26.851C3.3789 26.3941 2.81821 25.8312 2.36127 25.1932L2.93001 24.929C3.03921 24.8782 3.16847 24.901 3.25368 24.9861L4.22754 25.9583C4.31307 26.0436 4.33594 26.1735 4.28475 26.2829Z" fill="#F6F0F5"/>
<path d="M9.29049 28.0629C8.90859 28.1269 8.51788 28.16 8.11833 28.16C7.71878 28.16 7.32805 28.1269 6.94617 28.0629L7.16002 27.4748C7.20126 27.3614 7.30904 27.2859 7.42972 27.2859H8.80525C8.92566 27.2859 9.03326 27.3611 9.0747 27.4741L9.29049 28.0629Z" fill="#F6F0F5"/>
<path d="M13.8754 25.1933C13.4185 25.8313 12.8555 26.3942 12.2154 26.8511L11.9512 26.2826C11.9004 26.1733 11.9233 26.0439 12.0085 25.9587L12.9809 24.9863C13.0661 24.9012 13.1953 24.8782 13.3045 24.9288L13.8754 25.1933Z" fill="#F6F0F5"/>
<path d="M15.1822 21.0962C15.1822 21.4958 15.1491 21.8865 15.0851 22.2684L14.4969 22.0545C14.3835 22.0133 14.308 21.9055 14.308 21.7848V20.4076C14.308 20.287 14.3835 20.1792 14.4969 20.1379L15.0851 19.9241C15.1491 20.306 15.1822 20.6967 15.1822 21.0962Z" fill="#F6F0F5"/>
<path d="M13.8754 16.9991L13.3045 17.2636C13.1953 17.3142 13.0661 17.2913 12.9809 17.2062L12.0085 16.2337C11.9233 16.1485 11.9004 16.0192 11.9512 15.9099L12.2154 15.3413C12.8555 15.7983 13.4185 16.3612 13.8754 16.9991Z" fill="#F6F0F5"/>
<path d="M9.88397 22.3906C9.88397 23.202 9.33515 23.882 8.58947 24.0908V24.4309C8.58947 24.6933 8.38069 24.9021 8.11821 24.9021C7.85573 24.9021 7.64691 24.6933 7.64691 24.4309V24.0908C6.90123 23.882 6.35242 23.202 6.35242 22.3906C6.35242 22.1282 6.56123 21.9134 6.82368 21.9134C7.08616 21.9134 7.30094 22.1282 7.30094 22.3906C7.30094 22.838 7.66483 23.2079 8.11821 23.2079C8.57159 23.2079 8.93548 22.838 8.93548 22.3906C8.93548 21.9373 8.57159 21.5674 8.11821 21.5674C7.14583 21.5674 6.35242 20.78 6.35242 19.8016C6.35242 18.9903 6.90123 18.3103 7.64691 18.1015V17.7614C7.64691 17.499 7.85573 17.2902 8.11821 17.2902C8.38069 17.2902 8.58947 17.499 8.58947 17.7614V18.1015C9.33515 18.3103 9.88397 18.9903 9.88397 19.8016C9.88397 20.0641 9.67519 20.2789 9.41271 20.2789C9.15022 20.2789 8.93548 20.0641 8.93548 19.8016C8.93548 19.3542 8.57159 18.9844 8.11821 18.9844C7.66483 18.9844 7.30094 19.3542 7.30094 19.8016C7.30094 20.255 7.66483 20.6249 8.11821 20.6249C9.09058 20.6249 9.88397 21.4123 9.88397 22.3906Z" fill="white"/>
<path d="M8.82106 12.1229L3.65949 10.3962C2.74707 10.091 2.25484 9.10395 2.56006 8.19154L4.28669 3.02997C4.5919 2.11756 5.57898 1.62533 6.4914 1.93054L11.653 3.65717C12.5654 3.96239 13.0576 4.94947 12.7524 5.86188L11.0258 11.0235C10.7206 11.9359 9.73347 12.4281 8.82106 12.1229Z" fill="#EE3831"/>
<g opacity="0.1">
<path d="M12.8169 5.66805L10.9608 11.2166C10.6914 12.022 9.82011 12.4565 9.01475 12.1871L3.46617 10.331C3.02507 10.1834 2.69719 9.85486 2.53351 9.4596C6.73345 10.8645 11.2771 8.59876 12.6821 4.39881C12.8993 4.76737 12.9644 5.22695 12.8169 5.66805Z" fill="black"/>
</g>
<path d="M6.21639 5.29606C6.72901 5.29606 7.14457 4.8805 7.14457 4.36788C7.14457 3.85526 6.72901 3.4397 6.21639 3.4397C5.70377 3.4397 5.28821 3.85526 5.28821 4.36788C5.28821 4.8805 5.70377 5.29606 6.21639 5.29606Z" fill="#F6F0F5"/>
<path d="M10.406 6.69743C10.9186 6.69743 11.3341 6.28187 11.3341 5.76925C11.3341 5.25663 10.9186 4.84106 10.406 4.84106C9.89334 4.84106 9.47778 5.25663 9.47778 5.76925C9.47778 6.28187 9.89334 6.69743 10.406 6.69743Z" fill="#F6F0F5"/>
<path d="M4.90639 9.21256C5.41901 9.21256 5.83457 8.797 5.83457 8.28438C5.83457 7.77176 5.41901 7.3562 4.90639 7.3562C4.39377 7.3562 3.97821 7.77176 3.97821 8.28438C3.97821 8.797 4.39377 9.21256 4.90639 9.21256Z" fill="#F6F0F5"/>
<path d="M9.09597 10.6138C9.60859 10.6138 10.0241 10.1982 10.0241 9.68563C10.0241 9.17301 9.60859 8.75745 9.09597 8.75745C8.58335 8.75745 8.16779 9.17301 8.16779 9.68563C8.16779 10.1982 8.58335 10.6138 9.09597 10.6138Z" fill="#F6F0F5"/>
<path d="M7.65639 7.95512C8.16901 7.95512 8.58457 7.53956 8.58457 7.02694C8.58457 6.51432 8.16901 6.09875 7.65639 6.09875C7.14377 6.09875 6.72821 6.51432 6.72821 7.02694C6.72821 7.53956 7.14377 7.95512 7.65639 7.95512Z" fill="#F6F0F5"/>
</svg>
