<svg width="30" height="30" viewBox="0 0 30 30" fill="none" xmlns="http://www.w3.org/2000/svg">
<g clip-path="url(#clip0_306_7371)">
<path d="M24.0706 15.5678C24.063 15.5711 24.0553 15.5743 24.0477 15.5776C22.9537 16.0397 21.7798 15.0991 21.9595 13.9252L22.1163 12.9007L20.3775 14.4089C19.6943 15.0014 18.922 15.1984 18.1889 15.0447C17.5096 14.6724 16.9118 14.2117 16.4511 13.698C16.4511 13.698 15.916 13.0011 15.8603 12.8754L15 10.9329L14.1397 12.8753C14.084 13.001 13.5489 13.698 13.5489 13.698C13.0882 14.2117 12.4904 14.6724 11.8111 15.0447C11.078 15.1984 10.3057 15.0014 9.62251 14.4089L7.88369 12.9006L8.04057 13.9251C8.22028 15.099 7.04634 16.0397 5.95234 15.5775C5.94469 15.5743 5.93699 15.571 5.9294 15.5677L2.99634 14.3114L5.17769 21.3473H9.17693H20.8232H24.8224L27.0038 14.3114L24.0706 15.5678Z" fill="url(#paint0_linear_306_7371)"/>
<path d="M25.0605 15.4269L28.3136 13.4769L25.8942 24.3972H4.10575L1.68634 13.4769L4.93946 15.4269C7.82928 17.159 11.5726 16.2809 13.3906 13.4442L15 10.9329L16.6095 13.4442C18.4274 16.2809 22.1707 17.159 25.0605 15.4269Z" fill="url(#paint1_linear_306_7371)"/>
<path d="M6.19966 16.6048L3.44477 14.9535C3.2566 14.8407 3.02477 15.0077 3.07224 15.2219L5.10501 24.3972H25.8943L27.8198 15.7063L26.3208 16.6048C23.632 18.2165 19.9308 17.5672 18.0027 15.1842C17.3567 14.7314 16.0076 12.505 16.0076 12.505L14.6508 14.6221C12.8328 17.4587 9.08954 18.3369 6.19966 16.6048Z" fill="url(#paint2_linear_306_7371)"/>
<path d="M28.3136 13.477L25.0605 15.4269C22.1706 17.1591 18.4274 16.2809 16.6094 13.4442L14.9999 10.9329V24.3972H25.8942L28.3136 13.477Z" fill="url(#paint3_linear_306_7371)"/>
<path d="M16.6864 10.33C16.6864 11.2614 15.9314 12.0164 15 12.0164C14.0687 12.0164 13.3137 11.2614 13.3137 10.33C13.3137 9.39868 14.0687 8.64368 15 8.64368C15.9314 8.64368 16.6864 9.39868 16.6864 10.33Z" fill="url(#paint4_radial_306_7371)"/>
<path d="M15 11.8353C15.8313 11.8353 16.5053 11.1614 16.5053 10.33C16.5053 9.49865 15.8313 8.82471 15 8.82471C14.1686 8.82471 13.4947 9.49865 13.4947 10.33C13.4947 11.1614 14.1686 11.8353 15 11.8353Z" fill="url(#paint5_linear_306_7371)"/>
<path d="M15.7543 8.82166C15.8681 9.04866 15.9322 9.30483 15.9322 9.57601C15.9322 10.5074 15.1772 11.2624 14.2458 11.2624C13.9746 11.2624 13.7185 11.1982 13.4915 11.0845C13.7683 11.6371 14.3398 12.0165 14.9999 12.0165C15.9313 12.0165 16.6863 11.2615 16.6863 10.3302C16.6863 9.67001 16.3069 9.09854 15.7543 8.82166Z" fill="url(#paint6_linear_306_7371)"/>
<path d="M16.1402 9.6083C16.1402 10.041 15.6297 10.3918 15 10.3918C14.3702 10.3918 13.8597 10.041 13.8597 9.6083C13.8597 9.17553 14.3702 8.82471 15 8.82471C15.6297 8.82477 16.1402 9.17553 16.1402 9.6083Z" fill="url(#paint7_linear_306_7371)"/>
<path d="M1.68635 15.2082C2.6177 15.2082 3.37271 14.4531 3.37271 13.5218C3.37271 12.5905 2.6177 11.8354 1.68635 11.8354C0.755006 11.8354 0 12.5905 0 13.5218C0 14.4531 0.755006 15.2082 1.68635 15.2082Z" fill="url(#paint8_radial_306_7371)"/>
<path d="M1.68632 15.0271C2.51768 15.0271 3.19162 14.3531 3.19162 13.5218C3.19162 12.6904 2.51768 12.0165 1.68632 12.0165C0.854973 12.0165 0.18103 12.6904 0.18103 13.5218C0.18103 14.3531 0.854973 15.0271 1.68632 15.0271Z" fill="url(#paint9_linear_306_7371)"/>
<path d="M2.44068 12.0132C2.55444 12.2402 2.6185 12.4964 2.6185 12.7675C2.6185 13.6989 1.8635 14.4539 0.932149 14.4539C0.660972 14.4539 0.404795 14.3898 0.177795 14.2761C0.454678 14.8287 1.02609 15.2081 1.68627 15.2081C2.61762 15.2081 3.37262 14.4531 3.37262 13.5217C3.37268 12.8615 2.99327 12.2901 2.44068 12.0132Z" fill="url(#paint10_linear_306_7371)"/>
<path d="M2.82661 12.8001C2.82661 13.2328 2.31608 13.5836 1.68638 13.5836C1.05667 13.5836 0.546143 13.2328 0.546143 12.8001C0.546143 12.3673 1.05667 12.0165 1.68638 12.0165C2.31608 12.0165 2.82661 12.3673 2.82661 12.8001Z" fill="url(#paint11_linear_306_7371)"/>
<path d="M28.3137 15.2082C29.245 15.2082 30 14.4531 30 13.5218C30 12.5905 29.245 11.8354 28.3137 11.8354C27.3823 11.8354 26.6273 12.5905 26.6273 13.5218C26.6273 14.4531 27.3823 15.2082 28.3137 15.2082Z" fill="url(#paint12_radial_306_7371)"/>
<path d="M28.3136 15.0271C29.145 15.0271 29.8189 14.3531 29.8189 13.5218C29.8189 12.6904 29.145 12.0165 28.3136 12.0165C27.4823 12.0165 26.8083 12.6904 26.8083 13.5218C26.8083 14.3531 27.4823 15.0271 28.3136 15.0271Z" fill="url(#paint13_linear_306_7371)"/>
<path d="M29.068 12.0132C29.1818 12.2402 29.2458 12.4964 29.2458 12.7675C29.2458 13.6989 28.4908 14.4539 27.5595 14.4539C27.2883 14.4539 27.0321 14.3898 26.8051 14.2761C27.082 14.8287 27.6535 15.2081 28.3136 15.2081C29.245 15.2081 30 14.4531 30 13.5217C30 12.8615 29.6206 12.2901 29.068 12.0132Z" fill="url(#paint14_linear_306_7371)"/>
<path d="M29.4539 12.8001C29.4539 13.2328 28.9434 13.5836 28.3137 13.5836C27.6839 13.5836 27.1735 13.2328 27.1735 12.8001C27.1735 12.3673 27.684 12.0165 28.3137 12.0165C28.9434 12.0165 29.4539 12.3673 29.4539 12.8001Z" fill="url(#paint15_linear_306_7371)"/>
<path d="M7.97255 14.4865C8.90389 14.4865 9.6589 13.7315 9.6589 12.8001C9.6589 11.8688 8.90389 11.1138 7.97255 11.1138C7.0412 11.1138 6.28619 11.8688 6.28619 12.8001C6.28619 13.7315 7.0412 14.4865 7.97255 14.4865Z" fill="url(#paint16_radial_306_7371)"/>
<path d="M7.97258 14.3053C8.80393 14.3053 9.47787 13.6313 9.47787 12.8C9.47787 11.9686 8.80393 11.2947 7.97258 11.2947C7.14123 11.2947 6.46729 11.9686 6.46729 12.8C6.46729 13.6313 7.14123 14.3053 7.97258 14.3053Z" fill="url(#paint17_linear_306_7371)"/>
<path d="M8.72693 11.2916C8.8407 11.5186 8.90476 11.7748 8.90476 12.046C8.90476 12.9773 8.14976 13.7323 7.2184 13.7323C6.94723 13.7323 6.69105 13.6682 6.46405 13.5545C6.74093 14.1071 7.3124 14.4865 7.97258 14.4865C8.90393 14.4865 9.65893 13.7315 9.65893 12.8002C9.65893 12.14 9.27952 11.5685 8.72693 11.2916Z" fill="url(#paint18_linear_306_7371)"/>
<path d="M9.11281 12.0783C9.11281 12.511 8.60228 12.8618 7.97257 12.8618C7.34281 12.8618 6.83234 12.511 6.83234 12.0783C6.83234 11.6455 7.34287 11.2947 7.97257 11.2947C8.60234 11.2947 9.11281 11.6456 9.11281 12.0783Z" fill="url(#paint19_linear_306_7371)"/>
<path d="M22.0274 14.4865C22.9588 14.4865 23.7138 13.7315 23.7138 12.8001C23.7138 11.8688 22.9588 11.1138 22.0274 11.1138C21.0961 11.1138 20.3411 11.8688 20.3411 12.8001C20.3411 13.7315 21.0961 14.4865 22.0274 14.4865Z" fill="url(#paint20_radial_306_7371)"/>
<path d="M22.0274 14.3053C22.8587 14.3053 23.5327 13.6313 23.5327 12.8C23.5327 11.9686 22.8587 11.2947 22.0274 11.2947C21.196 11.2947 20.5221 11.9686 20.5221 12.8C20.5221 13.6313 21.196 14.3053 22.0274 14.3053Z" fill="url(#paint21_linear_306_7371)"/>
<path d="M22.7817 11.2916C22.8955 11.5186 22.9596 11.7748 22.9596 12.046C22.9596 12.9773 22.2046 13.7323 21.2732 13.7323C21.002 13.7323 20.7459 13.6682 20.5189 13.5545C20.7957 14.1071 21.3672 14.4865 22.0274 14.4865C22.9587 14.4865 23.7137 13.7315 23.7137 12.8002C23.7137 12.14 23.3343 11.5685 22.7817 11.2916Z" fill="url(#paint22_linear_306_7371)"/>
<path d="M23.1677 12.0783C23.1677 12.511 22.6571 12.8618 22.0274 12.8618C21.3977 12.8618 20.8872 12.511 20.8872 12.0783C20.8872 11.6455 21.3977 11.2947 22.0274 11.2947C22.6572 11.2947 23.1677 11.6456 23.1677 12.0783Z" fill="url(#paint23_linear_306_7371)"/>
<path d="M3.51404 23.2496H26.4859V26.4238H3.51404V23.2496Z" fill="url(#paint24_linear_306_7371)"/>
<path d="M26.4569 27.37H3.54314C3.14661 27.37 2.8252 27.0485 2.8252 26.652C2.8252 26.2555 3.14661 25.9341 3.54314 25.9341H26.457C26.8535 25.9341 27.1749 26.2556 27.1749 26.652C27.1748 27.0485 26.8534 27.37 26.4569 27.37Z" fill="url(#paint25_linear_306_7371)"/>
<path d="M26.4569 23.7509H3.54314C3.14661 23.7509 2.8252 23.4295 2.8252 23.033C2.8252 22.6365 3.14661 22.3151 3.54314 22.3151H26.457C26.8535 22.3151 27.1749 22.6365 27.1749 23.033C27.1748 23.4295 26.8534 23.7509 26.4569 23.7509Z" fill="url(#paint26_linear_306_7371)"/>
<path d="M14.6325 15.0337L12.5922 17.9824C12.4863 18.1354 12.4863 18.338 12.5922 18.491L14.6325 21.4398C14.8102 21.6967 15.1898 21.6967 15.3675 21.4398L17.4078 18.491C17.5136 18.338 17.5136 18.1354 17.4078 17.9824L15.3675 15.0337C15.1898 14.7769 14.8102 14.7769 14.6325 15.0337Z" fill="url(#paint27_linear_306_7371)"/>
<path d="M14.6781 15.4313L12.8911 18.014C12.7984 18.148 12.7984 18.3255 12.8911 18.4595L14.6781 21.0422C14.8337 21.2671 15.1662 21.2671 15.3219 21.0422L17.1089 18.4595C17.2016 18.3255 17.2016 18.1481 17.1089 18.014L15.3219 15.4313C15.1663 15.2063 14.8337 15.2063 14.6781 15.4313Z" fill="url(#paint28_linear_306_7371)"/>
<path d="M15.5001 15.6889C15.371 15.5023 15.0942 15.4777 14.949 15.6521C14.9414 15.6612 14.9342 15.6707 14.9274 15.6807L13.2645 18.084C13.0971 18.326 13.0971 18.6463 13.2645 18.8883L14.851 21.1813C15.013 21.2476 15.2117 21.2016 15.3219 21.0423L17.1089 18.4596C17.2016 18.3256 17.2016 18.1482 17.1089 18.0141L15.5001 15.6889Z" fill="url(#paint29_linear_306_7371)"/>
<path d="M15.322 15.4314C15.2332 15.3032 15.087 15.2483 14.9489 15.2663V21.2074C15.0871 21.2255 15.2333 21.1706 15.322 21.0423L17.109 18.4596C17.2017 18.3256 17.2017 18.1482 17.109 18.0142L15.322 15.4314Z" fill="url(#paint30_linear_306_7371)"/>
<path d="M14.6781 21.0422C14.8337 21.2672 15.1662 21.2672 15.3219 21.0422L17.1089 18.4595C17.1552 18.3925 17.1784 18.3146 17.1784 18.2368H12.8215C12.8215 18.3147 12.8447 18.3925 12.8911 18.4595L14.6781 21.0422Z" fill="url(#paint31_linear_306_7371)"/>
<path d="M10.3195 16.8487L8.84047 18.9864C8.76371 19.0973 8.76371 19.2442 8.84047 19.3551L10.3195 21.4927C10.4484 21.6789 10.7236 21.6789 10.8524 21.4927L12.3315 19.3551C12.4082 19.2442 12.4082 19.0973 12.3315 18.9864L10.8524 16.8487C10.7236 16.6626 10.4484 16.6626 10.3195 16.8487Z" fill="url(#paint32_linear_306_7371)"/>
<path d="M10.3526 17.137L9.0572 19.0093C8.98997 19.1065 8.98997 19.235 9.0572 19.3322L10.3526 21.2045C10.4654 21.3676 10.7065 21.3676 10.8193 21.2045L12.1147 19.3322C12.182 19.2351 12.182 19.1065 12.1147 19.0093L10.8193 17.137C10.7065 16.9739 10.4654 16.9739 10.3526 17.137Z" fill="url(#paint33_linear_306_7371)"/>
<path d="M10.9485 17.3237C10.8549 17.1884 10.6542 17.1707 10.549 17.2971C10.5435 17.3037 10.5383 17.3105 10.5333 17.3178L9.32783 19.0601C9.20648 19.2354 9.20648 19.4677 9.32783 19.6431L10.4779 21.3054C10.5954 21.3534 10.7394 21.3201 10.8193 21.2047L12.1148 19.3324C12.182 19.2352 12.182 19.1066 12.1148 19.0094L10.9485 17.3237Z" fill="url(#paint34_linear_306_7371)"/>
<path d="M10.8194 17.1373C10.7551 17.0443 10.6491 17.0045 10.5489 17.0176V21.3245C10.6491 21.3376 10.755 21.2978 10.8194 21.2048L12.1148 19.3325C12.182 19.2354 12.182 19.1067 12.1148 19.0096L10.8194 17.1373Z" fill="url(#paint35_linear_306_7371)"/>
<path d="M10.3527 21.2045C10.4655 21.3676 10.7065 21.3676 10.8194 21.2045L12.1148 19.3322C12.1484 19.2837 12.1652 19.2272 12.1652 19.1708H9.00677C9.00677 19.2272 9.0236 19.2837 9.05719 19.3322L10.3527 21.2045Z" fill="url(#paint36_linear_306_7371)"/>
<path d="M19.1476 16.8487L17.6685 18.9864C17.5918 19.0973 17.5918 19.2442 17.6685 19.3551L19.1476 21.4927C19.2764 21.6789 19.5517 21.6789 19.6805 21.4927L21.1595 19.3551C21.2363 19.2442 21.2363 19.0973 21.1595 18.9864L19.6805 16.8487C19.5517 16.6626 19.2764 16.6626 19.1476 16.8487Z" fill="url(#paint37_linear_306_7371)"/>
<path d="M19.1807 17.137L17.8853 19.0093C17.818 19.1065 17.818 19.235 17.8853 19.3322L19.1807 21.2045C19.2935 21.3676 19.5346 21.3676 19.6474 21.2045L20.9428 19.3322C21.01 19.2351 21.01 19.1065 20.9428 19.0093L19.6474 17.137C19.5346 16.9739 19.2935 16.9739 19.1807 17.137Z" fill="url(#paint38_linear_306_7371)"/>
<path d="M19.7765 17.3237C19.683 17.1884 19.4823 17.1707 19.3771 17.2971C19.3716 17.3037 19.3664 17.3105 19.3614 17.3178L18.1559 19.0601C18.0345 19.2354 18.0345 19.4677 18.1559 19.6431L19.306 21.3054C19.4234 21.3534 19.5675 21.3201 19.6474 21.2047L20.9428 19.3324C21.01 19.2352 21.01 19.1066 20.9428 19.0094L19.7765 17.3237Z" fill="url(#paint39_linear_306_7371)"/>
<path d="M19.6473 17.1373C19.5829 17.0443 19.477 17.0045 19.3768 17.0176V21.3245C19.4769 21.3376 19.5829 21.2978 19.6473 21.2048L20.9427 19.3325C21.0099 19.2354 21.0099 19.1067 20.9427 19.0096L19.6473 17.1373Z" fill="url(#paint40_linear_306_7371)"/>
<path d="M19.1807 21.2045C19.2935 21.3676 19.5345 21.3676 19.6474 21.2045L20.9428 19.3322C20.9764 19.2837 20.9932 19.2272 20.9932 19.1708H17.8348C17.8348 19.2272 17.8516 19.2837 17.8852 19.3322L19.1807 21.2045Z" fill="url(#paint41_linear_306_7371)"/>
<path d="M4.92688 25.5952C5.29984 25.5952 5.60218 25.2929 5.60218 24.9199C5.60218 24.547 5.29984 24.2446 4.92688 24.2446C4.55393 24.2446 4.25159 24.547 4.25159 24.9199C4.25159 25.2929 4.55393 25.5952 4.92688 25.5952Z" fill="url(#paint42_radial_306_7371)"/>
<path d="M4.92686 25.5229C5.25976 25.5229 5.52963 25.253 5.52963 24.9201C5.52963 24.5873 5.25976 24.3174 4.92686 24.3174C4.59396 24.3174 4.3241 24.5873 4.3241 24.9201C4.3241 25.253 4.59396 25.5229 4.92686 25.5229Z" fill="url(#paint43_linear_306_7371)"/>
<path d="M5.22893 24.3159C5.27446 24.4068 5.30017 24.5094 5.30017 24.618C5.30017 24.9909 4.99782 25.2933 4.62487 25.2933C4.51629 25.2933 4.4137 25.2676 4.32281 25.222C4.4337 25.4433 4.66252 25.5953 4.92687 25.5953C5.29982 25.5953 5.60217 25.2929 5.60217 24.92C5.60217 24.6556 5.45023 24.4268 5.22893 24.3159Z" fill="url(#paint44_linear_306_7371)"/>
<path d="M5.38345 24.6311C5.38345 24.8044 5.17904 24.9449 4.92686 24.9449C4.67469 24.9449 4.47028 24.8044 4.47028 24.6311C4.47028 24.4579 4.67469 24.3174 4.92686 24.3174C5.17904 24.3174 5.38345 24.4579 5.38345 24.6311Z" fill="url(#paint45_linear_306_7371)"/>
<path d="M7.44519 25.5952C7.81815 25.5952 8.12049 25.2929 8.12049 24.9199C8.12049 24.547 7.81815 24.2446 7.44519 24.2446C7.07224 24.2446 6.7699 24.547 6.7699 24.9199C6.7699 25.2929 7.07224 25.5952 7.44519 25.5952Z" fill="url(#paint46_radial_306_7371)"/>
<path d="M7.44511 25.5229C7.77801 25.5229 8.04788 25.253 8.04788 24.9201C8.04788 24.5873 7.77801 24.3174 7.44511 24.3174C7.11221 24.3174 6.84235 24.5873 6.84235 24.9201C6.84235 25.253 7.11221 25.5229 7.44511 25.5229Z" fill="url(#paint47_linear_306_7371)"/>
<path d="M7.74724 24.3159C7.79277 24.4068 7.81848 24.5094 7.81848 24.618C7.81848 24.9909 7.51613 25.2933 7.14318 25.2933C7.0346 25.2933 6.93201 25.2676 6.84113 25.222C6.95201 25.4433 7.18083 25.5953 7.44518 25.5953C7.81813 25.5953 8.12048 25.2929 8.12048 24.92C8.12048 24.6556 7.96854 24.4268 7.74724 24.3159Z" fill="url(#paint48_linear_306_7371)"/>
<path d="M7.90182 24.6311C7.90182 24.8044 7.69741 24.9449 7.44524 24.9449C7.19306 24.9449 6.98865 24.8044 6.98865 24.6311C6.98865 24.4579 7.19306 24.3174 7.44524 24.3174C7.69741 24.3174 7.90182 24.4579 7.90182 24.6311Z" fill="url(#paint49_linear_306_7371)"/>
<path d="M9.9635 25.5952C10.3365 25.5952 10.6388 25.2929 10.6388 24.9199C10.6388 24.547 10.3365 24.2446 9.9635 24.2446C9.59055 24.2446 9.28821 24.547 9.28821 24.9199C9.28821 25.2929 9.59055 25.5952 9.9635 25.5952Z" fill="url(#paint50_radial_306_7371)"/>
<path d="M9.96354 25.5229C10.2964 25.5229 10.5663 25.253 10.5663 24.9201C10.5663 24.5873 10.2964 24.3174 9.96354 24.3174C9.63065 24.3174 9.36078 24.5873 9.36078 24.9201C9.36078 25.253 9.63065 25.5229 9.96354 25.5229Z" fill="url(#paint51_linear_306_7371)"/>
<path d="M10.2655 24.3159C10.311 24.4068 10.3367 24.5094 10.3367 24.618C10.3367 24.9909 10.0344 25.2933 9.66143 25.2933C9.55285 25.2933 9.45026 25.2676 9.35938 25.222C9.47026 25.4433 9.69908 25.5953 9.96343 25.5953C10.3364 25.5953 10.6387 25.2929 10.6387 24.92C10.6387 24.6556 10.4868 24.4268 10.2655 24.3159Z" fill="url(#paint52_linear_306_7371)"/>
<path d="M10.42 24.6311C10.42 24.8044 10.2156 24.9449 9.96342 24.9449C9.71125 24.9449 9.50684 24.8044 9.50684 24.6311C9.50684 24.4579 9.71125 24.3174 9.96342 24.3174C10.2155 24.3174 10.42 24.4579 10.42 24.6311Z" fill="url(#paint53_linear_306_7371)"/>
<path d="M12.4817 25.5952C12.8546 25.5952 13.157 25.2929 13.157 24.9199C13.157 24.547 12.8546 24.2446 12.4817 24.2446C12.1087 24.2446 11.8064 24.547 11.8064 24.9199C11.8064 25.2929 12.1087 25.5952 12.4817 25.5952Z" fill="url(#paint54_radial_306_7371)"/>
<path d="M12.4817 25.5229C12.8146 25.5229 13.0844 25.253 13.0844 24.9201C13.0844 24.5873 12.8146 24.3174 12.4817 24.3174C12.1488 24.3174 11.8789 24.5873 11.8789 24.9201C11.8789 25.253 12.1488 25.5229 12.4817 25.5229Z" fill="url(#paint55_linear_306_7371)"/>
<path d="M12.7838 24.3159C12.8293 24.4068 12.855 24.5094 12.855 24.618C12.855 24.9909 12.5527 25.2933 12.1797 25.2933C12.0712 25.2933 11.9686 25.2676 11.8777 25.222C11.9886 25.4433 12.2174 25.5953 12.4817 25.5953C12.8547 25.5953 13.157 25.2929 13.157 24.92C13.157 24.6556 13.005 24.4268 12.7838 24.3159Z" fill="url(#paint56_linear_306_7371)"/>
<path d="M12.9384 24.6311C12.9384 24.8044 12.734 24.9449 12.4818 24.9449C12.2296 24.9449 12.0252 24.8044 12.0252 24.6311C12.0252 24.4579 12.2296 24.3174 12.4818 24.3174C12.7339 24.3174 12.9384 24.4579 12.9384 24.6311Z" fill="url(#paint57_linear_306_7371)"/>
<path d="M15.6754 24.9202C15.6754 25.2931 15.373 25.5955 15.0001 25.5955C14.6271 25.5955 14.3248 25.2931 14.3248 24.9202C14.3248 24.5472 14.6271 24.2449 15.0001 24.2449C15.373 24.2449 15.6754 24.5472 15.6754 24.9202Z" fill="url(#paint58_radial_306_7371)"/>
<path d="M15.6027 24.9201C15.6027 25.253 15.3329 25.5229 15 25.5229C14.6671 25.5229 14.3972 25.253 14.3972 24.9201C14.3972 24.5873 14.6671 24.3174 15 24.3174C15.3329 24.3173 15.6027 24.5872 15.6027 24.9201Z" fill="url(#paint59_linear_306_7371)"/>
<path d="M15.3021 24.3159C15.3476 24.4068 15.3733 24.5094 15.3733 24.618C15.3733 24.9909 15.0709 25.2933 14.698 25.2933C14.5894 25.2933 14.4868 25.2676 14.3959 25.222C14.5068 25.4433 14.7356 25.5953 15 25.5953C15.3729 25.5953 15.6753 25.2929 15.6753 24.92C15.6753 24.6556 15.5233 24.4268 15.3021 24.3159Z" fill="url(#paint60_linear_306_7371)"/>
<path d="M15.4566 24.6311C15.4566 24.8044 15.2522 24.9449 15 24.9449C14.7478 24.9449 14.5434 24.8044 14.5434 24.6311C14.5434 24.4579 14.7478 24.3174 15 24.3174C15.2522 24.3174 15.4566 24.4579 15.4566 24.6311Z" fill="url(#paint61_linear_306_7371)"/>
<path d="M17.5183 25.5952C17.8913 25.5952 18.1936 25.2929 18.1936 24.9199C18.1936 24.547 17.8913 24.2446 17.5183 24.2446C17.1454 24.2446 16.843 24.547 16.843 24.9199C16.843 25.2929 17.1454 25.5952 17.5183 25.5952Z" fill="url(#paint62_radial_306_7371)"/>
<path d="M17.5183 25.5229C17.8512 25.5229 18.1211 25.253 18.1211 24.9201C18.1211 24.5873 17.8512 24.3174 17.5183 24.3174C17.1854 24.3174 16.9155 24.5873 16.9155 24.9201C16.9155 25.253 17.1854 25.5229 17.5183 25.5229Z" fill="url(#paint63_linear_306_7371)"/>
<path d="M17.8204 24.3159C17.8659 24.4068 17.8916 24.5094 17.8916 24.618C17.8916 24.9909 17.5892 25.2933 17.2163 25.2933C17.1077 25.2933 17.0051 25.2676 16.9142 25.222C17.0251 25.4433 17.254 25.5953 17.5183 25.5953C17.8912 25.5953 18.1936 25.2929 18.1936 24.92C18.1936 24.6556 18.0417 24.4268 17.8204 24.3159Z" fill="url(#paint64_linear_306_7371)"/>
<path d="M17.9749 24.6311C17.9749 24.8044 17.7705 24.9449 17.5183 24.9449C17.2661 24.9449 17.0617 24.8044 17.0617 24.6311C17.0617 24.4579 17.2661 24.3174 17.5183 24.3174C17.7705 24.3174 17.9749 24.4579 17.9749 24.6311Z" fill="url(#paint65_linear_306_7371)"/>
<path d="M20.0365 25.5952C20.4095 25.5952 20.7118 25.2929 20.7118 24.9199C20.7118 24.547 20.4095 24.2446 20.0365 24.2446C19.6635 24.2446 19.3612 24.547 19.3612 24.9199C19.3612 25.2929 19.6635 25.5952 20.0365 25.5952Z" fill="url(#paint66_radial_306_7371)"/>
<path d="M20.0365 25.5229C20.3694 25.5229 20.6393 25.253 20.6393 24.9201C20.6393 24.5873 20.3694 24.3174 20.0365 24.3174C19.7036 24.3174 19.4338 24.5873 19.4338 24.9201C19.4338 25.253 19.7036 25.5229 20.0365 25.5229Z" fill="url(#paint67_linear_306_7371)"/>
<path d="M20.3387 24.3159C20.3842 24.4068 20.4099 24.5094 20.4099 24.618C20.4099 24.9909 20.1076 25.2933 19.7346 25.2933C19.626 25.2933 19.5234 25.2676 19.4326 25.222C19.5434 25.4433 19.7723 25.5953 20.0366 25.5953C20.4096 25.5953 20.7119 25.2929 20.7119 24.92C20.7118 24.6556 20.5599 24.4268 20.3387 24.3159Z" fill="url(#paint68_linear_306_7371)"/>
<path d="M20.4932 24.6311C20.4932 24.8044 20.2888 24.9449 20.0366 24.9449C19.7844 24.9449 19.58 24.8044 19.58 24.6311C19.58 24.4579 19.7844 24.3174 20.0366 24.3174C20.2888 24.3174 20.4932 24.4579 20.4932 24.6311Z" fill="url(#paint69_linear_306_7371)"/>
<path d="M22.5548 25.5952C22.9278 25.5952 23.2301 25.2929 23.2301 24.9199C23.2301 24.547 22.9278 24.2446 22.5548 24.2446C22.1819 24.2446 21.8795 24.547 21.8795 24.9199C21.8795 25.2929 22.1819 25.5952 22.5548 25.5952Z" fill="url(#paint70_radial_306_7371)"/>
<path d="M22.5549 25.5229C22.8878 25.5229 23.1576 25.253 23.1576 24.9201C23.1576 24.5873 22.8878 24.3174 22.5549 24.3174C22.222 24.3174 21.9521 24.5873 21.9521 24.9201C21.9521 25.253 22.222 25.5229 22.5549 25.5229Z" fill="url(#paint71_linear_306_7371)"/>
<path d="M22.857 24.3159C22.9025 24.4068 22.9282 24.5094 22.9282 24.618C22.9282 24.9909 22.6259 25.2933 22.2529 25.2933C22.1443 25.2933 22.0417 25.2676 21.9509 25.222C22.0617 25.4433 22.2906 25.5953 22.5549 25.5953C22.9279 25.5953 23.2302 25.2929 23.2302 24.92C23.2302 24.6556 23.0782 24.4268 22.857 24.3159Z" fill="url(#paint72_linear_306_7371)"/>
<path d="M23.0114 24.6311C23.0114 24.8044 22.807 24.9449 22.5549 24.9449C22.3027 24.9449 22.0983 24.8044 22.0983 24.6311C22.0983 24.4579 22.3027 24.3174 22.5549 24.3174C22.807 24.3174 23.0114 24.4579 23.0114 24.6311Z" fill="url(#paint73_linear_306_7371)"/>
<path d="M25.0731 25.5952C25.4461 25.5952 25.7484 25.2929 25.7484 24.9199C25.7484 24.547 25.4461 24.2446 25.0731 24.2446C24.7002 24.2446 24.3978 24.547 24.3978 24.9199C24.3978 25.2929 24.7002 25.5952 25.0731 25.5952Z" fill="url(#paint74_radial_306_7371)"/>
<path d="M25.0732 25.5229C25.4061 25.5229 25.6759 25.253 25.6759 24.9201C25.6759 24.5873 25.4061 24.3174 25.0732 24.3174C24.7403 24.3174 24.4704 24.5873 24.4704 24.9201C24.4704 25.253 24.7403 25.5229 25.0732 25.5229Z" fill="url(#paint75_linear_306_7371)"/>
<path d="M25.3751 24.3159C25.4206 24.4068 25.4463 24.5094 25.4463 24.618C25.4463 24.9909 25.144 25.2933 24.7711 25.2933C24.6625 25.2933 24.5599 25.2676 24.469 25.222C24.5799 25.4433 24.8087 25.5953 25.0731 25.5953C25.446 25.5953 25.7483 25.2929 25.7483 24.92C25.7483 24.6556 25.5964 24.4268 25.3751 24.3159Z" fill="url(#paint76_linear_306_7371)"/>
<path d="M25.5297 24.6311C25.5297 24.8044 25.3253 24.9449 25.0731 24.9449C24.8209 24.9449 24.6165 24.8044 24.6165 24.6311C24.6165 24.4579 24.8209 24.3174 25.0731 24.3174C25.3253 24.3174 25.5297 24.4579 25.5297 24.6311Z" fill="url(#paint77_linear_306_7371)"/>
<path d="M16.0358 5.8226V3.66595C16.0358 3.09389 15.572 2.63013 14.9999 2.63013C14.4279 2.63013 13.9641 3.09389 13.9641 3.66595V5.8226C13.9641 6.39472 14.4279 6.85842 14.9999 6.85842C15.5721 6.85842 16.0358 6.39472 16.0358 5.8226Z" fill="url(#paint78_linear_306_7371)"/>
<path d="M21.462 8.59412L22.987 7.06912C23.3915 6.66465 23.3915 6.00877 22.987 5.6043C22.5825 5.19977 21.9267 5.19977 21.5221 5.6043L19.9971 7.1293C19.5926 7.53383 19.5926 8.18965 19.9971 8.59418C20.4017 8.99865 21.0575 8.99865 21.462 8.59412Z" fill="url(#paint79_linear_306_7371)"/>
<path d="M7.013 7.06906L8.538 8.59406C8.94247 8.99859 9.59835 8.99859 10.0028 8.59406C10.4074 8.18953 10.4074 7.53371 10.0028 7.12918L8.47782 5.60418C8.07329 5.19965 7.41747 5.19965 7.01294 5.60418C6.60847 6.00871 6.60847 6.66453 7.013 7.06906Z" fill="url(#paint80_linear_306_7371)"/>
</g>
<defs>
<linearGradient id="paint0_linear_306_7371" x1="15" y1="14.0794" x2="15" y2="19.0273" gradientUnits="userSpaceOnUse">
<stop stop-color="#FFA325"/>
<stop offset="1" stop-color="#FF7044"/>
</linearGradient>
<linearGradient id="paint1_linear_306_7371" x1="14.7148" y1="14.0625" x2="18.0874" y2="25.0601" gradientUnits="userSpaceOnUse">
<stop stop-color="#FFD945"/>
<stop offset="0.3043" stop-color="#FFCD3E"/>
<stop offset="0.8558" stop-color="#FFAD2B"/>
<stop offset="1" stop-color="#FFA325"/>
</linearGradient>
<linearGradient id="paint2_linear_306_7371" x1="19.9717" y1="25.5504" x2="9.4663" y2="9.08971" gradientUnits="userSpaceOnUse">
<stop stop-color="#FFD945" stop-opacity="0"/>
<stop offset="1" stop-color="#FBED21"/>
</linearGradient>
<linearGradient id="paint3_linear_306_7371" x1="21.9189" y1="19.755" x2="16.0888" y2="1.56498" gradientUnits="userSpaceOnUse">
<stop stop-color="#E87264" stop-opacity="0"/>
<stop offset="1" stop-color="#FF7044"/>
</linearGradient>
<radialGradient id="paint4_radial_306_7371" cx="0" cy="0" r="1" gradientUnits="userSpaceOnUse" gradientTransform="translate(14.5144 9.68244) scale(2.10118)">
<stop stop-color="#FFD945"/>
<stop offset="0.4169" stop-color="#FFD744"/>
<stop offset="0.6278" stop-color="#FFCF3F"/>
<stop offset="0.7926" stop-color="#FFC237"/>
<stop offset="0.9326" stop-color="#FFAF2C"/>
<stop offset="1" stop-color="#FFA325"/>
</radialGradient>
<linearGradient id="paint5_linear_306_7371" x1="15.2929" y1="10.6229" x2="13.2756" y2="8.60565" gradientUnits="userSpaceOnUse">
<stop stop-color="#FFD945" stop-opacity="0"/>
<stop offset="1" stop-color="#FBED21"/>
</linearGradient>
<linearGradient id="paint6_linear_306_7371" x1="15.7163" y1="10.3935" x2="18.8577" y2="7.73454" gradientUnits="userSpaceOnUse">
<stop stop-color="#E87264" stop-opacity="0"/>
<stop offset="1" stop-color="#FF7044"/>
</linearGradient>
<linearGradient id="paint7_linear_306_7371" x1="15" y1="9.81141" x2="15" y2="8.22124" gradientUnits="userSpaceOnUse">
<stop stop-color="white" stop-opacity="0"/>
<stop offset="1" stop-color="white"/>
</linearGradient>
<radialGradient id="paint8_radial_306_7371" cx="0" cy="0" r="1" gradientUnits="userSpaceOnUse" gradientTransform="translate(1.20065 12.8742) scale(2.10118)">
<stop stop-color="#FFD945"/>
<stop offset="0.4169" stop-color="#FFD744"/>
<stop offset="0.6278" stop-color="#FFCF3F"/>
<stop offset="0.7926" stop-color="#FFC237"/>
<stop offset="0.9326" stop-color="#FFAF2C"/>
<stop offset="1" stop-color="#FFA325"/>
</radialGradient>
<linearGradient id="paint9_linear_306_7371" x1="1.97927" y1="13.8147" x2="-0.0380291" y2="11.7974" gradientUnits="userSpaceOnUse">
<stop stop-color="#FFD945" stop-opacity="0"/>
<stop offset="1" stop-color="#FBED21"/>
</linearGradient>
<linearGradient id="paint10_linear_306_7371" x1="2.40268" y1="13.5851" x2="5.54403" y2="10.9261" gradientUnits="userSpaceOnUse">
<stop stop-color="#E87264" stop-opacity="0"/>
<stop offset="1" stop-color="#FF7044"/>
</linearGradient>
<linearGradient id="paint11_linear_306_7371" x1="1.68638" y1="13.0031" x2="1.68638" y2="11.4129" gradientUnits="userSpaceOnUse">
<stop stop-color="white" stop-opacity="0"/>
<stop offset="1" stop-color="white"/>
</linearGradient>
<radialGradient id="paint12_radial_306_7371" cx="0" cy="0" r="1" gradientUnits="userSpaceOnUse" gradientTransform="translate(27.828 12.8742) scale(2.10118)">
<stop stop-color="#FFD945"/>
<stop offset="0.4169" stop-color="#FFD744"/>
<stop offset="0.6278" stop-color="#FFCF3F"/>
<stop offset="0.7926" stop-color="#FFC237"/>
<stop offset="0.9326" stop-color="#FFAF2C"/>
<stop offset="1" stop-color="#FFA325"/>
</radialGradient>
<linearGradient id="paint13_linear_306_7371" x1="28.6066" y1="13.8147" x2="26.5893" y2="11.7974" gradientUnits="userSpaceOnUse">
<stop stop-color="#FFD945" stop-opacity="0"/>
<stop offset="1" stop-color="#FBED21"/>
</linearGradient>
<linearGradient id="paint14_linear_306_7371" x1="29.03" y1="13.5851" x2="32.1714" y2="10.9261" gradientUnits="userSpaceOnUse">
<stop stop-color="#E87264" stop-opacity="0"/>
<stop offset="1" stop-color="#FF7044"/>
</linearGradient>
<linearGradient id="paint15_linear_306_7371" x1="28.3136" y1="13.0031" x2="28.3136" y2="11.4129" gradientUnits="userSpaceOnUse">
<stop stop-color="white" stop-opacity="0"/>
<stop offset="1" stop-color="white"/>
</linearGradient>
<radialGradient id="paint16_radial_306_7371" cx="0" cy="0" r="1" gradientUnits="userSpaceOnUse" gradientTransform="translate(7.48684 12.1525) scale(2.10118)">
<stop stop-color="#FFA325"/>
<stop offset="0.4235" stop-color="#FFA126"/>
<stop offset="0.6378" stop-color="#FF992B"/>
<stop offset="0.8052" stop-color="#FF8C33"/>
<stop offset="0.9474" stop-color="#FF793E"/>
<stop offset="1" stop-color="#FF7044"/>
</radialGradient>
<linearGradient id="paint17_linear_306_7371" x1="8.26552" y1="13.0929" x2="6.24823" y2="11.0756" gradientUnits="userSpaceOnUse">
<stop stop-color="#FF7044" stop-opacity="0"/>
<stop offset="1" stop-color="#FFD945"/>
</linearGradient>
<linearGradient id="paint18_linear_306_7371" x1="8.68893" y1="12.8634" x2="11.8303" y2="10.2045" gradientUnits="userSpaceOnUse">
<stop stop-color="#F35227" stop-opacity="0"/>
<stop offset="1" stop-color="#F35227"/>
</linearGradient>
<linearGradient id="paint19_linear_306_7371" x1="7.97257" y1="12.2814" x2="7.97257" y2="10.6912" gradientUnits="userSpaceOnUse">
<stop stop-color="white" stop-opacity="0"/>
<stop offset="1" stop-color="white"/>
</linearGradient>
<radialGradient id="paint20_radial_306_7371" cx="0" cy="0" r="1" gradientUnits="userSpaceOnUse" gradientTransform="translate(21.5418 12.1525) scale(2.10118)">
<stop stop-color="#FFA325"/>
<stop offset="0.4235" stop-color="#FFA126"/>
<stop offset="0.6378" stop-color="#FF992B"/>
<stop offset="0.8052" stop-color="#FF8C33"/>
<stop offset="0.9474" stop-color="#FF793E"/>
<stop offset="1" stop-color="#FF7044"/>
</radialGradient>
<linearGradient id="paint21_linear_306_7371" x1="22.3203" y1="13.0929" x2="20.303" y2="11.0756" gradientUnits="userSpaceOnUse">
<stop stop-color="#FF7044" stop-opacity="0"/>
<stop offset="1" stop-color="#FFD945"/>
</linearGradient>
<linearGradient id="paint22_linear_306_7371" x1="22.7437" y1="12.8634" x2="25.8852" y2="10.2045" gradientUnits="userSpaceOnUse">
<stop stop-color="#F35227" stop-opacity="0"/>
<stop offset="1" stop-color="#F35227"/>
</linearGradient>
<linearGradient id="paint23_linear_306_7371" x1="22.0274" y1="12.2814" x2="22.0274" y2="10.6912" gradientUnits="userSpaceOnUse">
<stop stop-color="white" stop-opacity="0"/>
<stop offset="1" stop-color="white"/>
</linearGradient>
<linearGradient id="paint24_linear_306_7371" x1="15" y1="23.6426" x2="15" y2="27.9496" gradientUnits="userSpaceOnUse">
<stop stop-color="#FF7044"/>
<stop offset="1" stop-color="#F82814"/>
</linearGradient>
<linearGradient id="paint25_linear_306_7371" x1="15" y1="26.1118" x2="15" y2="28.0601" gradientUnits="userSpaceOnUse">
<stop stop-color="#FFD945"/>
<stop offset="0.3043" stop-color="#FFCD3E"/>
<stop offset="0.8558" stop-color="#FFAD2B"/>
<stop offset="1" stop-color="#FFA325"/>
</linearGradient>
<linearGradient id="paint26_linear_306_7371" x1="15" y1="22.4928" x2="15" y2="24.4411" gradientUnits="userSpaceOnUse">
<stop stop-color="#FFD945"/>
<stop offset="0.3043" stop-color="#FFCD3E"/>
<stop offset="0.8558" stop-color="#FFAD2B"/>
<stop offset="1" stop-color="#FFA325"/>
</linearGradient>
<linearGradient id="paint27_linear_306_7371" x1="16.9683" y1="20.205" x2="10.0226" y2="13.2594" gradientUnits="userSpaceOnUse">
<stop stop-color="#FFD945"/>
<stop offset="1" stop-color="#FBB27E"/>
</linearGradient>
<linearGradient id="paint28_linear_306_7371" x1="13.7943" y1="17.3248" x2="16.7394" y2="19.5524" gradientUnits="userSpaceOnUse">
<stop stop-color="#91F27F"/>
<stop offset="1" stop-color="#00B302"/>
</linearGradient>
<linearGradient id="paint29_linear_306_7371" x1="15.3632" y1="18.6505" x2="14.1338" y2="17.2286" gradientUnits="userSpaceOnUse">
<stop stop-color="#91F27F" stop-opacity="0"/>
<stop offset="1" stop-color="#FFED82"/>
</linearGradient>
<linearGradient id="paint30_linear_306_7371" x1="15.1851" y1="18.2322" x2="13.0521" y2="14.7489" gradientUnits="userSpaceOnUse">
<stop stop-color="#005A01" stop-opacity="0"/>
<stop offset="1" stop-color="#005A01"/>
</linearGradient>
<linearGradient id="paint31_linear_306_7371" x1="15.3844" y1="18.9196" x2="13.84" y2="16.3976" gradientUnits="userSpaceOnUse">
<stop stop-color="#005A01" stop-opacity="0"/>
<stop offset="1" stop-color="#005A01"/>
</linearGradient>
<linearGradient id="paint32_linear_306_7371" x1="11.8841" y1="20.4688" x2="5.53877" y2="14.1236" gradientUnits="userSpaceOnUse">
<stop stop-color="#FFD945"/>
<stop offset="1" stop-color="#FBB27E"/>
</linearGradient>
<linearGradient id="paint33_linear_306_7371" x1="9.71191" y1="18.5096" x2="11.8469" y2="20.1245" gradientUnits="userSpaceOnUse">
<stop stop-color="#91F27F"/>
<stop offset="1" stop-color="#00B302"/>
</linearGradient>
<linearGradient id="paint34_linear_306_7371" x1="10.7485" y1="19.377" x2="10.0079" y2="18.0291" gradientUnits="userSpaceOnUse">
<stop stop-color="#91F27F" stop-opacity="0"/>
<stop offset="1" stop-color="#FFED82"/>
</linearGradient>
<linearGradient id="paint35_linear_306_7371" x1="10.7201" y1="19.1677" x2="9.17383" y2="16.6425" gradientUnits="userSpaceOnUse">
<stop stop-color="#005A01" stop-opacity="0"/>
<stop offset="1" stop-color="#005A01"/>
</linearGradient>
<linearGradient id="paint36_linear_306_7371" x1="10.8647" y1="19.6658" x2="9.74507" y2="17.8375" gradientUnits="userSpaceOnUse">
<stop stop-color="#005A01" stop-opacity="0"/>
<stop offset="1" stop-color="#005A01"/>
</linearGradient>
<linearGradient id="paint37_linear_306_7371" x1="20.7962" y1="20.553" x2="16.6632" y2="16.42" gradientUnits="userSpaceOnUse">
<stop stop-color="#FFD945"/>
<stop offset="1" stop-color="#FBB27E"/>
</linearGradient>
<linearGradient id="paint38_linear_306_7371" x1="18.54" y1="18.5096" x2="20.675" y2="20.1245" gradientUnits="userSpaceOnUse">
<stop stop-color="#91F27F"/>
<stop offset="1" stop-color="#00B302"/>
</linearGradient>
<linearGradient id="paint39_linear_306_7371" x1="19.7247" y1="19.539" x2="18.7471" y2="18.3392" gradientUnits="userSpaceOnUse">
<stop stop-color="#91F27F" stop-opacity="0"/>
<stop offset="1" stop-color="#FFED82"/>
</linearGradient>
<linearGradient id="paint40_linear_306_7371" x1="19.5481" y1="19.1676" x2="18.0018" y2="16.6425" gradientUnits="userSpaceOnUse">
<stop stop-color="#005A01" stop-opacity="0"/>
<stop offset="1" stop-color="#005A01"/>
</linearGradient>
<linearGradient id="paint41_linear_306_7371" x1="19.6927" y1="19.6658" x2="18.5731" y2="17.8375" gradientUnits="userSpaceOnUse">
<stop stop-color="#005A01" stop-opacity="0"/>
<stop offset="1" stop-color="#005A01"/>
</linearGradient>
<radialGradient id="paint42_radial_306_7371" cx="0" cy="0" r="1" gradientUnits="userSpaceOnUse" gradientTransform="translate(4.73241 24.6606) scale(0.841412)">
<stop stop-color="#FFD945"/>
<stop offset="0.4169" stop-color="#FFD744"/>
<stop offset="0.6278" stop-color="#FFCF3F"/>
<stop offset="0.7926" stop-color="#FFC237"/>
<stop offset="0.9326" stop-color="#FFAF2C"/>
<stop offset="1" stop-color="#FFA325"/>
</radialGradient>
<linearGradient id="paint43_linear_306_7371" x1="5.04416" y1="25.0375" x2="4.23639" y2="24.2297" gradientUnits="userSpaceOnUse">
<stop stop-color="#FFD945" stop-opacity="0"/>
<stop offset="1" stop-color="#FBED21"/>
</linearGradient>
<linearGradient id="paint44_linear_306_7371" x1="5.21376" y1="24.9454" x2="6.4717" y2="23.8806" gradientUnits="userSpaceOnUse">
<stop stop-color="#E87264" stop-opacity="0"/>
<stop offset="1" stop-color="#FF7044"/>
</linearGradient>
<linearGradient id="paint45_linear_306_7371" x1="4.92686" y1="24.7125" x2="4.92686" y2="24.0757" gradientUnits="userSpaceOnUse">
<stop stop-color="white" stop-opacity="0"/>
<stop offset="1" stop-color="white"/>
</linearGradient>
<radialGradient id="paint46_radial_306_7371" cx="0" cy="0" r="1" gradientUnits="userSpaceOnUse" gradientTransform="translate(7.25072 24.6606) scale(0.841412)">
<stop stop-color="#FFD945"/>
<stop offset="0.4169" stop-color="#FFD744"/>
<stop offset="0.6278" stop-color="#FFCF3F"/>
<stop offset="0.7926" stop-color="#FFC237"/>
<stop offset="0.9326" stop-color="#FFAF2C"/>
<stop offset="1" stop-color="#FFA325"/>
</radialGradient>
<linearGradient id="paint47_linear_306_7371" x1="7.56241" y1="25.0375" x2="6.75458" y2="24.2297" gradientUnits="userSpaceOnUse">
<stop stop-color="#FFD945" stop-opacity="0"/>
<stop offset="1" stop-color="#FBED21"/>
</linearGradient>
<linearGradient id="paint48_linear_306_7371" x1="7.73207" y1="24.9454" x2="8.99001" y2="23.8806" gradientUnits="userSpaceOnUse">
<stop stop-color="#E87264" stop-opacity="0"/>
<stop offset="1" stop-color="#FF7044"/>
</linearGradient>
<linearGradient id="paint49_linear_306_7371" x1="7.44524" y1="24.7125" x2="7.44524" y2="24.0757" gradientUnits="userSpaceOnUse">
<stop stop-color="white" stop-opacity="0"/>
<stop offset="1" stop-color="white"/>
</linearGradient>
<radialGradient id="paint50_radial_306_7371" cx="0" cy="0" r="1" gradientUnits="userSpaceOnUse" gradientTransform="translate(9.76897 24.6606) scale(0.841412)">
<stop stop-color="#FFD945"/>
<stop offset="0.4169" stop-color="#FFD744"/>
<stop offset="0.6278" stop-color="#FFCF3F"/>
<stop offset="0.7926" stop-color="#FFC237"/>
<stop offset="0.9326" stop-color="#FFAF2C"/>
<stop offset="1" stop-color="#FFA325"/>
</radialGradient>
<linearGradient id="paint51_linear_306_7371" x1="10.0808" y1="25.0375" x2="9.27301" y2="24.2297" gradientUnits="userSpaceOnUse">
<stop stop-color="#FFD945" stop-opacity="0"/>
<stop offset="1" stop-color="#FBED21"/>
</linearGradient>
<linearGradient id="paint52_linear_306_7371" x1="10.2503" y1="24.9454" x2="11.5082" y2="23.8806" gradientUnits="userSpaceOnUse">
<stop stop-color="#E87264" stop-opacity="0"/>
<stop offset="1" stop-color="#FF7044"/>
</linearGradient>
<linearGradient id="paint53_linear_306_7371" x1="9.96342" y1="24.7125" x2="9.96342" y2="24.0757" gradientUnits="userSpaceOnUse">
<stop stop-color="white" stop-opacity="0"/>
<stop offset="1" stop-color="white"/>
</linearGradient>
<radialGradient id="paint54_radial_306_7371" cx="0" cy="0" r="1" gradientUnits="userSpaceOnUse" gradientTransform="translate(12.2872 24.6606) scale(0.841412)">
<stop stop-color="#FFD945"/>
<stop offset="0.4169" stop-color="#FFD744"/>
<stop offset="0.6278" stop-color="#FFCF3F"/>
<stop offset="0.7926" stop-color="#FFC237"/>
<stop offset="0.9326" stop-color="#FFAF2C"/>
<stop offset="1" stop-color="#FFA325"/>
</radialGradient>
<linearGradient id="paint55_linear_306_7371" x1="12.599" y1="25.0375" x2="11.7912" y2="24.2297" gradientUnits="userSpaceOnUse">
<stop stop-color="#FFD945" stop-opacity="0"/>
<stop offset="1" stop-color="#FBED21"/>
</linearGradient>
<linearGradient id="paint56_linear_306_7371" x1="12.7686" y1="24.9454" x2="14.0265" y2="23.8806" gradientUnits="userSpaceOnUse">
<stop stop-color="#E87264" stop-opacity="0"/>
<stop offset="1" stop-color="#FF7044"/>
</linearGradient>
<linearGradient id="paint57_linear_306_7371" x1="12.4817" y1="24.7125" x2="12.4817" y2="24.0757" gradientUnits="userSpaceOnUse">
<stop stop-color="white" stop-opacity="0"/>
<stop offset="1" stop-color="white"/>
</linearGradient>
<radialGradient id="paint58_radial_306_7371" cx="0" cy="0" r="1" gradientUnits="userSpaceOnUse" gradientTransform="translate(14.8056 24.6608) scale(0.841412)">
<stop stop-color="#FFD945"/>
<stop offset="0.4169" stop-color="#FFD744"/>
<stop offset="0.6278" stop-color="#FFCF3F"/>
<stop offset="0.7926" stop-color="#FFC237"/>
<stop offset="0.9326" stop-color="#FFAF2C"/>
<stop offset="1" stop-color="#FFA325"/>
</radialGradient>
<linearGradient id="paint59_linear_306_7371" x1="15.1173" y1="25.0374" x2="14.3095" y2="24.2296" gradientUnits="userSpaceOnUse">
<stop stop-color="#FFD945" stop-opacity="0"/>
<stop offset="1" stop-color="#FBED21"/>
</linearGradient>
<linearGradient id="paint60_linear_306_7371" x1="15.2869" y1="24.9454" x2="16.5448" y2="23.8806" gradientUnits="userSpaceOnUse">
<stop stop-color="#E87264" stop-opacity="0"/>
<stop offset="1" stop-color="#FF7044"/>
</linearGradient>
<linearGradient id="paint61_linear_306_7371" x1="15" y1="24.7125" x2="15" y2="24.0757" gradientUnits="userSpaceOnUse">
<stop stop-color="white" stop-opacity="0"/>
<stop offset="1" stop-color="white"/>
</linearGradient>
<radialGradient id="paint62_radial_306_7371" cx="0" cy="0" r="1" gradientUnits="userSpaceOnUse" gradientTransform="translate(17.3238 24.6606) scale(0.841412)">
<stop stop-color="#FFD945"/>
<stop offset="0.4169" stop-color="#FFD744"/>
<stop offset="0.6278" stop-color="#FFCF3F"/>
<stop offset="0.7926" stop-color="#FFC237"/>
<stop offset="0.9326" stop-color="#FFAF2C"/>
<stop offset="1" stop-color="#FFA325"/>
</radialGradient>
<linearGradient id="paint63_linear_306_7371" x1="17.6356" y1="25.0375" x2="16.8278" y2="24.2297" gradientUnits="userSpaceOnUse">
<stop stop-color="#FFD945" stop-opacity="0"/>
<stop offset="1" stop-color="#FBED21"/>
</linearGradient>
<linearGradient id="paint64_linear_306_7371" x1="17.8051" y1="24.9454" x2="19.0631" y2="23.8806" gradientUnits="userSpaceOnUse">
<stop stop-color="#E87264" stop-opacity="0"/>
<stop offset="1" stop-color="#FF7044"/>
</linearGradient>
<linearGradient id="paint65_linear_306_7371" x1="17.5183" y1="24.7125" x2="17.5183" y2="24.0757" gradientUnits="userSpaceOnUse">
<stop stop-color="white" stop-opacity="0"/>
<stop offset="1" stop-color="white"/>
</linearGradient>
<radialGradient id="paint66_radial_306_7371" cx="0" cy="0" r="1" gradientUnits="userSpaceOnUse" gradientTransform="translate(19.842 24.6606) scale(0.841413 0.841411)">
<stop stop-color="#FFD945"/>
<stop offset="0.4169" stop-color="#FFD744"/>
<stop offset="0.6278" stop-color="#FFCF3F"/>
<stop offset="0.7926" stop-color="#FFC237"/>
<stop offset="0.9326" stop-color="#FFAF2C"/>
<stop offset="1" stop-color="#FFA325"/>
</radialGradient>
<linearGradient id="paint67_linear_306_7371" x1="20.1539" y1="25.0375" x2="19.3461" y2="24.2297" gradientUnits="userSpaceOnUse">
<stop stop-color="#FFD945" stop-opacity="0"/>
<stop offset="1" stop-color="#FBED21"/>
</linearGradient>
<linearGradient id="paint68_linear_306_7371" x1="20.3234" y1="24.9454" x2="21.5814" y2="23.8806" gradientUnits="userSpaceOnUse">
<stop stop-color="#E87264" stop-opacity="0"/>
<stop offset="1" stop-color="#FF7044"/>
</linearGradient>
<linearGradient id="paint69_linear_306_7371" x1="20.0365" y1="24.7125" x2="20.0365" y2="24.0757" gradientUnits="userSpaceOnUse">
<stop stop-color="white" stop-opacity="0"/>
<stop offset="1" stop-color="white"/>
</linearGradient>
<radialGradient id="paint70_radial_306_7371" cx="0" cy="0" r="1" gradientUnits="userSpaceOnUse" gradientTransform="translate(22.3603 24.6606) scale(0.841412)">
<stop stop-color="#FFD945"/>
<stop offset="0.4169" stop-color="#FFD744"/>
<stop offset="0.6278" stop-color="#FFCF3F"/>
<stop offset="0.7926" stop-color="#FFC237"/>
<stop offset="0.9326" stop-color="#FFAF2C"/>
<stop offset="1" stop-color="#FFA325"/>
</radialGradient>
<linearGradient id="paint71_linear_306_7371" x1="22.6721" y1="25.0375" x2="21.8644" y2="24.2297" gradientUnits="userSpaceOnUse">
<stop stop-color="#FFD945" stop-opacity="0"/>
<stop offset="1" stop-color="#FBED21"/>
</linearGradient>
<linearGradient id="paint72_linear_306_7371" x1="22.8417" y1="24.9454" x2="24.0997" y2="23.8806" gradientUnits="userSpaceOnUse">
<stop stop-color="#E87264" stop-opacity="0"/>
<stop offset="1" stop-color="#FF7044"/>
</linearGradient>
<linearGradient id="paint73_linear_306_7371" x1="22.5549" y1="24.7125" x2="22.5549" y2="24.0757" gradientUnits="userSpaceOnUse">
<stop stop-color="white" stop-opacity="0"/>
<stop offset="1" stop-color="white"/>
</linearGradient>
<radialGradient id="paint74_radial_306_7371" cx="0" cy="0" r="1" gradientUnits="userSpaceOnUse" gradientTransform="translate(24.8787 24.6606) scale(0.841412)">
<stop stop-color="#FFD945"/>
<stop offset="0.4169" stop-color="#FFD744"/>
<stop offset="0.6278" stop-color="#FFCF3F"/>
<stop offset="0.7926" stop-color="#FFC237"/>
<stop offset="0.9326" stop-color="#FFAF2C"/>
<stop offset="1" stop-color="#FFA325"/>
</radialGradient>
<linearGradient id="paint75_linear_306_7371" x1="25.1905" y1="25.0375" x2="24.3826" y2="24.2297" gradientUnits="userSpaceOnUse">
<stop stop-color="#FFD945" stop-opacity="0"/>
<stop offset="1" stop-color="#FBED21"/>
</linearGradient>
<linearGradient id="paint76_linear_306_7371" x1="25.3599" y1="24.9454" x2="26.6179" y2="23.8806" gradientUnits="userSpaceOnUse">
<stop stop-color="#E87264" stop-opacity="0"/>
<stop offset="1" stop-color="#FF7044"/>
</linearGradient>
<linearGradient id="paint77_linear_306_7371" x1="25.0731" y1="24.7125" x2="25.0731" y2="24.0757" gradientUnits="userSpaceOnUse">
<stop stop-color="white" stop-opacity="0"/>
<stop offset="1" stop-color="white"/>
</linearGradient>
<linearGradient id="paint78_linear_306_7371" x1="14.7588" y1="4.74424" x2="16.8901" y2="4.74424" gradientUnits="userSpaceOnUse">
<stop stop-color="#00ADFB"/>
<stop offset="1" stop-color="#3F3CED"/>
</linearGradient>
<linearGradient id="paint79_linear_306_7371" x1="21.3084" y1="6.92602" x2="22.8152" y2="8.43289" gradientUnits="userSpaceOnUse">
<stop stop-color="#00ADFB"/>
<stop offset="1" stop-color="#3F3CED"/>
</linearGradient>
<linearGradient id="paint80_linear_306_7371" x1="8.65038" y1="6.90251" x2="7.14351" y2="8.40937" gradientUnits="userSpaceOnUse">
<stop stop-color="#00ADFB"/>
<stop offset="1" stop-color="#3F3CED"/>
</linearGradient>
<clipPath id="clip0_306_7371">
<rect width="30" height="30" fill="white"/>
</clipPath>
</defs>
</svg>
