<svg width="30" height="30" viewBox="0 0 30 30" fill="none" xmlns="http://www.w3.org/2000/svg">
<path d="M24.1791 13.0096V23.2275C24.1791 24.1475 23.4333 24.8934 22.5132 24.8934H3.08107C2.16098 24.8934 1.4151 24.1475 1.4151 23.2275V13.0096C1.4151 6.72346 6.511 1.62756 12.7971 1.62756C19.0832 1.62756 24.1791 6.72346 24.1791 13.0096Z" fill="#F9B938"/>
<g opacity="0.3">
<path d="M16.2505 3.95904C15.8937 3.8225 15.5249 3.70596 15.1541 3.61274C14.9276 3.55602 14.7902 3.32646 14.8472 3.1002C14.9041 2.87394 15.1359 2.73658 15.3595 2.7935C15.7633 2.89477 16.1647 3.02141 16.5524 3.16991C16.7703 3.25345 16.8796 3.49765 16.7958 3.71545C16.7125 3.93336 16.4684 4.04258 16.2505 3.95904Z" fill="white"/>
</g>
<g opacity="0.3">
<path d="M21.2951 8.36501C20.4684 6.86266 19.2573 5.59998 17.7925 4.71371C17.5928 4.59305 17.5289 4.33338 17.6497 4.13373C17.7702 3.93366 18.0293 3.86993 18.2297 3.991C19.8212 4.95379 21.1371 6.32558 22.0351 7.95786C22.1477 8.16226 22.073 8.41904 21.8689 8.53145C21.6647 8.64392 21.4072 8.56938 21.2951 8.36501Z" fill="white"/>
</g>
<path d="M24.1792 21.4248V23.2285C24.1792 24.1451 23.4315 24.8927 22.5149 24.8927H3.08003C2.15921 24.8927 1.41577 24.1451 1.41577 23.2285V21.4248C1.41577 22.3414 2.15921 23.0891 3.08003 23.0891H22.5149C23.4315 23.0891 24.1792 22.3414 24.1792 21.4248Z" fill="#ECB021"/>
<g opacity="0.3">
<path d="M2.51415 13.0106V23.2286C2.51415 24.1452 3.26182 24.8928 4.18268 24.8928H3.08021C2.15939 24.8928 1.41595 24.1452 1.41595 23.2286V13.0106C1.41595 6.72515 6.51014 1.62671 12.7955 1.62671C12.9687 1.62671 13.1377 1.63094 13.3109 1.6436C7.30004 1.94774 2.51415 6.91944 2.51415 13.0106Z" fill="white"/>
</g>
<path d="M3.94958 14.2102V21.5477C3.94958 21.9956 4.31265 22.3587 4.76052 22.3587H8.23508C8.68295 22.3587 9.04602 21.9956 9.04602 21.5477V14.2102C9.04602 13.7624 8.68295 13.3993 8.23508 13.3993H4.76052C4.31265 13.3993 3.94958 13.7624 3.94958 14.2102Z" fill="white"/>
<path d="M10.249 14.2102V21.5477C10.249 21.9956 10.6121 22.3587 11.06 22.3587H14.5345C14.9824 22.3587 15.3455 21.9956 15.3455 21.5477V14.2102C15.3455 13.7624 14.9824 13.3993 14.5345 13.3993H11.06C10.6121 13.3993 10.249 13.7624 10.249 14.2102Z" fill="white"/>
<path d="M16.5485 14.2102V21.5477C16.5485 21.9956 16.9115 22.3587 17.3594 22.3587H20.834C21.2818 22.3587 21.6449 21.9956 21.6449 21.5477V14.2102C21.6449 13.7624 21.2818 13.3993 20.834 13.3993H17.3594C16.9115 13.3993 16.5485 13.7624 16.5485 14.2102Z" fill="white"/>
<path d="M9.04022 14.1426H5.63565C5.18788 14.1426 4.82461 14.5059 4.82461 14.9536V22.2908C4.82461 22.3119 4.82461 22.3373 4.83307 22.3584H4.76124C4.31347 22.3584 3.95026 21.9951 3.95026 21.5474V14.2102C3.95026 13.7624 4.31347 13.3992 4.76124 13.3992H8.23341C8.66004 13.3992 9.00644 13.7286 9.04022 14.1426Z" fill="#E4E3FF"/>
<path d="M15.3425 14.1426H11.9336C11.4859 14.1426 11.1226 14.5059 11.1226 14.9536V22.2908C11.1226 22.3119 11.1226 22.3373 11.1269 22.3584H11.0593C10.6115 22.3584 10.2482 21.9951 10.2482 21.5474V14.2102C10.2482 13.7624 10.6115 13.3992 11.0593 13.3992H14.5357C14.9623 13.3992 15.3086 13.7286 15.3425 14.1426Z" fill="#E4E3FF"/>
<path d="M21.6363 14.1426H18.2359C17.784 14.1426 17.4249 14.5059 17.4249 14.9536V22.2908C17.4249 22.3119 17.4249 22.3373 17.4334 22.3584H17.3574C16.9096 22.3584 16.5463 21.9951 16.5463 21.5474V14.2102C16.5463 13.7624 16.9096 13.3992 17.3574 13.3992H20.8338C21.2604 13.3992 21.6067 13.7244 21.6363 14.1426Z" fill="#E4E3FF"/>
<path d="M21.0115 11.7423C21.2968 11.7423 21.5059 11.4779 21.4475 11.1987C20.6092 7.187 17.0542 4.16187 12.7971 4.16187C8.54031 4.16187 4.98534 7.187 4.14702 11.1987C4.08866 11.4779 4.29773 11.7423 4.58306 11.7423H21.0115Z" fill="#FC6559"/>
<path d="M21.2984 11.6335C20.2509 7.92476 16.8378 5.19603 12.7954 5.19603C8.75717 5.19603 5.34415 7.92476 4.29659 11.6335C4.17413 11.5321 4.1107 11.3674 4.14876 11.1984C4.98511 7.18555 8.54174 4.16113 12.7954 4.16113C17.0533 4.16113 20.6099 7.18555 21.4463 11.1984C21.4843 11.3674 21.4209 11.5321 21.2984 11.6335Z" fill="#E24B40"/>
<path d="M21.4332 24.8928V26.1925C21.4332 27.397 20.4568 28.3735 19.2522 28.3735H6.34204C5.13752 28.3735 4.16107 27.397 4.16107 26.1925V24.8928H21.4332Z" fill="#663232"/>
<path d="M4.16095 24.8927H21.433V25.6195H4.16095V24.8927Z" fill="#351A1A"/>
<path d="M21.4336 25.6194V26.1939C21.4336 27.3977 20.4578 28.3735 19.254 28.3735H6.34102C5.13717 28.3735 4.16144 27.3977 4.16144 26.1939V25.6194C4.16144 26.8275 5.13717 27.8032 6.34102 27.8032H19.254C20.4578 27.8032 21.4336 26.8275 21.4336 25.6194Z" fill="#4C2625"/>
<path d="M25.9819 15.6573V18.7164C25.9819 19.1302 25.6465 19.4657 25.2327 19.4657H24.1792V14.9081H25.2327C25.6465 14.9081 25.9819 15.2435 25.9819 15.6573Z" fill="#F9B938"/>
<path d="M28.3526 16.6888V17.8831C28.3526 18.0735 28.1982 18.2279 28.0078 18.2279H25.9829V16.344H28.0078C28.1982 16.344 28.3526 16.4984 28.3526 16.6888Z" fill="#F9B938"/>
<path d="M25.9829 18.071V18.7173C25.9829 19.1313 25.6449 19.465 25.231 19.465H24.1792V14.9072H24.8466V18.8229H25.231C25.6449 18.8229 25.9829 18.485 25.9829 18.071Z" fill="#ECB021"/>
<path d="M28.3526 17.2388V17.8851C28.3526 18.074 28.1994 18.2272 28.0104 18.2272H25.9828V16.3433H26.4137V17.3268C26.4137 17.4695 26.5294 17.5851 26.6721 17.5851H28.0062C28.1963 17.5851 28.3526 17.4288 28.3526 17.2388Z" fill="#ECB021"/>
<path d="M26.4855 8.10632H27.6979V16.3433H26.4855V8.10632Z" fill="#F9B938"/>
<path d="M27.6978 8.10645V10.1509C27.512 10.2354 27.3092 10.2818 27.0938 10.2818C26.8784 10.2818 26.6714 10.2354 26.4855 10.1509V8.10645H27.6978Z" fill="#ECB021"/>
<path d="M28.5847 8.40994C28.5847 9.2352 27.9145 9.90042 27.0942 9.90042C26.2689 9.90042 25.5988 9.2352 25.5988 8.40994C25.5988 7.58466 26.2689 6.91943 27.0942 6.91943C27.9145 6.91943 28.5847 7.58466 28.5847 8.40994Z" fill="#FC6559"/>
<g opacity="0.4">
<path d="M26.4773 8.79872C26.2439 8.79872 26.0549 8.60958 26.0549 8.37631C26.0549 7.82438 26.5058 7.37537 27.0602 7.37537C27.2937 7.37537 27.4826 7.5645 27.4826 7.79777C27.4826 8.03104 27.2937 8.22018 27.0602 8.22018C26.9719 8.22018 26.8997 8.2903 26.8997 8.37631C26.8997 8.60958 26.7108 8.79872 26.4773 8.79872Z" fill="white"/>
</g>
<path d="M28.5849 8.41049C28.5849 9.23418 27.9133 9.90157 27.0938 9.90157C26.5109 9.90157 26.004 9.56788 25.7632 9.0821C26.0252 9.30599 26.3631 9.44116 26.7348 9.44116C27.5542 9.44116 28.2259 8.77798 28.2259 7.95005C28.2259 7.70508 28.1668 7.47696 28.0654 7.27844C28.3822 7.55299 28.5849 7.95851 28.5849 8.41049Z" fill="#E24B40"/>
<path d="M8.8688 7.38161L9.19936 8.05141L9.93853 8.15881C10.1902 8.19539 10.2907 8.50467 10.1086 8.68219L9.57372 9.20355L9.69998 9.93972C9.74297 10.1904 9.47988 10.3815 9.25477 10.2632L8.59365 9.91561L7.93252 10.2632C7.70742 10.3815 7.44432 10.1904 7.48731 9.93972L7.61358 9.20355L7.07871 8.68219C6.8966 8.50467 6.99709 8.19539 7.24877 8.15881L7.98793 8.05141L8.31849 7.38161C8.43105 7.15356 8.75625 7.15356 8.8688 7.38161Z" fill="white"/>
<path d="M13.0724 7.38161L13.403 8.05141L14.1421 8.15881C14.3938 8.19538 14.4943 8.50467 14.3122 8.68219L13.7773 9.20355L13.9036 9.93972C13.9466 10.1904 13.6835 10.3815 13.4584 10.2632L12.7973 9.91561L12.1361 10.2632C11.911 10.3815 11.6479 10.1904 11.6909 9.93972L11.8172 9.20355L11.2823 8.68219C11.1002 8.50467 11.2007 8.19538 11.4524 8.15881L12.1915 8.05141L12.5221 7.38161C12.6347 7.15356 12.9599 7.15356 13.0724 7.38161Z" fill="white"/>
<path d="M17.276 7.38161L17.6066 8.05141L18.3458 8.15881C18.5974 8.19538 18.6979 8.50467 18.5158 8.68219L17.9809 9.20355L18.1072 9.93972C18.1502 10.1904 17.8871 10.3815 17.662 10.2632L17.0009 9.91561L16.3397 10.2632C16.1146 10.3815 15.8515 10.1904 15.8945 9.93972L16.0208 9.20355L15.4859 8.68219C15.3038 8.50467 15.4043 8.19538 15.656 8.15881L16.3952 8.05141L16.7257 7.38161C16.8383 7.15356 17.1635 7.15356 17.276 7.38161Z" fill="white"/>
<path d="M6.91017 20.1901C6.6758 20.1901 6.48565 19.9999 6.48565 19.7656V17.5882L6.43092 17.6429C6.26509 17.8087 5.99644 17.8087 5.83061 17.6429C5.66478 17.4771 5.66478 17.2084 5.83061 17.0426L6.61002 16.2632C6.73163 16.1421 6.9146 16.1057 7.07269 16.1709C7.23133 16.2367 7.3347 16.3914 7.3347 16.5633V19.7656C7.3347 19.9999 7.14455 20.1901 6.91017 20.1901Z" fill="#1B1B1B"/>
<path d="M7.62601 20.1901H6.13077C5.89639 20.1901 5.70624 20 5.70624 19.7656C5.70624 19.5312 5.89639 19.3411 6.13077 19.3411H7.62601C7.86039 19.3411 8.05054 19.5312 8.05054 19.7656C8.05054 20 7.86039 20.1901 7.62601 20.1901Z" fill="#1B1B1B"/>
<path d="M13.0807 20.1901C12.8463 20.1901 12.6562 19.9999 12.6562 19.7656V17.5887L12.602 17.6429C12.4362 17.8082 12.1675 17.8093 12.0017 17.6429C11.8359 17.4771 11.8359 17.2084 12.0017 17.0426L12.7805 16.2632C12.9016 16.1421 13.0851 16.1057 13.2432 16.1709C13.4019 16.2367 13.5052 16.3914 13.5052 16.5633V19.7656C13.5052 19.9999 13.3151 20.1901 13.0807 20.1901Z" fill="#1B1B1B"/>
<path d="M13.7971 20.1901H12.3018C12.0675 20.1901 11.8773 20 11.8773 19.7656C11.8773 19.5312 12.0675 19.3411 12.3018 19.3411H13.7971C14.0315 19.3411 14.2216 19.5312 14.2216 19.7656C14.2216 20 14.0315 20.1901 13.7971 20.1901Z" fill="#1B1B1B"/>
<path d="M19.2514 20.1901C19.017 20.1901 18.8268 19.9999 18.8268 19.7656V17.5887L18.7727 17.6429C18.6074 17.8082 18.3387 17.8093 18.1723 17.6429C18.0065 17.4771 18.0065 17.2084 18.1723 17.0426L18.9512 16.2632C19.0723 16.1421 19.2558 16.1057 19.4139 16.1709C19.5725 16.2367 19.6759 16.3914 19.6759 16.5633V19.7656C19.6759 19.9999 19.4857 20.1901 19.2514 20.1901Z" fill="#1B1B1B"/>
<path d="M19.9677 20.1901H18.4725C18.2381 20.1901 18.048 20 18.048 19.7656C18.048 19.5312 18.2381 19.3411 18.4725 19.3411H19.9677C20.2021 19.3411 20.3923 19.5312 20.3923 19.7656C20.3923 20 20.2021 20.1901 19.9677 20.1901Z" fill="#1B1B1B"/>
</svg>
