<svg width="30" height="30" viewBox="0 0 30 30" fill="none" xmlns="http://www.w3.org/2000/svg">
<g clip-path="url(#clip0_306_1193)">
<path d="M29.4886 16.4719L29.2783 16.7382C28.8055 17.3368 28.649 18.126 28.8576 18.8597L28.949 19.1815C29.2503 20.2418 28.7828 21.37 27.8198 21.9062L27.5283 22.0685C26.8613 22.44 26.4135 23.1093 26.3247 23.8675L26.2854 24.2026C26.1574 25.2955 25.2955 26.1574 24.2025 26.2854L23.8674 26.3247C23.1092 26.4135 22.4399 26.8613 22.0685 27.5283L21.9062 27.8198C21.3699 28.7828 20.2417 29.2504 19.1815 28.949L18.8597 28.8576C18.126 28.6491 17.3367 28.8056 16.7382 29.2783L16.4719 29.4886C15.6088 30.1702 14.3907 30.1702 13.5275 29.4886L13.2613 29.2783C12.6626 28.8056 11.8734 28.6491 11.1397 28.8576L10.8179 28.9491C9.75764 29.2504 8.62942 28.7829 8.09323 27.8199L7.93087 27.5284C7.55944 26.8614 6.89012 26.4136 6.13192 26.3247L5.79682 26.2855C4.70387 26.1574 3.84202 25.2955 3.71399 24.2026L3.67473 23.8675C3.58591 23.1093 3.13813 22.44 2.4711 22.0685L2.1796 21.9062C1.21661 21.37 0.749031 20.2418 1.05038 19.1815L1.14178 18.8598C1.35032 18.1261 1.19382 17.3368 0.721082 16.7382L0.510789 16.472C-0.170832 15.6089 -0.170832 14.3907 0.510789 13.5276L0.721082 13.2613C1.19382 12.6627 1.35032 11.8735 1.14178 11.1398L1.05032 10.818C0.749031 9.7577 1.21655 8.62948 2.17954 8.09329L2.47104 7.93093C3.13801 7.5595 3.58585 6.89018 3.67467 6.13198L3.71393 5.79688C3.84196 4.70394 4.70387 3.84208 5.79682 3.71405L6.13192 3.67479C6.89012 3.58597 7.55944 3.13819 7.93087 2.47116L8.09317 2.17966C8.62942 1.21667 9.75764 0.749092 10.8179 1.05044L11.1396 1.14185C11.8733 1.35038 12.6626 1.19388 13.2612 0.721143L13.5274 0.51085C14.3905 -0.170771 15.6087 -0.170771 16.4718 0.51085L16.7381 0.721143C17.3367 1.19388 18.1259 1.35038 18.8597 1.14185L19.1815 1.05038C20.2417 0.749092 21.3699 1.21661 21.9061 2.1796L22.0685 2.4711C22.4399 3.13808 23.1092 3.58591 23.8674 3.67474L24.2025 3.71399C25.2955 3.84202 26.1573 4.70394 26.2854 5.79688L26.3246 6.13198C26.4134 6.89018 26.8612 7.5595 27.5282 7.93093L27.8198 8.09323C28.7827 8.62948 29.2503 9.7577 28.949 10.818L28.8576 11.1397C28.649 11.8734 28.8055 12.6627 29.2783 13.2613L29.4886 13.5275C30.1702 14.3906 30.1702 15.6088 29.4886 16.4719Z" fill="url(#paint0_linear_306_1193)"/>
<path d="M27.8689 16.4001L27.7928 16.4965C27.3431 17.0659 27.1942 17.8166 27.3926 18.5144L27.4249 18.6282C27.7115 19.6366 27.2667 20.7098 26.3508 21.2198L26.2482 21.2769C25.6138 21.6302 25.1879 22.2668 25.1034 22.9879L25.0893 23.1081C24.9675 24.1476 24.1477 24.9675 23.1082 25.0892L22.9881 25.1032C22.2669 25.1877 21.6303 25.6136 21.277 26.2481L21.2199 26.3506C20.7099 27.2666 19.6367 27.7114 18.6283 27.4247L18.5147 27.3924C17.8168 27.194 17.0661 27.3429 16.4968 27.7926L16.4004 27.8687C15.5795 28.517 14.4208 28.517 13.5999 27.8687L13.5035 27.7926C12.9341 27.3429 12.1834 27.194 11.4856 27.3924L11.3719 27.4247C10.3634 27.7114 9.29026 27.2665 8.78026 26.3506L8.72313 26.248C8.36987 25.6136 7.73325 25.1877 7.01202 25.1032L6.8919 25.0891C5.85239 24.9674 5.03249 24.1475 4.91079 23.108L4.89672 22.9879C4.81223 22.2667 4.38631 21.6301 3.75186 21.2768L3.64932 21.2198C2.73338 20.7097 2.2886 19.6366 2.57524 18.6282L2.60758 18.5145C2.80592 17.8166 2.65709 17.0659 2.20739 16.4966L2.13127 16.4002C1.48293 15.5793 1.48293 14.4207 2.13127 13.5997L2.20739 13.5033C2.65704 12.934 2.80592 12.1833 2.60758 11.4854L2.57524 11.3717C2.2886 10.3632 2.73344 9.29008 3.64932 8.78008L3.75192 8.72295C4.38631 8.36968 4.81223 7.73306 4.89678 7.01183L4.91084 6.89172C5.0326 5.8522 5.85245 5.0323 6.89196 4.9106L7.01207 4.89654C7.73325 4.81205 8.36987 4.38613 8.72313 3.75168L8.7802 3.64914C9.29026 2.7332 10.3634 2.28842 11.3718 2.57506L11.4855 2.6074C12.1833 2.80574 12.934 2.65691 13.5034 2.2072L13.5997 2.13109C14.4207 1.48275 15.5793 1.48275 16.4003 2.13109L16.4966 2.2072C17.066 2.65685 17.8167 2.80574 18.5146 2.6074L18.6283 2.57506C19.6367 2.28842 20.7099 2.73326 21.2199 3.64914L21.277 3.75174C21.6303 4.38613 22.2669 4.81205 22.9881 4.8966L23.1082 4.91066C24.1477 5.03242 24.9676 5.85226 25.0893 6.89177L25.1034 7.01189C25.1879 7.73306 25.6138 8.36968 26.2482 8.723L26.3508 8.78008C27.2668 9.29013 27.7115 10.3633 27.4248 11.3717L27.3925 11.4853C27.1942 12.1832 27.343 12.9339 27.7927 13.5033L27.8688 13.5996C28.5172 14.4205 28.5172 15.5792 27.8689 16.4001Z" fill="white"/>
<path d="M26.9897 16.3612L26.9864 16.3654C26.5492 16.9188 26.4045 17.6486 26.5973 18.3271L26.5975 18.3279C26.8761 19.3082 26.4438 20.3514 25.5534 20.8473H25.5533C24.9366 21.1907 24.5225 21.8096 24.4404 22.5107L24.44 22.5143C24.3216 23.5248 23.5246 24.3218 22.5141 24.4402L22.5106 24.4406C21.8095 24.5227 21.1906 24.9368 20.8472 25.5535C20.3513 26.444 19.3081 26.8763 18.3278 26.5976L18.327 26.5974C17.6486 26.4046 16.9188 26.5493 16.3653 26.9865L16.3611 26.9898C15.5631 27.6201 14.4367 27.6201 13.6386 26.9898L13.6345 26.9865C13.081 26.5494 12.3512 26.4046 11.6728 26.5974L11.6719 26.5976C10.6916 26.8763 9.64841 26.4439 9.15253 25.5535V25.5534C8.80911 24.9368 8.19024 24.5227 7.48911 24.4405L7.4856 24.4401C6.47503 24.3218 5.67804 23.5248 5.55968 22.5142L5.55927 22.5107C5.47712 21.8097 5.06304 21.1907 4.44634 20.8473C3.55589 20.3514 3.12358 19.3082 3.4022 18.3279L3.40243 18.3271C3.59526 17.6487 3.45054 16.919 3.01337 16.3654L3.01003 16.3613C2.37979 15.5632 2.37979 14.4369 3.01003 13.6388L3.01337 13.6346C3.45048 13.0811 3.59521 12.3513 3.40243 11.6729L3.4022 11.6721C3.12358 10.6917 3.55595 9.64853 4.44634 9.15265C5.06304 8.80923 5.47718 8.19037 5.55933 7.48923L5.55974 7.48572C5.6781 6.47515 6.47509 5.67816 7.48565 5.5598L7.48911 5.55939C8.19019 5.47724 8.80911 5.06316 9.15253 4.44646C9.64841 3.55601 10.6916 3.12371 11.6719 3.40232L11.6727 3.40255C12.3511 3.59539 13.0809 3.45066 13.6344 3.01349L13.6386 3.01015C14.4366 2.37992 15.563 2.37992 16.3611 3.01015L16.3652 3.01349C16.9187 3.4506 17.6485 3.59533 18.327 3.40255L18.3278 3.40232C19.3081 3.12371 20.3513 3.55607 20.8472 4.44646C21.1906 5.06316 21.8095 5.4773 22.5106 5.55945L22.5141 5.55986C23.5247 5.67822 24.3217 6.47521 24.44 7.48578L24.4405 7.48923C24.5226 8.19031 24.9367 8.80923 25.5534 9.15265C26.4438 9.64853 26.8761 10.6917 26.5975 11.6721L26.5973 11.6728C26.4045 12.3512 26.5492 13.081 26.9864 13.6345L26.9896 13.6387C27.6199 14.4368 27.6199 15.5632 26.9897 16.3612Z" fill="url(#paint1_linear_306_1193)"/>
<path d="M24.2901 16.0547L24.2876 16.0579C23.9489 16.4868 23.8368 17.0522 23.9862 17.5779L23.9864 17.5785C24.2022 18.3381 23.8673 19.1464 23.1774 19.5306H23.1773C22.6995 19.7967 22.3786 20.2762 22.315 20.8195L22.3147 20.8222C22.223 21.6052 21.6054 22.2228 20.8224 22.3145L20.8198 22.3148C20.2766 22.3784 19.797 22.6992 19.5309 23.1771C19.1467 23.867 18.3384 24.2021 17.5788 23.9861L17.5782 23.9859C17.0526 23.8365 16.4871 23.9486 16.0582 24.2873L16.055 24.2898C15.4366 24.7782 14.5638 24.7782 13.9455 24.2898L13.9422 24.2873C13.5133 23.9486 12.948 23.8365 12.4223 23.9859L12.4216 23.9861C11.662 24.2019 10.8537 23.867 10.4695 23.1771V23.177C10.2034 22.6992 9.7239 22.3783 9.18062 22.3147L9.17792 22.3144C8.39493 22.2227 7.77736 21.6051 7.68566 20.8221L7.68536 20.8195C7.62173 20.2763 7.30093 19.7967 6.82304 19.5306C6.1331 19.1464 5.79806 18.3381 6.01404 17.5785L6.01421 17.5779C6.16363 17.0523 6.05148 16.4868 5.71281 16.0579L5.71005 16.0547C5.22173 15.4363 5.22173 14.5635 5.71005 13.9452L5.71257 13.9419C6.05124 13.513 6.16339 12.9477 6.01398 12.422L6.0138 12.4213C5.79794 11.6617 6.13292 10.8534 6.82286 10.4692C7.3007 10.2031 7.62161 9.7236 7.68525 9.18032L7.68554 9.17763C7.77724 8.39464 8.39482 7.77706 9.1778 7.68536L9.18044 7.68507C9.72366 7.62144 10.2033 7.30058 10.4693 6.82274C10.8535 6.1328 11.6618 5.79776 12.4214 6.01374L12.422 6.01392C12.9477 6.16333 13.5132 6.05118 13.9421 5.71251L13.9453 5.70999C14.5637 5.22167 15.4364 5.22167 16.0548 5.70999L16.058 5.71251C16.4869 6.05118 17.0523 6.16333 17.578 6.01392L17.5786 6.01374C18.3382 5.79788 19.1465 6.13286 19.5307 6.8228C19.7968 7.30063 20.2763 7.62155 20.8196 7.68519L20.8223 7.68548C21.6053 7.77718 22.2229 8.39476 22.3146 9.17774L22.3149 9.18038C22.3785 9.7236 22.6993 10.2032 23.1772 10.4693C23.8671 10.8535 24.2022 11.6618 23.9862 12.4214L23.986 12.422C23.8366 12.9476 23.9488 13.5131 24.2874 13.942L24.29 13.9452C24.7785 14.5636 24.7785 15.4363 24.2901 16.0547Z" fill="url(#paint2_linear_306_1193)"/>
<path d="M18.86 28.8578L19.1818 28.9492C20.242 29.2504 21.3702 28.7829 21.9065 27.8199L22.0688 27.5284C22.4402 26.8615 23.1095 26.4136 23.8677 26.3248L24.2028 26.2855C24.3926 26.2633 24.5751 26.2185 24.7483 26.1547L9.8336 11.2401C9.72556 11.1811 9.59501 11.1514 9.44196 11.1514C9.2888 11.1514 9.15819 11.1811 9.05032 11.2401C8.94228 11.2994 8.88843 11.3881 8.88843 11.5064V13.9642C8.88526 13.9617 8.88198 13.9587 8.87888 13.9563L6.20442 11.2819C6.08601 11.1949 5.92927 11.1513 5.73438 11.1513C5.3653 11.1513 5.18091 11.2732 5.18091 11.5168V18.4202C5.18091 18.5316 5.23657 18.6204 5.34802 18.6865L16.284 29.6224C16.3482 29.581 16.4111 29.5367 16.4721 29.4886L16.7384 29.2783C17.3371 28.8057 18.1263 28.6492 18.86 28.8578Z" fill="url(#paint3_linear_306_1193)"/>
<path d="M5.18097 18.4203V11.517C5.18097 11.2734 5.36536 11.1515 5.73445 11.1515C5.92927 11.1515 6.08595 11.1951 6.20449 11.282C6.32273 11.3692 6.44466 11.5345 6.56999 11.7782L8.88849 16.3003V11.5066C8.88849 11.3883 8.9424 11.2995 9.05038 11.2403C9.15826 11.1812 9.2888 11.1515 9.44202 11.1515C9.59507 11.1515 9.72562 11.1812 9.83367 11.2403C9.94148 11.2995 9.99556 11.3883 9.99556 11.5066V18.4204C9.99556 18.5318 9.94154 18.6206 9.83367 18.6867C9.72562 18.7529 9.59507 18.786 9.44202 18.786C9.14964 18.786 8.93027 18.6502 8.78407 18.3787L6.28798 13.6268V18.4205C6.28798 18.532 6.23402 18.6207 6.12615 18.6868C6.0181 18.753 5.88749 18.7861 5.73445 18.7861C5.58825 18.7861 5.45935 18.7531 5.34808 18.6868C5.23658 18.6206 5.18097 18.5318 5.18097 18.4203Z" fill="url(#paint4_linear_306_1193)"/>
<path d="M15.8543 11.2975C15.7916 11.2001 15.7012 11.1513 15.5827 11.1513H11.8647C11.7324 11.1513 11.6175 11.1844 11.5201 11.2506C11.4225 11.3168 11.3739 11.4055 11.3739 11.5169V18.4202C11.3739 18.5317 11.4225 18.6204 11.5201 18.6865L21.3873 28.4586C21.5918 28.2813 21.7686 28.067 21.9062 27.8198L22.0685 27.5283C22.44 26.8613 23.1093 26.4135 23.8675 26.3247L24.2026 26.2854C25.2955 26.1574 26.1574 25.2955 26.2855 24.2026L26.3247 23.8675C26.3856 23.3485 26.6147 22.8713 26.967 22.5026L15.8543 11.2975Z" fill="url(#paint5_linear_306_1193)"/>
<path d="M11.374 18.4202V11.5169C11.374 11.4056 11.4226 11.3168 11.5202 11.2506C11.6176 11.1845 11.7324 11.1513 11.8648 11.1513H15.5828C15.7011 11.1513 15.7917 11.2001 15.8544 11.2975C15.9171 11.3951 15.9484 11.5064 15.9484 11.6317C15.9484 11.771 15.9153 11.8893 15.8492 11.9867C15.7829 12.0844 15.6941 12.1329 15.5829 12.1329H12.481V14.5246H14.0894C14.2006 14.5246 14.2895 14.5682 14.3557 14.6552C14.4217 14.7423 14.4549 14.8484 14.4549 14.9737C14.4549 15.0851 14.4236 15.1844 14.3609 15.2713C14.2982 15.3585 14.2077 15.4019 14.0893 15.4019H12.481V17.8039H15.5828C15.6941 17.8039 15.7829 17.8527 15.8491 17.9501C15.9152 18.0477 15.9484 18.166 15.9484 18.3052C15.9484 18.4305 15.917 18.542 15.8543 18.6394C15.7916 18.7369 15.7011 18.7855 15.5828 18.7855H11.8647C11.7324 18.7855 11.6175 18.7526 11.5201 18.6863C11.4226 18.6204 11.374 18.5317 11.374 18.4202Z" fill="url(#paint6_linear_306_1193)"/>
<path d="M29.4887 16.4722C29.5276 16.4229 29.564 16.3724 29.5984 16.321L24.6008 11.2802C24.4552 11.1944 24.2996 11.1515 24.1335 11.1515C23.9187 11.1515 23.7906 11.226 23.7491 11.3751L22.6819 15.1072L21.0995 13.6269L21.093 13.6016C21.0385 13.3817 20.8616 13.2715 20.5623 13.2715C20.2493 13.2715 20.0692 13.3796 20.0216 13.5953L19.9438 13.9044L17.3686 11.3812C17.3268 11.2282 17.1979 11.1515 16.9822 11.1515C16.8151 11.1515 16.6584 11.1951 16.5122 11.282C16.366 11.3692 16.2928 11.4753 16.2928 11.6006C16.2928 11.6493 16.2963 11.6841 16.3033 11.705L18.3817 18.4725C18.4164 18.591 18.5 18.6832 18.6323 18.7493L25.5463 25.6633C25.9472 25.2893 26.2182 24.7782 26.2855 24.2027L26.3248 23.8676C26.4136 23.1094 26.8614 22.4401 27.5284 22.0687L27.8199 21.9063C28.7829 21.3701 29.2505 20.2418 28.9492 19.1816L28.8577 18.8598C28.6492 18.1261 28.8057 17.3369 29.2784 16.7383L29.4887 16.4722Z" fill="url(#paint7_linear_306_1193)"/>
<path d="M16.293 11.6004C16.293 11.4751 16.3661 11.369 16.5123 11.2819C16.6585 11.195 16.8152 11.1514 16.9823 11.1514C17.1981 11.1514 17.327 11.2281 17.3688 11.3811L19.0815 17.3341L20.0216 13.5953C20.0693 13.3795 20.2495 13.2715 20.5624 13.2715C20.8617 13.2715 21.0386 13.3816 21.0931 13.6016L22.0433 17.3404L23.7492 11.3749C23.7907 11.226 23.9188 11.1513 24.1335 11.1513C24.2996 11.1513 24.4553 11.1943 24.6009 11.28C24.7463 11.3658 24.8191 11.4705 24.8191 11.594C24.8191 11.6421 24.8154 11.6764 24.8086 11.6969L22.7427 18.465C22.7014 18.5858 22.6138 18.6798 22.4798 18.7472C22.3459 18.8146 22.1997 18.8484 22.0418 18.8484C21.8836 18.8484 21.7376 18.8154 21.6036 18.7497C21.4697 18.6839 21.3889 18.5921 21.3615 18.4742L20.5585 15.3143L19.7654 18.4685C19.7381 18.5881 19.6582 18.6813 19.5255 18.7482C19.3926 18.815 19.2437 18.8484 19.0786 18.8484C18.9135 18.8484 18.7646 18.8153 18.6324 18.7491C18.5001 18.6831 18.4165 18.5908 18.3818 18.4724L16.3035 11.7048C16.2964 11.684 16.293 11.6492 16.293 11.6004Z" fill="url(#paint8_linear_306_1193)"/>
</g>
<defs>
<linearGradient id="paint0_linear_306_1193" x1="11.9185" y1="11.9197" x2="32.8593" y2="32.8605" gradientUnits="userSpaceOnUse">
<stop stop-color="#FFB92D"/>
<stop offset="1" stop-color="#F59500"/>
</linearGradient>
<linearGradient id="paint1_linear_306_1193" x1="7.90508" y1="7.90635" x2="27.2635" y2="27.2648" gradientUnits="userSpaceOnUse">
<stop stop-color="#FFF465"/>
<stop offset="1" stop-color="#FFE600"/>
</linearGradient>
<linearGradient id="paint2_linear_306_1193" x1="18.5908" y1="18.5919" x2="10.0565" y2="10.0576" gradientUnits="userSpaceOnUse">
<stop stop-color="#FFF465"/>
<stop offset="1" stop-color="#FFE600"/>
</linearGradient>
<linearGradient id="paint3_linear_306_1193" x1="17.0188" y1="24.4021" x2="4.67974" y2="12.0625" gradientUnits="userSpaceOnUse">
<stop stop-color="#FFE600" stop-opacity="0"/>
<stop offset="1" stop-color="#F59500"/>
</linearGradient>
<linearGradient id="paint4_linear_306_1193" x1="7.58799" y1="11.9254" x2="7.58799" y2="23.8014" gradientUnits="userSpaceOnUse">
<stop stop-color="#FF4C54"/>
<stop offset="1" stop-color="#BE3F45"/>
</linearGradient>
<linearGradient id="paint5_linear_306_1193" x1="22.1936" y1="23.4986" x2="6.35573" y2="7.66129" gradientUnits="userSpaceOnUse">
<stop stop-color="#FFE600" stop-opacity="0"/>
<stop offset="1" stop-color="#F59500"/>
</linearGradient>
<linearGradient id="paint6_linear_306_1193" x1="13.6607" y1="11.9253" x2="13.6607" y2="23.8013" gradientUnits="userSpaceOnUse">
<stop stop-color="#FF4C54"/>
<stop offset="1" stop-color="#BE3F45"/>
</linearGradient>
<linearGradient id="paint7_linear_306_1193" x1="28.4371" y1="21.8583" x2="18.9412" y2="12.363" gradientUnits="userSpaceOnUse">
<stop stop-color="#FFE600" stop-opacity="0"/>
<stop offset="1" stop-color="#F59500"/>
</linearGradient>
<linearGradient id="paint8_linear_306_1193" x1="20.5552" y1="11.9254" x2="20.5552" y2="23.8014" gradientUnits="userSpaceOnUse">
<stop stop-color="#FF4C54"/>
<stop offset="1" stop-color="#BE3F45"/>
</linearGradient>
<clipPath id="clip0_306_1193">
<rect width="30" height="30" fill="white"/>
</clipPath>
</defs>
</svg>
