<svg width="51" height="51" viewBox="0 0 51 51" fill="none" xmlns="http://www.w3.org/2000/svg">
<path d="M35.8388 44.313L42.3334 44.7476C42.5248 44.7604 42.7032 44.8487 42.8295 44.9931C42.9558 45.1375 43.0195 45.3261 43.0067 45.5175L42.9101 46.9607C42.8973 47.1521 42.809 47.3306 42.6646 47.4569C42.5203 47.5831 42.3316 47.6469 42.1402 47.6341L35.6457 47.1995L35.8388 44.313Z" fill="#F9E109"/>
<path d="M36.0319 41.4266L42.5265 41.8611C42.7179 41.8739 42.8963 41.9622 43.0226 42.1066C43.1489 42.251 43.2126 42.4396 43.1998 42.631L43.1033 44.0743C43.0904 44.2656 43.0021 44.4441 42.8578 44.5704C42.7134 44.6967 42.5247 44.7604 42.3333 44.7476L35.8388 44.313L36.0319 41.4266Z" fill="#F9E109"/>
<path d="M36.2251 38.5401L42.7197 38.9746C42.9111 38.9875 43.0895 39.0758 43.2158 39.2201C43.3421 39.3645 43.4058 39.5532 43.393 39.7446L43.2964 41.1878C43.2836 41.3792 43.1953 41.5576 43.0509 41.6839C42.9065 41.8102 42.7179 41.8739 42.5265 41.8611L36.032 41.4266L36.2251 38.5401Z" fill="#F9E109"/>
<path d="M34.2534 35.5087L40.7479 35.9433C40.9393 35.9561 41.1178 36.0444 41.244 36.1888C41.3703 36.3332 41.4341 36.5218 41.4213 36.7132L41.3247 38.1565C41.3119 38.3478 41.2236 38.5263 41.0792 38.6526C40.9348 38.7788 40.7462 38.8426 40.5548 38.8298L34.0602 38.3952L34.2534 35.5087Z" fill="#F9E109"/>
<path d="M43.3447 40.4662L43.2964 41.1878C43.2836 41.3792 43.1953 41.5576 43.0509 41.6839C42.9065 41.8102 42.7179 41.8739 42.5265 41.8611L36.032 41.4266L36.2251 38.5401L39.1116 38.7332C39.0871 39.1157 39.215 39.4923 39.4673 39.7808C39.7197 40.0694 40.0759 40.2463 40.4582 40.273L43.3447 40.4662Z" fill="#FCBC04"/>
<path d="M43.1515 43.3526L43.1033 44.0743C43.0904 44.2656 43.0021 44.4441 42.8578 44.5704C42.7134 44.6967 42.5247 44.7604 42.3333 44.7476L35.8388 44.313L36.0319 41.4266L38.9184 41.6197C38.8939 42.0022 39.0219 42.3788 39.2742 42.6673C39.5265 42.9558 39.8827 43.1328 40.2651 43.1595L43.1515 43.3526Z" fill="#FCBC04"/>
<path d="M42.9584 46.2391L42.9101 46.9607C42.8973 47.1521 42.809 47.3306 42.6646 47.4569C42.5203 47.5831 42.3316 47.6469 42.1402 47.6341L35.6457 47.1995L35.8388 44.313L38.7253 44.5062C38.7008 44.8887 38.8287 45.2653 39.0811 45.5538C39.3334 45.8423 39.6896 46.0192 40.0719 46.046L42.9584 46.2391Z" fill="#FCBC04"/>
<path d="M41.373 37.4348L41.3247 38.1565C41.3119 38.3478 41.2236 38.5263 41.0792 38.6526C40.9348 38.7788 40.7462 38.8426 40.5548 38.8298L34.0602 38.3952L34.2534 35.5087L37.8614 35.7502C37.837 36.1327 37.9649 36.5093 38.2172 36.7978C38.4695 37.0863 38.8258 37.2632 39.2081 37.29L41.373 37.4348Z" fill="#FCBC04"/>
<path d="M37.6281 6.74056L41.9578 7.03028L41.4749 14.2465L37.1452 13.9567L37.6281 6.74056Z" fill="#FCBC04"/>
<path d="M39.023 7.55875L39.0713 6.83713L37.6281 6.74056L37.1452 13.9567L41.4749 14.2465L41.7163 10.6384C40.9508 10.5871 40.237 10.2339 39.7319 9.65637C39.2268 9.07883 38.9718 8.32429 39.023 7.55875Z" fill="#E59730"/>
<path d="M46.8616 20.4057L26.6589 8.18114L26.9003 4.57304L47.103 16.7976L46.8616 20.4057Z" fill="#FCBC04"/>
<path d="M26.6589 8.18113L5.00768 17.6051L5.2491 13.997L26.9003 4.57304L26.6589 8.18113Z" fill="#FCBC04"/>
<path d="M26.6589 8.18114L46.8616 20.4057L47.0064 18.2408L26.8038 6.01628L26.6589 8.18114Z" fill="#E59730"/>
<path d="M5.00769 17.6051L26.6589 8.18114L26.8038 6.01628L5.15255 15.4403L5.00769 17.6051Z" fill="#E59730"/>
<path d="M20.8043 15.4652L40.4713 20.3127L33.8926 47.0036L14.2256 42.1562L20.8043 15.4652Z" fill="#D0D8DA"/>
<path d="M36.9443 34.6162L33.8989 46.9813L25.6483 44.9505L14.2386 42.143L19.1554 22.1762L20.8081 15.4587L22.5197 15.8777C22.4953 16.2601 22.6232 16.6368 22.8755 16.9253C23.1278 17.2138 23.484 17.3907 23.8664 17.4175L30.6063 17.8684L35.3558 19.0343L34.5914 30.4575C34.5357 31.3046 34.7287 32.1495 35.1467 32.8883C35.5647 33.6272 36.1895 34.2277 36.9443 34.6162Z" fill="#93999A"/>
<path d="M13.6671 18.1846L33.8724 19.5366L32.0375 46.9581L11.8322 45.6061L13.6671 18.1846Z" fill="#E9F1F2"/>
<path d="M32.5518 39.2729L32.0375 46.9581L11.8322 45.6061L13.6671 18.1846L17.9968 18.4743C17.6885 23.081 18.9635 27.6547 21.6107 31.4374C24.2579 35.2201 28.1182 37.9846 32.5518 39.2729Z" fill="#D0D8DA"/>
<path d="M22.5143 37.6227L19.2442 32.3299L23.1903 27.52L26.4604 32.8128L22.5143 37.6227Z" fill="#F8664F"/>
<path d="M24.7241 34.9292L22.5143 37.6227L19.2442 32.33L20.8862 30.3233C21.9265 32.0429 23.2203 33.5957 24.7241 34.9292Z" fill="#CC5144"/>
<path d="M29.0599 26.4631C28.4857 26.4247 27.9504 26.1597 27.5715 25.7266C27.1927 25.2934 27.0015 24.7275 27.0399 24.1534C27.0527 23.962 27.141 23.7835 27.2854 23.6572C27.4298 23.531 27.6184 23.4672 27.8098 23.48C28.0012 23.4928 28.1796 23.5811 28.3059 23.7255C28.4322 23.8699 28.4959 24.0586 28.4831 24.2499C28.4703 24.4413 28.5341 24.63 28.6603 24.7743C28.7866 24.9187 28.9651 25.007 29.1565 25.0198C29.3478 25.0326 29.5365 24.9689 29.6809 24.8426C29.8252 24.7164 29.9136 24.5379 29.9264 24.3465L30.0712 22.1817C30.084 21.9903 30.1723 21.8118 30.3167 21.6855C30.4611 21.5593 30.6497 21.4955 30.8411 21.5083C31.0325 21.5211 31.211 21.6094 31.3372 21.7538C31.4635 21.8982 31.5273 22.0868 31.5145 22.2782L31.3696 24.4431C31.3312 25.0172 31.0663 25.5526 30.6331 25.9314C30.1999 26.3103 29.634 26.5015 29.0599 26.4631Z" fill="#F8664F"/>
<path d="M15.5852 43.6827C15.011 43.6443 14.4756 43.3793 14.0968 42.9462C13.718 42.513 13.5267 41.9471 13.5652 41.373C13.578 41.1816 13.6663 41.0031 13.8107 40.8769C13.955 40.7506 14.1437 40.6868 14.3351 40.6996C14.5264 40.7124 14.7049 40.8008 14.8312 40.9451C14.9575 41.0895 15.0212 41.2782 15.0084 41.4695C14.9956 41.6609 15.0593 41.8496 15.1856 41.9939C15.3119 42.1383 15.4903 42.2266 15.6817 42.2394C15.8731 42.2523 16.0617 42.1885 16.2061 42.0622C16.3505 41.936 16.4388 41.7575 16.4516 41.5661L16.5965 39.4013C16.6093 39.2099 16.6976 39.0314 16.842 38.9051C16.9864 38.7789 17.175 38.7151 17.3664 38.7279C17.5578 38.7407 17.7362 38.829 17.8625 38.9734C17.9888 39.1178 18.0525 39.3064 18.0397 39.4978L17.8949 41.6627C17.8565 42.2368 17.5915 42.7722 17.1584 43.151C16.7252 43.5299 16.1593 43.7211 15.5852 43.6827Z" fill="#CC5144"/>
<path d="M13.1332 36.9949L7.36029 36.6086C6.56321 36.5553 5.87382 37.1582 5.82048 37.9553L5.4342 43.7283C5.38086 44.5253 5.98378 45.2147 6.78086 45.2681L12.5538 45.6543C13.3509 45.7077 14.0403 45.1048 14.0936 44.3077L14.4799 38.5347C14.5332 37.7377 13.9303 37.0483 13.1332 36.9949Z" fill="#84D2F4"/>
<path d="M14.1443 43.55L14.0936 44.3077C14.0669 44.69 13.89 45.0463 13.6014 45.2986C13.3129 45.5509 12.9363 45.6788 12.5538 45.6543L6.78086 45.2681C6.39852 45.2413 6.04229 45.0644 5.78997 44.7759C5.53765 44.4874 5.40975 44.1108 5.4342 43.7283L5.82048 37.9553C5.84721 37.573 6.02415 37.2167 6.31266 36.9644C6.60117 36.7121 6.9778 36.5842 7.36029 36.6086L8.11799 36.6593C8.17522 38.3262 8.80615 39.9223 9.90415 41.1778C11.0022 42.4332 12.4999 43.2712 14.1443 43.55Z" fill="#57B7EB"/>
<path d="M9.86051 42.5747C10.6576 42.6281 11.347 42.0251 11.4003 41.2281C11.4537 40.431 10.8507 39.7416 10.0537 39.6883C9.25657 39.6349 8.56718 40.2378 8.51384 41.0349C8.46051 41.832 9.06343 42.5214 9.86051 42.5747Z" fill="#F8664F"/>
<path d="M10.9608 42.1627C10.8174 42.3058 10.645 42.4166 10.4552 42.4876C10.2654 42.5587 10.0626 42.5884 9.86047 42.5747C9.47813 42.5479 9.1219 42.371 8.86958 42.0825C8.61726 41.794 8.48936 41.4174 8.5138 41.0349C8.52716 40.8327 8.58359 40.6357 8.6793 40.457C8.77501 40.2784 8.90779 40.1223 9.06875 39.9992C9.54248 40.8439 10.1868 41.5806 10.9608 42.1627Z" fill="#CC5144"/>
<path d="M36.225 38.5401L30.4521 38.1538C29.655 38.1004 28.9656 38.7034 28.9123 39.5005L28.526 45.2734C28.4727 46.0705 29.0756 46.7599 29.8727 46.8132L35.6456 47.1995C36.4427 47.2528 37.1321 46.6499 37.1854 45.8528L37.5717 40.0799C37.625 39.2828 37.0221 38.5934 36.225 38.5401Z" fill="#84D2F4"/>
<path d="M37.2361 45.0951L37.1854 45.8528C37.1587 46.2352 36.9817 46.5914 36.6932 46.8437C36.4047 47.096 36.0281 47.2239 35.6456 47.1995L29.8727 46.8132C29.4903 46.7865 29.1341 46.6095 28.8818 46.321C28.6295 46.0325 28.5015 45.6559 28.526 45.2734L28.9123 39.5005C28.939 39.1181 29.116 38.7619 29.4045 38.5096C29.693 38.2572 30.0696 38.1293 30.4521 38.1538L31.2098 38.2045C31.267 39.8714 31.8979 41.4674 32.9959 42.7229C34.0939 43.9784 35.5917 44.8163 37.2361 45.0951Z" fill="#57B7EB"/>
<path d="M31.654 41.8585C32.0525 41.8851 32.3972 41.5837 32.4239 41.1851C32.4505 40.7866 32.1491 40.4419 31.7505 40.4152C31.352 40.3885 31.0073 40.69 30.9806 41.0885C30.954 41.4871 31.2554 41.8318 31.654 41.8585Z" fill="#F8664F"/>
<path d="M34.5404 42.0516C34.9389 42.0783 35.2836 41.7768 35.3103 41.3783C35.337 40.9797 35.0355 40.635 34.637 40.6084C34.2384 40.5817 33.8937 40.8831 33.8671 41.2817C33.8404 41.6802 34.1419 42.0249 34.5404 42.0516Z" fill="#F8664F"/>
<path d="M31.4608 44.7449C31.8593 44.7716 32.204 44.4701 32.2307 44.0716C32.2574 43.6731 31.9559 43.3284 31.5574 43.3017C31.1588 43.275 30.8141 43.5765 30.7875 43.975C30.7608 44.3736 31.0623 44.7183 31.4608 44.7449Z" fill="#AD4038"/>
<path d="M34.3472 44.9381C34.7458 44.9647 35.0905 44.6633 35.1171 44.2647C35.1438 43.8662 34.8423 43.5215 34.4438 43.4948C34.0452 43.4682 33.7005 43.7696 33.6739 44.1682C33.6472 44.5667 33.9487 44.9114 34.3472 44.9381Z" fill="#F8664F"/>
<path d="M31.6413 40.4223C31.7896 40.8486 31.9833 41.2577 32.2192 41.6425C32.1454 41.7161 32.0569 41.7733 31.9595 41.8104C31.8621 41.8476 31.758 41.864 31.6539 41.8584C31.4625 41.8456 31.2841 41.7573 31.1578 41.6129C31.0315 41.4685 30.9678 41.2799 30.9806 41.0885C30.9922 40.9166 31.0654 40.7546 31.1868 40.6323C31.3081 40.5099 31.4695 40.4354 31.6413 40.4223Z" fill="#CC5144"/>
<path d="M35.0955 44.3719C35.0596 44.5404 34.9643 44.6904 34.8269 44.7943C34.6895 44.8983 34.5192 44.9493 34.3473 44.9379C34.1559 44.9251 33.9774 44.8368 33.8511 44.6924C33.7249 44.548 33.6611 44.3594 33.6739 44.168C33.6823 44.0641 33.7123 43.9631 33.7622 43.8716C33.812 43.78 33.8805 43.6999 33.9632 43.6365C34.3131 43.9216 34.6928 44.1681 35.0955 44.3719Z" fill="#CC5144"/>
<path d="M32.2192 41.6425C32.1454 41.7161 32.0569 41.7733 31.9595 41.8104C31.8621 41.8476 31.758 41.864 31.6539 41.8584C31.4625 41.8456 31.2841 41.7573 31.1578 41.6129C31.0315 41.4685 30.9678 41.2799 30.9806 41.0885C30.9922 40.9166 31.0654 40.7546 31.1868 40.6323C31.3081 40.5099 31.4695 40.4354 31.6413 40.4223C31.7896 40.8486 31.9833 41.2577 32.2192 41.6425Z" fill="#CC5144"/>
<path d="M35.0955 44.3719C35.0596 44.5404 34.9643 44.6904 34.8269 44.7943C34.6895 44.8983 34.5192 44.9493 34.3473 44.9379C34.1559 44.9251 33.9774 44.8368 33.8511 44.6924C33.7249 44.548 33.6611 44.3594 33.6739 44.168C33.6823 44.0641 33.7123 43.9631 33.7622 43.8716C33.812 43.78 33.8805 43.6999 33.9632 43.6365C34.3131 43.9216 34.6928 44.1681 35.0955 44.3719Z" fill="#CC5144"/>
</svg>
