<svg width="50" height="49" viewBox="0 0 50 49" fill="none" xmlns="http://www.w3.org/2000/svg">
<g clip-path="url(#clip0_2001_951)">
<path d="M43.4237 26.3645L43.1573 26.7018C42.5585 27.4601 42.3603 28.4597 42.6245 29.3891L42.7403 29.7967C43.1219 31.1397 42.5298 32.5688 41.31 33.2479L40.9407 33.4536C40.0959 33.9241 39.5286 34.7719 39.4161 35.7323L39.3664 36.1567C39.2042 37.5411 38.1125 38.6328 36.7281 38.795L36.3036 38.8447C35.3432 38.9572 34.4954 39.5244 34.025 40.3693L33.8194 40.7385C33.1401 41.9583 31.711 42.5506 30.368 42.1689L29.9605 42.0531C29.0311 41.789 28.0314 41.9872 27.2732 42.586L26.9359 42.8524C25.8427 43.7158 24.2997 43.7158 23.2064 42.8524L22.8691 42.586C22.1108 41.9872 21.1112 41.789 20.1818 42.0531L19.7742 42.169C18.4312 42.5506 17.0021 41.9584 16.323 40.7386L16.1173 40.3694C15.6468 39.5245 14.799 38.9573 13.8386 38.8448L13.4142 38.795C12.0298 38.6329 10.9381 37.5411 10.7759 36.1567L10.7262 35.7323C10.6137 34.7719 10.0465 33.9241 9.2016 33.4536L8.83236 33.248C7.61258 32.5688 7.02031 31.1397 7.40202 29.7967L7.5178 29.3892C7.78195 28.4598 7.58371 27.4601 6.98491 26.7018L6.71854 26.3646C5.85515 25.2714 5.85515 23.7283 6.71854 22.635L6.98491 22.2978C7.58371 21.5395 7.78195 20.5398 7.5178 19.6105L7.40195 19.2029C7.02031 17.8599 7.6125 16.4308 8.83229 15.7516L9.20153 15.546C10.0464 15.0755 10.6136 14.2277 10.7261 13.2673L10.7759 12.8428C10.938 11.4584 12.0298 10.3667 13.4142 10.2046L13.8386 10.1549C14.799 10.0423 15.6468 9.47516 16.1173 8.63025L16.3229 8.26101C17.0021 7.04123 18.4312 6.44896 19.7742 6.83067L20.1817 6.94645C21.1111 7.2106 22.1108 7.01236 22.8691 6.41356L23.2063 6.14719C24.2995 5.2838 25.8426 5.2838 26.9359 6.14719L27.2731 6.41356C28.0314 7.01236 29.0311 7.2106 29.9604 6.94645L30.368 6.8306C31.711 6.44896 33.1401 7.04115 33.8193 8.26094L34.025 8.63018C34.4954 9.47501 35.3432 10.0423 36.3036 10.1548L36.7281 10.2045C38.1125 10.3667 39.2042 11.4584 39.3663 12.8428L39.4161 13.2673C39.5286 14.2277 40.0957 15.0755 40.9407 15.546L41.3099 15.7515C42.5297 16.4308 43.1219 17.8599 42.7402 19.2029L42.6245 19.6104C42.3603 20.5398 42.5585 21.5395 43.1573 22.2977L43.4237 22.635C44.2871 23.7282 44.2871 25.2712 43.4237 26.3645Z" fill="url(#paint0_linear_2001_951)"/>
<path d="M41.372 26.2735L41.2756 26.3956C40.706 27.1168 40.5174 28.0677 40.7687 28.9516L40.8096 29.0957C41.1727 30.373 40.6093 31.7324 39.4491 32.3784L39.3192 32.4507C38.5156 32.8982 37.9761 33.7046 37.869 34.6181L37.8512 34.7702C37.697 36.0869 36.6585 37.1255 35.3418 37.2796L35.1897 37.2974C34.2762 37.4045 33.4698 37.944 33.0223 38.7476L32.95 38.8775C32.304 40.0377 30.9446 40.6011 29.6673 40.238L29.5233 40.197C28.6394 39.9458 27.6885 40.1343 26.9673 40.7039L26.8453 40.8003C25.8054 41.6216 24.3378 41.6216 23.298 40.8003L23.1759 40.7039C22.4547 40.1344 21.5038 39.9458 20.6198 40.197L20.4758 40.238C19.1984 40.6011 17.8391 40.0376 17.1931 38.8775L17.1207 38.7475C16.6733 37.944 15.8669 37.4045 14.9533 37.2974L14.8012 37.2795C13.4845 37.1253 12.4459 36.0869 12.2918 34.7701L12.2739 34.618C12.1669 33.7045 11.6274 32.8981 10.8238 32.4507L10.6939 32.3784C9.53372 31.7323 8.97032 30.373 9.3334 29.0957L9.37437 28.9517C9.6256 28.0677 9.43708 27.1168 8.86745 26.3957L8.77104 26.2736C7.94981 25.2338 7.94981 23.7662 8.77104 22.7263L8.86745 22.6042C9.43701 21.883 9.6256 20.9321 9.37437 20.0482L9.3334 19.9041C8.97032 18.6267 9.53379 17.2674 10.6939 16.6214L10.8239 16.5491C11.6274 16.1016 12.1669 15.2952 12.274 14.3817L12.2918 14.2295C12.4461 12.9128 13.4845 11.8742 14.8012 11.7201L14.9534 11.7023C15.8669 11.5953 16.6733 11.0558 17.1207 10.2521L17.193 10.1222C17.8391 8.96205 19.1984 8.39866 20.4757 8.76174L20.6197 8.8027C21.5036 9.05394 22.4545 8.86542 23.1757 8.29579L23.2977 8.19938C24.3376 7.37815 25.8052 7.37815 26.8451 8.19938L26.9672 8.29579C27.6884 8.86535 28.6393 9.05394 29.5232 8.8027L29.6673 8.76174C30.9446 8.39866 32.304 8.96213 32.95 10.1222L33.0223 10.2522C33.4698 11.0558 34.2762 11.5953 35.1897 11.7024L35.3418 11.7202C36.6585 11.8744 37.6971 12.9129 37.8512 14.2296L37.869 14.3817C37.976 15.2952 38.5155 16.1016 39.3192 16.5491L39.4491 16.6214C40.6093 17.2675 41.1726 18.6268 40.8096 19.9041L40.7686 20.0481C40.5174 20.9321 40.7059 21.8829 41.2755 22.6041L41.3719 22.7261C42.1932 23.766 42.1932 25.2336 41.372 26.2735Z" fill="white"/>
<path d="M40.2584 26.2242L40.2541 26.2295C39.7005 26.9305 39.5171 27.8549 39.7613 28.7143L39.7616 28.7153C40.1145 29.9571 39.5669 31.2785 38.439 31.9066H38.439C37.6578 32.3416 37.1333 33.1255 37.0293 34.0136L37.0287 34.0181C36.8788 35.2981 35.8693 36.3076 34.5892 36.4575L34.5849 36.4581C33.6968 36.5621 32.9129 37.0866 32.4779 37.8678C31.8498 38.9957 30.5284 39.5433 29.2866 39.1904L29.2856 39.1901C28.4263 38.9459 27.5019 39.1291 26.8008 39.6829L26.7955 39.6871C25.7847 40.4854 24.358 40.4854 23.347 39.6871L23.3418 39.6829C22.6407 39.1292 21.7163 38.9459 20.8569 39.1901L20.8559 39.1904C19.6141 39.5433 18.2927 38.9956 17.6646 37.8678V37.8677C17.2296 37.0865 16.4457 36.562 15.5576 36.458L15.5532 36.4575C14.2731 36.3075 13.2636 35.298 13.1137 34.018L13.1132 34.0136C13.0091 33.1256 12.4846 32.3416 11.7034 31.9066C10.5755 31.2785 10.028 29.9571 10.3809 28.7153L10.3812 28.7144C10.6254 27.8551 10.4421 26.9307 9.88835 26.2295L9.88412 26.2243C9.08583 25.2134 9.08583 23.7867 9.88412 22.7758L9.88835 22.7705C10.442 22.0694 10.6253 21.145 10.3812 20.2857L10.3809 20.2846C10.028 19.0429 10.5756 17.7215 11.7034 17.0934C12.4846 16.6584 13.0092 15.8745 13.1132 14.9864L13.1138 14.9819C13.2637 13.7019 14.2732 12.6923 15.5532 12.5424L15.5576 12.5419C16.4457 12.4378 17.2296 11.9133 17.6646 11.1322C18.2927 10.0043 19.6141 9.45669 20.8559 9.8096L20.8568 9.8099C21.7162 10.0542 22.6405 9.87083 23.3417 9.31709L23.347 9.31286C24.3578 8.51456 25.7845 8.51456 26.7955 9.31286L26.8007 9.31709C27.5018 9.87076 28.4262 10.0541 29.2856 9.8099L29.2866 9.8096C30.5284 9.45669 31.8498 10.0044 32.4779 11.1322C32.9129 11.9133 33.6968 12.4379 34.5849 12.542L34.5893 12.5425C35.8694 12.6924 36.8789 13.7019 37.0288 14.982L37.0293 14.9864C37.1334 15.8744 37.6579 16.6584 38.439 17.0934C39.5669 17.7215 40.1145 19.0429 39.7616 20.2846L39.7613 20.2856C39.5171 21.1449 39.7004 22.0693 40.2541 22.7704L40.2583 22.7757C41.0567 23.7866 41.0567 25.2133 40.2584 26.2242Z" fill="url(#paint1_linear_2001_951)"/>
<path d="M36.8389 25.8359L36.8357 25.84C36.4067 26.3833 36.2647 27.0994 36.4539 27.7653L36.4542 27.7661C36.7276 28.7283 36.3033 29.7521 35.4294 30.2388H35.4293C34.8241 30.5758 34.4177 31.1832 34.3371 31.8714L34.3367 31.8748C34.2205 32.8666 33.4383 33.6488 32.4465 33.765L32.4432 33.7654C31.7551 33.846 31.1476 34.2523 30.8106 34.8576C30.3239 35.7316 29.3001 36.1559 28.3379 35.8824L28.3372 35.8822C27.6713 35.6929 26.9551 35.8349 26.4118 36.2639L26.4077 36.2671C25.6244 36.8857 24.5189 36.8857 23.7357 36.2671L23.7316 36.2639C23.1883 35.8349 22.4722 35.6929 21.8063 35.8822L21.8055 35.8824C20.8433 36.1558 19.8194 35.7315 19.3328 34.8576V34.8576C18.9958 34.2523 18.3884 33.8459 17.7002 33.7653L17.6968 33.7649C16.705 33.6488 15.9227 32.8665 15.8066 31.8747L15.8062 31.8714C15.7256 31.1833 15.3193 30.5758 14.7139 30.2388C13.84 29.7521 13.4156 28.7283 13.6892 27.7661L13.6894 27.7654C13.8787 27.0996 13.7366 26.3833 13.3076 25.84L13.3041 25.8359C12.6856 25.0526 12.6856 23.9471 13.3041 23.1639L13.3073 23.1598C13.7363 22.6165 13.8784 21.9004 13.6891 21.2345L13.6889 21.2337C13.4155 20.2715 13.8398 19.2477 14.7137 18.761C15.319 18.424 15.7255 17.8166 15.8061 17.1284L15.8064 17.125C15.9226 16.1332 16.7048 15.3509 17.6966 15.2348L17.7 15.2344C18.3881 15.1538 18.9955 14.7474 19.3326 14.1421C19.8192 13.2682 20.8431 12.8438 21.8052 13.1174L21.806 13.1176C22.4718 13.3069 23.1881 13.1648 23.7314 12.7358L23.7354 12.7327C24.5187 12.1141 25.6242 12.1141 26.4075 12.7327L26.4115 12.7358C26.9548 13.1648 27.671 13.3069 28.3369 13.1176L28.3377 13.1174C29.2998 12.844 30.3237 13.2683 30.8103 14.1422C31.1474 14.7475 31.7548 15.154 32.4429 15.2346L32.4463 15.2349C33.4381 15.3511 34.2204 16.1334 34.3365 17.1251L34.3369 17.1285C34.4175 17.8166 34.8239 18.424 35.4292 18.7611C36.3031 19.2477 36.7275 20.2716 36.4539 21.2337L36.4537 21.2345C36.2645 21.9003 36.4065 22.6166 36.8355 23.1599L36.8387 23.164C37.4575 23.9472 37.4575 25.0526 36.8389 25.8359Z" fill="url(#paint2_linear_2001_951)"/>
<path d="M29.9608 42.0531L30.3684 42.1689C31.7114 42.5506 33.1404 41.9584 33.8197 40.7386L34.0253 40.3693C34.4957 39.5245 35.3435 38.9573 36.3039 38.8447L36.7284 38.795C36.9687 38.7669 37.2 38.7101 37.4193 38.6293L18.5274 19.7375C18.3905 19.6627 18.2251 19.6251 18.0313 19.6251C17.8373 19.6251 17.6718 19.6627 17.5352 19.7375C17.3983 19.8125 17.3301 19.925 17.3301 20.0748V23.1879C17.3261 23.1848 17.322 23.181 17.318 23.178L13.9304 19.7903C13.7804 19.6802 13.5819 19.625 13.335 19.625C12.8675 19.625 12.6339 19.7794 12.6339 20.088V28.8322C12.6339 28.9734 12.7044 29.0858 12.8456 29.1695L26.6978 43.0217C26.7791 42.9693 26.8589 42.9132 26.9361 42.8522L27.2734 42.5858C28.0317 41.9872 29.0314 41.789 29.9608 42.0531Z" fill="url(#paint3_linear_2001_951)"/>
<path d="M12.634 28.8324V20.0882C12.634 19.7796 12.8676 19.6252 13.3351 19.6252C13.5819 19.6252 13.7803 19.6804 13.9305 19.7906C14.0802 19.9009 14.2347 20.1104 14.3934 20.419L17.3302 26.147V20.075C17.3302 19.9251 17.3985 19.8127 17.5353 19.7377C17.6719 19.6629 17.8373 19.6252 18.0313 19.6252C18.2252 19.6252 18.3906 19.6629 18.5274 19.7377C18.664 19.8127 18.7325 19.9251 18.7325 20.075V28.8325C18.7325 28.9737 18.6641 29.0861 18.5274 29.1698C18.3906 29.2537 18.2252 29.2956 18.0313 29.2956C17.661 29.2956 17.3831 29.1236 17.1979 28.7797L14.0362 22.7606V28.8327C14.0362 28.9738 13.9679 29.0863 13.8312 29.17C13.6944 29.2538 13.5289 29.2957 13.3351 29.2957C13.1499 29.2957 12.9866 29.2539 12.8457 29.17C12.7044 29.086 12.634 28.9736 12.634 28.8324Z" fill="url(#paint4_linear_2001_951)"/>
<path d="M26.1536 19.8102C26.0742 19.6867 25.9596 19.625 25.8096 19.625H21.1001C20.9325 19.625 20.787 19.6669 20.6636 19.7507C20.5399 19.8346 20.4784 19.947 20.4784 20.088V28.8323C20.4784 28.9734 20.54 29.0859 20.6636 29.1696L33.162 41.5475C33.421 41.323 33.645 41.0515 33.8194 40.7384L34.0249 40.3692C34.4954 39.5244 35.3432 38.9571 36.3036 38.8446L36.7281 38.7949C38.1125 38.6327 39.2042 37.541 39.3664 36.1566L39.4161 35.7322C39.4932 35.0748 39.7834 34.4703 40.2297 34.0032L26.1536 19.8102Z" fill="url(#paint5_linear_2001_951)"/>
<path d="M20.4785 28.8323V20.088C20.4785 19.9471 20.5401 19.8346 20.6636 19.7507C20.7871 19.667 20.9325 19.625 21.1002 19.625H25.8097C25.9595 19.625 26.0743 19.6867 26.1537 19.8102C26.2331 19.9338 26.2728 20.0748 26.2728 20.2334C26.2728 20.4099 26.2308 20.5598 26.1471 20.6832C26.0631 20.8068 25.9507 20.8684 25.8097 20.8684H21.8807V23.8978H23.918C24.0589 23.8978 24.1714 23.9531 24.2553 24.0632C24.3389 24.1736 24.381 24.308 24.381 24.4666C24.381 24.6078 24.3413 24.7335 24.2619 24.8437C24.1825 24.954 24.0678 25.009 23.9179 25.009H21.8807V28.0516H25.8097C25.9506 28.0516 26.0631 28.1134 26.147 28.2368C26.2306 28.3604 26.2727 28.5102 26.2727 28.6866C26.2727 28.8453 26.233 28.9865 26.1536 29.1098C26.0742 29.2334 25.9595 29.295 25.8096 29.295H21.1001C20.9325 29.295 20.787 29.2532 20.6636 29.1693C20.5401 29.0859 20.4785 28.9734 20.4785 28.8323Z" fill="url(#paint6_linear_2001_951)"/>
<path d="M43.4239 26.3647C43.4731 26.3023 43.5192 26.2384 43.5628 26.1733L37.2325 19.7883C37.0481 19.6795 36.8509 19.6252 36.6405 19.6252C36.3685 19.6252 36.2062 19.7196 36.1537 19.9084L34.8019 24.6357L32.7974 22.7607L32.7893 22.7288C32.7203 22.4501 32.4962 22.3106 32.1171 22.3106C31.7206 22.3106 31.4925 22.4475 31.4321 22.7207L31.3336 23.1122L28.0717 19.9162C28.0188 19.7224 27.8555 19.6252 27.5822 19.6252C27.3706 19.6252 27.1721 19.6804 26.9869 19.7906C26.8018 19.9009 26.7091 20.0354 26.7091 20.194C26.7091 20.2558 26.7134 20.2999 26.7223 20.3263L29.3549 28.8986C29.3989 29.0486 29.5047 29.1654 29.6724 29.2491L38.4301 38.0068C38.9379 37.5332 39.2811 36.8857 39.3665 36.1568L39.4162 35.7323C39.5287 34.7719 40.0959 33.9241 40.9408 33.4537L41.31 33.248C42.5298 32.5687 43.1221 31.1397 42.7404 29.7968L42.6245 29.3891C42.3604 28.4598 42.5586 27.4601 43.1574 26.7018L43.4239 26.3647Z" fill="url(#paint7_linear_2001_951)"/>
<path d="M26.7092 20.1939C26.7092 20.0351 26.8019 19.9008 26.9871 19.7904C27.1723 19.6803 27.3707 19.6251 27.5824 19.6251C27.8557 19.6251 28.019 19.7222 28.0719 19.9161L30.2414 27.4565L31.4322 22.7206C31.4926 22.4474 31.7208 22.3105 32.1172 22.3105C32.4963 22.3105 32.7204 22.45 32.7894 22.7287L33.993 27.4646L36.1538 19.9082C36.2063 19.7195 36.3686 19.625 36.6406 19.625C36.851 19.625 37.0482 19.6794 37.2326 19.788C37.4168 19.8967 37.509 20.0293 37.509 20.1857C37.509 20.2466 37.5043 20.2901 37.4957 20.3161L34.8789 28.889C34.8266 29.042 34.7156 29.1611 34.5458 29.2465C34.3762 29.3318 34.1911 29.3746 33.9911 29.3746C33.7907 29.3746 33.6057 29.3329 33.436 29.2496C33.2665 29.1663 33.164 29.05 33.1294 28.9007L32.1122 24.8981L31.1077 28.8934C31.0731 29.0449 30.9719 29.163 30.8038 29.2477C30.6355 29.3323 30.4468 29.3746 30.2377 29.3746C30.0285 29.3746 29.84 29.3326 29.6726 29.2489C29.5049 29.1652 29.3991 29.0483 29.3551 28.8983L26.7225 20.3261C26.7135 20.2998 26.7092 20.2557 26.7092 20.1939Z" fill="url(#paint8_linear_2001_951)"/>
</g>
<defs>
<linearGradient id="paint0_linear_2001_951" x1="21.1683" y1="20.5984" x2="47.6933" y2="47.1234" gradientUnits="userSpaceOnUse">
<stop stop-color="#FFB92D"/>
<stop offset="1" stop-color="#F59500"/>
</linearGradient>
<linearGradient id="paint1_linear_2001_951" x1="16.0845" y1="15.5147" x2="40.6052" y2="40.0354" gradientUnits="userSpaceOnUse">
<stop stop-color="#FFF465"/>
<stop offset="1" stop-color="#FFE600"/>
</linearGradient>
<linearGradient id="paint2_linear_2001_951" x1="29.6198" y1="29.0497" x2="18.8096" y2="18.2396" gradientUnits="userSpaceOnUse">
<stop stop-color="#FFF465"/>
<stop offset="1" stop-color="#FFE600"/>
</linearGradient>
<linearGradient id="paint3_linear_2001_951" x1="27.6286" y1="36.4094" x2="11.9991" y2="20.7792" gradientUnits="userSpaceOnUse">
<stop stop-color="#FFE600" stop-opacity="0"/>
<stop offset="1" stop-color="#F59500"/>
</linearGradient>
<linearGradient id="paint4_linear_2001_951" x1="15.6829" y1="20.6056" x2="15.6829" y2="35.6485" gradientUnits="userSpaceOnUse">
<stop stop-color="#FF4C54"/>
<stop offset="1" stop-color="#BE3F45"/>
</linearGradient>
<linearGradient id="paint5_linear_2001_951" x1="34.1834" y1="35.2648" x2="14.122" y2="15.2043" gradientUnits="userSpaceOnUse">
<stop stop-color="#FFE600" stop-opacity="0"/>
<stop offset="1" stop-color="#F59500"/>
</linearGradient>
<linearGradient id="paint6_linear_2001_951" x1="23.375" y1="20.6054" x2="23.375" y2="35.6483" gradientUnits="userSpaceOnUse">
<stop stop-color="#FF4C54"/>
<stop offset="1" stop-color="#BE3F45"/>
</linearGradient>
<linearGradient id="paint7_linear_2001_951" x1="42.0918" y1="33.1872" x2="30.0637" y2="21.1598" gradientUnits="userSpaceOnUse">
<stop stop-color="#FFE600" stop-opacity="0"/>
<stop offset="1" stop-color="#F59500"/>
</linearGradient>
<linearGradient id="paint8_linear_2001_951" x1="32.108" y1="20.6055" x2="32.108" y2="35.6484" gradientUnits="userSpaceOnUse">
<stop stop-color="#FF4C54"/>
<stop offset="1" stop-color="#BE3F45"/>
</linearGradient>
<clipPath id="clip0_2001_951">
<rect width="38" height="38" fill="white" transform="translate(6.07144 5.5)"/>
</clipPath>
</defs>
</svg>
