<svg width="26" height="26" viewBox="0 0 26 26" fill="none" xmlns="http://www.w3.org/2000/svg">
<path d="M16.373 6.55475L14.556 6.27704L13.7355 4.52985C13.6014 4.2442 13.315 4.0625 13 4.0625C12.685 4.0625 12.3986 4.2442 12.2645 4.52985L11.444 6.27704L9.62702 6.55475C9.3263 6.60077 9.07636 6.81104 8.97955 7.09985C8.88275 7.38867 8.95575 7.70685 9.1684 7.92505L10.507 9.29694L10.1896 11.2441C10.1396 11.5511 10.2697 11.8598 10.5236 12.0391C10.7775 12.2177 11.1132 12.2375 11.3845 12.0859L13 11.1933L14.6155 12.0859C14.7377 12.1542 14.8734 12.1875 15.0082 12.1875C15.0146 12.1883 15.0201 12.1883 15.0241 12.1875C15.4732 12.1875 15.8366 11.8241 15.8366 11.375C15.8366 11.2734 15.8184 11.1766 15.7842 11.087L15.493 9.29694L16.8316 7.92505C17.0443 7.70685 17.1173 7.38867 17.0204 7.09985C16.9236 6.81104 16.6737 6.60077 16.373 6.55475Z" fill="#D4AF37"/>
<path d="M8.18054 6.85944L9.51911 5.48755C9.73175 5.26935 9.80475 4.95117 9.70795 4.66235C9.61115 4.37354 9.36121 4.16327 9.06049 4.11725L7.24347 3.83954L6.42304 2.09235C6.28894 1.8067 6.0025 1.625 5.6875 1.625C5.3725 1.625 5.08606 1.8067 4.95197 2.09235L4.13153 3.83954L2.31452 4.11725C2.0138 4.16327 1.76386 4.37354 1.66705 4.66235C1.57025 4.95117 1.64325 5.26935 1.8559 5.48755L3.19446 6.85944L2.87708 8.80658C2.82709 9.11365 2.95722 9.4223 3.21112 9.60162C3.46582 9.78094 3.80145 9.79999 4.07202 9.64844L5.6875 8.7558L7.30298 9.64844C7.42517 9.71667 7.56085 9.75 7.69574 9.75H7.71161C8.16071 9.75 8.52411 9.3866 8.52411 8.9375C8.52411 8.83594 8.50586 8.73914 8.47174 8.64948L8.18054 6.85944Z" fill="#D4AF37"/>
<path d="M24.3329 4.66235C24.2361 4.37354 23.9862 4.16327 23.6855 4.11725L21.8685 3.83954L21.048 2.09235C20.9139 1.8067 20.6275 1.625 20.3125 1.625C19.9975 1.625 19.7111 1.8067 19.577 2.09235L18.7565 3.83954L16.9395 4.11725C16.6388 4.16327 16.3889 4.37354 16.2921 4.66235C16.1953 4.95117 16.2683 5.26935 16.4809 5.48755L17.8195 6.85944L17.5021 8.80658C17.4521 9.11365 17.5822 9.4223 17.8361 9.60162C18.09 9.78094 18.4265 9.79999 18.697 9.64844L20.3125 8.7558L21.928 9.64844C22.0502 9.71667 22.1859 9.75 22.3207 9.75H22.3366C22.7857 9.75 23.1491 9.3866 23.1491 8.9375C23.1491 8.83594 23.1309 8.73914 23.0967 8.64948L22.8055 6.85944L24.1441 5.48755C24.3568 5.26935 24.4298 4.95117 24.3329 4.66235Z" fill="#D4AF37"/>
<path d="M20.3125 12.1875H17.579C17.0288 12.1875 16.5118 12.4017 16.1227 12.7909L15.2284 13.6852C15.1463 13.7673 15.0372 13.8125 14.921 13.8125H11.079C10.9628 13.8125 10.8537 13.7673 10.7716 13.6852L9.87735 12.7909C9.48816 12.4017 8.97122 12.1875 8.42096 12.1875H5.6875C3.29324 12.1875 1.625 15.6133 1.625 18.6875C1.625 21.8768 3.40948 24.375 5.6875 24.375C7.34979 24.375 8.7923 22.7365 9.19498 21.125C9.39096 20.345 10.0892 19.5 10.893 19.5H15.107C15.9108 19.5 16.609 20.3458 16.8046 21.125C17.2077 22.7373 18.6502 24.375 20.3125 24.375C22.5905 24.375 24.375 21.8768 24.375 18.6875C24.375 15.6133 22.7068 12.1875 20.3125 12.1875ZM7.71875 17.0625H6.5V18.2812C6.5 18.5058 6.3183 18.6875 6.09375 18.6875C5.8692 18.6875 5.6875 18.5058 5.6875 18.2812V17.0625H4.46875C4.2442 17.0625 4.0625 16.8808 4.0625 16.6562C4.0625 16.4317 4.2442 16.25 4.46875 16.25H5.6875V15.0312C5.6875 14.8067 5.8692 14.625 6.09375 14.625C6.3183 14.625 6.5 14.8067 6.5 15.0312V16.25H7.71875C7.9433 16.25 8.125 16.4317 8.125 16.6562C8.125 16.8808 7.9433 17.0625 7.71875 17.0625ZM19.5 13.8125C19.9481 13.8125 20.3125 14.1769 20.3125 14.625C20.3125 15.0731 19.9481 15.4375 19.5 15.4375C19.0519 15.4375 18.6875 15.0731 18.6875 14.625C18.6875 14.1769 19.0519 13.8125 19.5 13.8125ZM17.875 17.0625C17.427 17.0625 17.0625 16.6981 17.0625 16.25C17.0625 15.8019 17.427 15.4375 17.875 15.4375C18.3231 15.4375 18.6875 15.8019 18.6875 16.25C18.6875 16.6981 18.3231 17.0625 17.875 17.0625ZM19.5 18.6875C19.0519 18.6875 18.6875 18.3231 18.6875 17.875C18.6875 17.4269 19.0519 17.0625 19.5 17.0625C19.9481 17.0625 20.3125 17.4269 20.3125 17.875C20.3125 18.3231 19.9481 18.6875 19.5 18.6875ZM21.125 17.0625C20.6769 17.0625 20.3125 16.6981 20.3125 16.25C20.3125 15.8019 20.6769 15.4375 21.125 15.4375C21.5731 15.4375 21.9375 15.8019 21.9375 16.25C21.9375 16.6981 21.5731 17.0625 21.125 17.0625Z" fill="white"/>
</svg>
