<svg width="28" height="24" viewBox="0 0 28 24" fill="none" xmlns="http://www.w3.org/2000/svg">
<path d="M19.4418 13.5582L25.0669 12.051C25.3155 11.9844 25.5804 12.0193 25.8034 12.148C26.0263 12.2767 26.189 12.4887 26.2556 12.7373L27.7628 18.3624C27.8127 18.5479 27.8064 18.744 27.7447 18.9259C27.6831 19.1078 27.5688 19.2674 27.4165 19.3843C27.2641 19.5013 27.0805 19.5704 26.8888 19.5829C26.6971 19.5954 26.506 19.5508 26.3398 19.4546L23.614 17.8789C22.0742 20.4398 19.6039 22.306 16.7198 23.0874L16.6577 23.104C13.7205 23.8992 10.5883 23.5051 7.93956 22.0073C7.72142 21.878 7.56254 21.6685 7.4969 21.4236C7.43125 21.1786 7.46407 20.9178 7.58832 20.6967C7.71257 20.4757 7.9184 20.312 8.16176 20.2408C8.40512 20.1696 8.66669 20.1964 8.89052 20.3156C11.098 21.5628 13.7077 21.891 16.1552 21.229L16.208 21.2149C18.5966 20.5676 20.645 19.0267 21.9291 16.9111L19.2074 15.3368C19.041 15.2408 18.9068 15.0977 18.8218 14.9254C18.7369 14.7532 18.7049 14.5596 18.73 14.3692C18.7551 14.1787 18.8361 14 18.9628 13.8557C19.0895 13.7113 19.2562 13.6078 19.4418 13.5582ZM2.93428 11.9525L8.55938 10.4452C8.74495 10.3956 8.91164 10.2921 9.03835 10.1478C9.16506 10.0034 9.24608 9.82473 9.27118 9.6343C9.29627 9.44387 9.2643 9.25028 9.17931 9.07803C9.09432 8.90578 8.96013 8.76262 8.79373 8.66668L6.0721 7.09237C7.35508 4.976 9.40268 3.43396 11.7911 2.7854L11.8438 2.77127C14.2913 2.1093 16.9011 2.43743 19.1085 3.68468C19.2198 3.75062 19.3431 3.79365 19.4712 3.81126C19.5993 3.82887 19.7297 3.82069 19.8546 3.78721C19.9795 3.75373 20.0965 3.69562 20.1986 3.6163C20.3008 3.53698 20.3861 3.43805 20.4494 3.32531C20.5128 3.21257 20.553 3.0883 20.5677 2.95981C20.5824 2.83132 20.5712 2.70119 20.5349 2.57707C20.4985 2.45295 20.4378 2.33734 20.3561 2.23703C20.2745 2.13673 20.1736 2.05375 20.0595 1.99297C17.4108 0.495135 14.2786 0.101107 11.3414 0.896237L11.2805 0.912566C8.39631 1.6939 5.926 3.56018 4.38623 6.12101L1.65811 4.54593C1.49165 4.45048 1.30063 4.40652 1.10918 4.41959C0.917742 4.43267 0.734471 4.50219 0.582531 4.61939C0.430589 4.73658 0.316796 4.89619 0.255529 5.07803C0.194264 5.25988 0.188273 5.4558 0.238316 5.64105L1.74556 11.2661C1.81218 11.5148 1.97485 11.7268 2.19778 11.8555C2.42071 11.9842 2.68564 12.0191 2.93428 11.9525Z" fill="#FFC048"/>
</svg>
