<svg width="15" height="15" viewBox="0 0 15 15" fill="none" xmlns="http://www.w3.org/2000/svg">
<path d="M14.4834 4.15884L11.3412 1.01728C11.2367 0.912786 11.1127 0.829896 10.9762 0.773343C10.8397 0.716791 10.6933 0.687683 10.5456 0.687683C10.3978 0.687683 10.2515 0.716791 10.115 0.773343C9.97851 0.829896 9.85448 0.912786 9.75001 1.01728L1.07977 9.68751C0.974851 9.7916 0.891667 9.91551 0.835055 10.052C0.778443 10.1885 0.749534 10.335 0.750006 10.4827V13.625C0.750006 13.9234 0.868532 14.2095 1.07951 14.4205C1.29049 14.6315 1.57664 14.75 1.87501 14.75H13.6875C13.8367 14.75 13.9798 14.6908 14.0853 14.5853C14.1907 14.4798 14.25 14.3367 14.25 14.1875C14.25 14.0383 14.1907 13.8953 14.0853 13.7898C13.9798 13.6843 13.8367 13.625 13.6875 13.625H6.60844L14.4834 5.75001C14.5879 5.64554 14.6708 5.52151 14.7274 5.385C14.7839 5.2485 14.813 5.10219 14.813 4.95443C14.813 4.80667 14.7839 4.66036 14.7274 4.52385C14.6708 4.38734 14.5879 4.26331 14.4834 4.15884ZM12 6.64228L8.85844 3.50001L10.5459 1.81251L13.6875 4.95478L12 6.64228Z" fill="#9D9D9D"/>
</svg>
